# Made in Blockbench 5.1.4
mtllib bluff.mtl

o cylinder
v 0 0 0
v 0.09099255856655057 0 0.25
v 0.09099255856655057 0.25 0.25
v 0.23040124627671904 0 0.13302222155948903
v 0.23040124627671904 0.25 0.13302222155948903
v 0.2620026302293849 0 -0.04619813272602383
v 0.2620026302293849 0.25 -0.04619813272602383
v 0.17101007166283438 0 -0.20380186727397612
v 0.17101007166283438 0.25 -0.20380186727397612
v 3.258104756965965e-17 0 -0.266044443118978
v 3.258104756965965e-17 0.25 -0.266044443118978
v -0.17101007166283433 0 -0.20380186727397614
v -0.17101007166283433 0.25 -0.20380186727397614
v -0.2620026302293849 0 -0.046198132726023834
v -0.2620026302293849 0.25 -0.046198132726023834
v -0.23040124627671904 0 0.13302222155948903
v -0.23040124627671904 0.25 0.13302222155948903
v -0.09099255856655077 0 0.2499999999999999
v -0.09099255856655077 0.25 0.2499999999999999
v 2.6378815286643047e-17 0.34375 -0.21515833233923354
v -0.13845604819503418 0.34375 -0.16470718925460137
v -0.21212697267203867 0.34375 -0.03696041055200345
v -0.1865413291070989 0.34375 0.10830786626631436
v -0.07367092447700466 0.34375 0.2031249999999999
v 0.07367092447700449 0.34375 0.20312500000000006
v 0.1865413291070989 0.34375 0.10830786626631436
v 0.21212697267203867 0.34375 -0.03696041055200344
v 0.1384560481950342 0.34375 -0.16470718925460137
v 1.9784111464982285e-17 0.40625 -0.16124729923830888
v -0.10384203614627563 0.40625 -0.12340894192483476
v 0 0.4375 0.00048580006446505286
v -0.159095229504029 0.40625 -0.027598857897886325
v -0.13990599683032418 0.40625 0.08135234971585203
v -0.05525319335775349 0.40625 0.1524652000161162
v 0.05525319335775337 0.40625 0.1524652000161163
v 0.13990599683032418 0.40625 0.08135234971585203
v 0.159095229504029 0.40625 -0.02759885789788632
v 0.10384203614627566 0.40625 -0.12340894192483476
vt 0.2480125 0.933909375
vt 0.178309375 0.9923968750000001
vt 0.1328125 0.8673968750000001
vt 0.37775625 0.28231996180870367
vt 0.46875 0.28231996180870367
vt 0.46875 0.40731996180870367
vt 0.37775625 0.40731996180870367
vt 0.332315625 0.5589537932137355
vt 0.37510686707441726 0.5939478027760056
vt 0.3046864516378257 0.636534861952111
vt 0.2638125 0.844296875
vt 0.2480125 0.933909375
vt 0.1328125 0.8673968750000001
vt 0.12775625000000002 0.31348874236284785
vt 0.21875 0.31348874236284785
vt 0.21875 0.43848874236284785
vt 0.12775625000000002 0.43848874236284785
vt 0.3751068670744172 0.5939478027760056
vt 0.38613939749855286 0.6481488722183193
vt 0.30468906288952896 0.6365332827860393
vt 0.21831875 0.765496875
vt 0.2638125 0.844296875
vt 0.1328125 0.8673968750000001
vt 0.4375 0.7821698709082432
vt 0.52849375 0.7821698709082432
vt 0.52849375 0.9071698709082432
vt 0.4375 0.9071698709082432
vt 0.38613939749855286 0.6481488722183193
vt 0.36043497020139514 0.6971118420764186
vt 0.30468922040766955 0.6365333052496185
vt 0.1328125 0.734375
vt 0.21831875 0.765496875
vt 0.1328125 0.8673968750000001
vt 0.3125 0.7821468063927295
vt 0.40349375 0.7821468063927295
vt 0.40349375 0.9071468063927295
vt 0.3125 0.9071468063927295
vt 0.36043497020139514 0.6971118420764186
vt 0.3095848568492683 0.71875
vt 0.3046894513030517 0.6365335561621
vt 0.047306249999999994 0.765496875
vt 0.1328125 0.734375
vt 0.1328125 0.8673968750000001
vt 0.0027562500000000018 0.46964619489514425
vt 0.09375 0.46964619489514425
vt 0.09375 0.5946461948951443
vt 0.0027562500000000018 0.5946461948951443
vt 0.2997901431507317 0.71875
vt 0.24894002979860486 0.6971118420764186
vt 0.3046855486969483 0.6365335561621
vt 0.0018124999999999947 0.844296875
vt 0.047306249999999994 0.765496875
vt 0.1328125 0.8673968750000001
vt 0.44025625 0.5321698709082432
vt 0.53125 0.5321698709082432
vt 0.53125 0.6571698709082432
vt 0.44025625 0.6571698709082432
vt 0.24894002979860486 0.6971118420764186
vt 0.22323560250144714 0.6481488722183193
vt 0.30468577959233045 0.6365333052496185
vt 0.017612500000000003 0.933909375
vt 0.0018124999999999947 0.844296875
vt 0.1328125 0.8673968750000001
vt 0.25000000021464386 0.2822418673628404
vt 0.3409937502146439 0.2822418673628404
vt 0.3409937502146439 0.4072418673628404
vt 0.25000000021464386 0.4072418673628404
vt 0.22323560250144714 0.6481488722183193
vt 0.23426813292558277 0.5939478027760056
vt 0.30468593711047104 0.6365332827860393
vt 0.08731562500000001 0.9923968750000001
vt 0.017612500000000003 0.933909375
vt 0.1328125 0.8673968750000001
vt 0.5 0.2823199618087038
vt 0.59099375 0.2823199618087038
vt 0.59099375 0.4073199618087038
vt 0.5 0.4073199618087038
vt 0.23426813292558274 0.5939478027760056
vt 0.277059375 0.5589537932137355
vt 0.3046885483621743 0.636534861952111
vt 0.178309375 0.9923968750000001
vt 0.08731562500000001 0.9923968750000001
vt 0.1328125 0.8673968750000001
vt 0.0013781250000000009 0.21986562499999995
vt 0.09237187499999999 0.21986562499999995
vt 0.09237187499999999 0.34486562499999995
vt 0.0013781250000000009 0.34486562499999995
vt 0.277059375 0.5589537932137355
vt 0.332315625 0.5589537932137355
vt 0.3046875 0.6365319182137354
vt 0.08514276933972827 0.6472793879580918
vt 0.011461520034998618 0.647269265864565
vt 0.002759374141395085 0.5946461948951443
vt 0.09375 0.5946461948951443
vt 0.5227810994522448 0.7097897114257739
vt 0.4490467265830454 0.7097719849906987
vt 0.44025937237052243 0.6571698709082432
vt 0.53125 0.6571698709082432
vt 0.3326286092562871 0.45978619205515925
vt 0.258878609430255 0.4597912576503118
vt 0.25 0.4072418673628405
vt 0.3409937502146439 0.4072418673628404
vt 0.582562608213217 0.4597657402498343
vt 0.5088563603432048 0.45978345992339587
vt 0.5000031223705225 0.4073199618087038
vt 0.59099375 0.4073199618087038
vt 0.083709375 0.39727187499999994
vt 0.010040625000000004 0.39727187499999994
vt 0.0013781250000000009 0.34486562499999995
vt 0.09237187499999999 0.34486562499999995
vt 0.45989676202731755 0.45978345992339587
vt 0.38619051415730543 0.4597657402498343
vt 0.37775937237052243 0.40731996180870367
vt 0.46875 0.40731996180870367
vt 0.20987139035510122 0.4910412576503118
vt 0.13612139052906902 0.49103619205515925
vt 0.1277562497853561 0.43848874236284785
vt 0.21875 0.43848874236284785
vt 0.519706395787477 0.9597719849906987
vt 0.44597202291827764 0.9597897114257739
vt 0.4375031223705224 0.9071698709082433
vt 0.52849375 0.9071698709082432
vt 0.3947934108720018 0.9597670511993717
vt 0.3211121619583618 0.959779703816213
vt 0.3125031236584298 0.9071468063927295
vt 0.40349375 0.9071468063927295
vt 0.0759466188744219 0.6875
vt 0.020684119395889426 0.6874924082152036
vt 0.011461520034998611 0.6472692658645649
vt 0.08514276933972827 0.6472793879580918
vt 0.513577682255901 0.75
vt 0.4582776838539788 0.7499867053615135
vt 0.4490467265830454 0.7097719849906986
vt 0.5227810994522448 0.7097897114257739
vt 0.3234032461006327 0.4999962008036356
vt 0.26809074623110857 0.5
vt 0.258878609430255 0.4597912576503118
vt 0.3326286092562871 0.45978619205515925
vt 0.5733316524448422 0.4999867106204685
vt 0.5180535290422879 0.5
vt 0.5088563603432048 0.45978345992339587
vt 0.582562608213217 0.4597657402498343
vt 0.074503125 0.4375
vt 0.019246874999999997 0.4375
vt 0.010040624999999997 0.39727187499999994
vt 0.083709375 0.39727187499999994
vt 0.4506995933282345 0.5
vt 0.3954214699256803 0.4999867106204685
vt 0.38619051415730543 0.4597657402498343
vt 0.45989676202731755 0.45978345992339587
vt 0.20065925355424763 0.53125
vt 0.14534675368472347 0.5312462008036356
vt 0.13612139052906902 0.49103619205515925
vt 0.20987139035510122 0.4910412576503118
vt 0.5104754385165435 0.9999867053615135
vt 0.45517544011462147 1
vt 0.44597202291827764 0.9597897114257739
vt 0.519706395787477 0.9597719849906987
vt 0.38557219294806366 0.9999905102690549
vt 0.3303096937628566 1
vt 0.3211121619583618 0.959779703816213
vt 0.3947934108720018 0.9597670511993717
vn 0 -1 0
vn 0.6427876096865394 0 0.766044443118978
vn 0.12960615143486096 0.9794891085884578 0.15428328382178155
vn 0 -1 0
vn 0.9848077530122082 0 0.1736481776669303
vn 0.1985630466436449 0.9794639635565336 0.034972283335794274
vn 0 -1 0
vn 0.8660254037844389 0 -0.4999999999999999
vn 0.17461518306194626 0.9794738938738248 -0.10069969743693695
vn 0 -1 0
vn 0.3420201433256688 0 -0.9396926207859084
vn 0.06896293481274404 0.9795024887698739 -0.1892590502872628
vn 0 -1 0
vn -0.3420201433256687 0 -0.9396926207859084
vn -0.06896293481274404 0.9795024887698739 -0.1892590502872628
vn 0 -1 0
vn -0.8660254037844387 0 -0.5
vn -0.17461518306194626 0.9794738938738248 -0.100699697436937
vn 0 -1 0
vn -0.9848077530122082 0 0.1736481776669303
vn -0.1985630466436449 0.9794639635565336 0.034972283335794274
vn 0 -1 0
vn -0.6427876096865395 0 0.7660444431189779
vn -0.12960615143486098 0.9794891085884577 0.15428328382178158
vn 0 -1 0
vn -6.100625381432456e-16 0 1
vn -2.023466571319205e-16 0.9795077731672495 0.2014063611332477
vn -0.3049913717707637 0.4543143526243973 -0.8370058136864181
vn -0.771975443740722 0.45371345744948804 -0.4451943539517852
vn -0.8784485601696738 0.4520955115081105 0.15471837515320294
vn -0.5746713804212592 0.4491932411180959 0.6840893484469297
vn -1.0109283292714064e-15 0.4472135954999582 0.894427190999916
vn 0.5749216493223224 0.44841851374735986 0.6843872687807026
vn 0.8785820157287932 0.4518280559366765 0.1547418802600451
vn 0.7716774686045365 0.45438843207332497 -0.4450225131901087
vn 0.3049038536075278 0.45481525528767286 -0.8367656324281538
vn -0.2659796932082401 0.6296323577467935 -0.7299437628194821
vn -0.6731919363732867 0.6293591004722698 -0.3882264023153503
vn -0.7654102920189082 0.6292642824197907 0.13480930139361869
vn -0.49977676398046716 0.629504453331553 0.5949347270255412
vn -7.804791255335459e-16 0.6296828926249382 0.7768522734313716
vn 0.4997767639804671 0.629504453331553 0.5949347270255411
vn 0.7654102920189084 0.6292642824197906 0.1348093013936187
vn 0.6731919363732867 0.6293591004722698 -0.38822640231535016
vn 0.2659796932082401 0.6296323577467936 -0.7299437628194821
usemtl m_a0147af8-c956-2947-0124-215bacc0bf2a
f 4/1/1 2/2/1 1/3/1
f 2/4/2 4/5/2 5/6/2 3/7/2
f 35/8/3 36/9/3 31/10/3
f 6/11/4 4/12/4 1/13/4
f 4/14/5 6/15/5 7/16/5 5/17/5
f 36/18/6 37/19/6 31/20/6
f 8/21/7 6/22/7 1/23/7
f 6/24/8 8/25/8 9/26/8 7/27/8
f 37/28/9 38/29/9 31/30/9
f 10/31/10 8/32/10 1/33/10
f 8/34/11 10/35/11 11/36/11 9/37/11
f 38/38/12 29/39/12 31/40/12
f 12/41/13 10/42/13 1/43/13
f 10/44/14 12/45/14 13/46/14 11/47/14
f 29/48/15 30/49/15 31/50/15
f 14/51/16 12/52/16 1/53/16
f 12/54/17 14/55/17 15/56/17 13/57/17
f 30/58/18 32/59/18 31/60/18
f 16/61/19 14/62/19 1/63/19
f 14/64/20 16/65/20 17/66/20 15/67/20
f 32/68/21 33/69/21 31/70/21
f 18/71/22 16/72/22 1/73/22
f 16/74/23 18/75/23 19/76/23 17/77/23
f 33/78/24 34/79/24 31/80/24
f 2/81/25 18/82/25 1/83/25
f 18/84/26 2/85/26 3/86/26 19/87/26
f 34/88/27 35/89/27 31/90/27
f 21/91/28 20/92/28 11/93/28 13/94/28
f 22/95/29 21/96/29 13/97/29 15/98/29
f 23/99/30 22/100/30 15/101/30 17/102/30
f 24/103/31 23/104/31 17/105/31 19/106/31
f 25/107/32 24/108/32 19/109/32 3/110/32
f 26/111/33 25/112/33 3/113/33 5/114/33
f 27/115/34 26/116/34 5/117/34 7/118/34
f 28/119/35 27/120/35 7/121/35 9/122/35
f 20/123/36 28/124/36 9/125/36 11/126/36
f 30/127/37 29/128/37 20/129/37 21/130/37
f 32/131/38 30/132/38 21/133/38 22/134/38
f 33/135/39 32/136/39 22/137/39 23/138/39
f 34/139/40 33/140/40 23/141/40 24/142/40
f 35/143/41 34/144/41 24/145/41 25/146/41
f 36/147/42 35/148/42 25/149/42 26/150/42
f 37/151/43 36/152/43 26/153/43 27/154/43
f 38/155/44 37/156/44 27/157/44 28/158/44
f 29/159/45 38/160/45 28/161/45 20/162/45