# Made in Blockbench 5.1.6
mtllib dense-forest.mtl

o pines
v -0.196875 0.1925 0.1275
v -0.196875 0.4925 0.1275
v -0.29312499999999997 0.1925 0.18629875
v -0.19687499999999997 0.1925 0.245098125
v -0.10062499999999998 0.1925 0.18629874999999999
v -0.100625 0.1925 0.06870124999999999
v -0.19687500000000002 0.1925 0.009901875000000004
v -0.293125 0.1925 0.06870125000000002
v -0.239375 0.1925 0.17
v -0.15437499999999998 0.1925 0.16999999999999998
v -0.239375 0 0.17
v -0.15437499999999998 0 0.16999999999999998
v -0.239375 0.1925 0.085
v -0.15437499999999998 0.1925 0.08499999999999999
v -0.239375 0 0.085
v -0.15437499999999998 0 0.08499999999999999
v 0.22812499999999994 0.255 -0.04250000000000009
v 0.22812499999999994 0.6174999999999999 -0.04250000000000009
v 0.10062499999999999 0.255 0.026298749999999926
v 0.228125 0.255 0.06384812499999991
v 0.35562499999999997 0.255 0.02629874999999987
v 0.35562499999999997 0.255 -0.11129875000000011
v 0.22812499999999994 0.255 -0.1800981250000001
v 0.10062499999999994 0.255 -0.11129875000000006
v 0.18562499999999996 0.255 -8.326672684688674e-17
v 0.270625 0.255 -1.1102230246251565e-16
v 0.18562499999999996 0 -8.326672684688674e-17
v 0.270625 0 -1.1102230246251565e-16
v 0.18562499999999996 0.255 -0.08500000000000008
v 0.270625 0.255 -0.0850000000000001
v 0.18562499999999996 0 -0.08500000000000008
v 0.270625 0 -0.0850000000000001
vt 0.097318125 0.31543390625
vt 0.125 0.31006921875000004
vt 0.125 0.390625
vt 0.60845 0.703125
vt 0.62315 0.7271875
vt 0.59375 0.7271875
vt 0.21875 1
vt 0.2241146875 0.972318125
vt 0.29930578125 1
vt 0.57905 0.703125
vt 0.60845 0.703125
vt 0.59375 0.7271875
vt 0.54804953125 0.36276984375
vt 0.57695046875 0.35737593749999996
vt 0.57695046875 0.4375
vt 0.56435 0.7271875
vt 0.57905 0.703125
vt 0.59375 0.7271875
vt 0.222318125 0.31543390625
vt 0.25 0.31006921875000004
vt 0.25 0.390625
vt 0.57905 0.75125
vt 0.56435 0.7271875
vt 0.59375 0.7271875
vt 0.625 0.9375
vt 0.6303646875 0.909818125
vt 0.70555578125 0.9375
vt 0.60845 0.75125
vt 0.57905 0.75125
vt 0.59375 0.7271875
vt 0.48554953125 0.33151984375
vt 0.51445046875 0.32612593749999996
vt 0.51445046875 0.40625
vt 0.046875 0.171875
vt 0.046875 0.21875
vt 0.03125 0.21875
vt 0.03125 0.171875
vt 0 0.984375
vt 0.015625 0.984375
vt 0.015625 1
vt 0 1
vt 0.15625 0.828125
vt 0.15625 0.84375
vt 0.140625 0.84375
vt 0.140625 0.828125
vt 0.1875 0.1875
vt 0.1875 0.234375
vt 0.171875 0.234375
vt 0.171875 0.1875
vt 0.015625 0.21875
vt 0 0.21875
vt 0 0.171875
vt 0.015625 0.171875
vt 0.15549375 0.438125
vt 0.14610625 0.47
vt 0.12890625 0.438125
vt 0.3245890625 0.4683546875
vt 0.3578171875 0.4683546875
vt 0.35030625 0.5625
vt 0.14610625 0.40625
vt 0.15549375 0.438125
vt 0.12890625 0.438125
vt 0.3578171875 0.4683546875
vt 0.390625 0.47362312500000003
vt 0.35030625 0.5625
vt 0.11170625 0.40625
vt 0.14610625 0.40625
vt 0.12890625 0.438125
vt 0.50650671875 0.43971781249999997
vt 0.54036828125 0.43365515624999995
vt 0.54036828125 0.53125
vt 0.09450625 0.438125
vt 0.11170625 0.40625
vt 0.12890625 0.438125
vt 0.511779375 1
vt 0.5191590625 0.964539375
vt 0.609375 1
vt 0.11170625 0.47
vt 0.09450625 0.438125
vt 0.12890625 0.438125
vt 0.25 0.42541078125
vt 0.285460625 0.4180309375
vt 0.285460625 0.515625
vt 0.14610625 0.47
vt 0.11170625 0.47
vt 0.12890625 0.438125
vt 0.17838171875 0.39284281249999997
vt 0.21224328125 0.38678015624999995
vt 0.21224328125 0.484375
vt 0.421875 0.34375
vt 0.40625 0.34375
vt 0.40625 0.28125
vt 0.421875 0.28125
vt 0.65625 0.234375
vt 0.65625 0.296875
vt 0.640625 0.296875
vt 0.640625 0.234375
vt 0.234375 0.890625
vt 0.25 0.890625
vt 0.25 0.90625
vt 0.234375 0.90625
vt 0.296875 0.796875
vt 0.296875 0.8125
vt 0.28125 0.8125
vt 0.28125 0.796875
vt 0.078125 0.265625
vt 0.078125 0.328125
vt 0.0625 0.328125
vt 0.0625 0.265625
vt 0.21875 0.296875
vt 0.203125 0.296875
vt 0.203125 0.234375
vt 0.21875 0.234375
vt 0.078125 0.171875
vt 0.078125 0.21875
vt 0.0625 0.21875
vt 0.0625 0.171875
vt 0.62315 0.7271875
vt 0.60845 0.75125
vt 0.59375 0.7271875
vn -0.4943928811558149 0.3172337460694324 0.809282663484896
vn 0 -1 0
vn 0.49439288115581526 0.3172337460694324 0.8092826634848957
vn 0 -1 0
vn 0.9521935429564546 0.30549542836519583 -2.114294390579318e-16
vn 0 -1 0
vn 0.4943928811558149 0.3172337460694324 -0.809282663484896
vn 0 -1 0
vn -0.49439288115581526 0.3172337460694324 -0.8092826634848957
vn 0 -1 0
vn -0.9521935429564546 0.30549542836519583 2.114294390579318e-16
vn -2.220446049250313e-16 0 -1
vn 0 1 0
vn 0 -1 0
vn -1 0 2.220446049250313e-16
vn 1 0 -2.220446049250313e-16
vn 0 -1 0
vn -0.2719444922868367 0.27090034990442086 0.9233954697400876
vn 0 -1 0
vn 0.2719444922868372 0.2709003499044209 0.9233954697400876
vn 0 -1 0
vn 0.9433501056465806 0.3317990026756939 -2.0946580151428154e-16
vn 0 -1 0
vn 0.4504121134958799 0.3168401855104398 -0.8347102640209264
vn 0 -1 0
vn -0.45041211349588034 0.31684018551043985 -0.8347102640209264
vn 0 -1 0
vn -0.9433501056465806 0.3317990026756939 2.0946580151428154e-16
vn 2.220446049250313e-16 0 1
vn -2.220446049250313e-16 0 -1
vn 0 1 0
vn 0 -1 0
vn -1 0 2.220446049250313e-16
vn 1 0 -2.220446049250313e-16
vn 2.220446049250313e-16 0 1
vn 0 -1 0
usemtl m_41c55970-49ed-0baf-8e3d-d95fe0cfa287
f 3/1/1 4/2/1 2/3/1
f 5/4/2 4/5/2 1/6/2
f 4/7/3 5/8/3 2/9/3
f 6/10/4 5/11/4 1/12/4
f 5/13/5 6/14/5 2/15/5
f 7/16/6 6/17/6 1/18/6
f 6/19/7 7/20/7 2/21/7
f 8/22/8 7/23/8 1/24/8
f 7/25/9 8/26/9 2/27/9
f 3/28/10 8/29/10 1/30/10
f 8/31/11 3/32/11 2/33/11
f 15/34/12 13/35/12 14/36/12 16/37/12
f 13/38/13 9/39/13 10/40/13 14/41/13
f 12/42/14 11/43/14 15/44/14 16/45/14
f 11/46/15 9/47/15 13/48/15 15/49/15
f 14/50/16 10/51/16 12/52/16 16/53/16
f 20/54/17 19/55/17 17/56/17
f 19/57/18 20/58/18 18/59/18
f 21/60/19 20/61/19 17/62/19
f 20/63/20 21/64/20 18/65/20
f 22/66/21 21/67/21 17/68/21
f 21/69/22 22/70/22 18/71/22
f 23/72/23 22/73/23 17/74/23
f 22/75/24 23/76/24 18/77/24
f 24/78/25 23/79/25 17/80/25
f 23/81/26 24/82/26 18/83/26
f 19/84/27 24/85/27 17/86/27
f 24/87/28 19/88/28 18/89/28
f 26/90/29 25/91/29 27/92/29 28/93/29
f 31/94/30 29/95/30 30/96/30 32/97/30
f 29/98/31 25/99/31 26/100/31 30/101/31
f 28/102/32 27/103/32 31/104/32 32/105/32
f 27/106/33 25/107/33 29/108/33 31/109/33
f 30/110/34 26/111/34 28/112/34 32/113/34
f 12/114/35 10/115/35 9/116/35 11/117/35
f 4/118/36 3/119/36 1/120/36
o bramble
v -0.078815625 0.089745625 -0.3453125
v -0.0831025 0.08176562500000001 -0.364095
v -0.084878125 0.0625 -0.371875
v -0.0831025 0.043234375 -0.364095
v -0.078815625 0.035254375 -0.3453125
v -0.074528125 0.043234375 -0.32653
v -0.0727525 0.0625 -0.31875
v -0.074528125 0.08176562500000001 -0.32653
v -0.220835625 0.058495624999999996 -0.276919375
v -0.2328475 0.050515625 -0.29198125
v -0.237823125 0.03125 -0.298220625
v -0.2328475 0.011984374999999999 -0.29198125
v -0.220835625 0.004004375000000001 -0.276919375
v -0.20882375 0.011984374999999999 -0.261856875
v -0.203848125 0.03125 -0.2556175
v -0.20882375 0.050515625 -0.261856875
v -0.319116875 0.089745625 -0.15367875
v -0.336474375 0.08176562500000001 -0.1620375
v -0.343664375 0.0625 -0.1655
v -0.336474375 0.043234375 -0.1620375
v -0.319116875 0.035254375 -0.15367875
v -0.301759375 0.043234375 -0.145319375
v -0.294569375 0.0625 -0.141856875
v -0.301759375 0.08176562500000001 -0.145319375
v -0.354193125 0.058495624999999996 0
v -0.373458125 0.050515625 0
v -0.38143875 0.03125 0
v -0.373458125 0.011984374999999999 0
v -0.354193125 0.004004375000000001 0
v -0.3349275 0.011984374999999999 0
v -0.3269475 0.03125 0
v -0.3349275 0.050515625 0
v -0.319116875 0.089745625 0.15367875
v -0.336474375 0.08176562500000001 0.1620375
v -0.343664375 0.0625 0.1655
v -0.336474375 0.043234375 0.1620375
v -0.319116875 0.035254375 0.15367875
v -0.301759375 0.043234375 0.145319375
v -0.294569375 0.0625 0.141856875
v -0.301759375 0.08176562500000001 0.145319375
v -0.220835625 0.058495624999999996 0.276919375
v -0.2328475 0.050515625 0.29198125
v -0.237823125 0.03125 0.298220625
v -0.2328475 0.011984374999999999 0.29198125
v -0.220835625 0.004004375000000001 0.276919375
v -0.20882375 0.011984374999999999 0.261856875
v -0.203848125 0.03125 0.2556175
v -0.20882375 0.050515625 0.261856875
v -0.078815625 0.089745625 0.3453125
v -0.0831025 0.08176562500000001 0.364095
v -0.084878125 0.0625 0.371875
v -0.0831025 0.043234375 0.364095
v -0.078815625 0.035254375 0.3453125
v -0.074528125 0.043234375 0.32653
v -0.0727525 0.0625 0.31875
v -0.074528125 0.08176562500000001 0.32653
v 0.078815625 0.058495624999999996 -0.3453125
v 0.0831025 0.050515625 -0.364095
v 0.084878125 0.03125 -0.371875
v 0.0831025 0.011984374999999999 -0.364095
v 0.078815625 0.004004375000000001 -0.3453125
v 0.074528125 0.011984374999999999 -0.32653
v 0.0727525 0.03125 -0.31875
v 0.074528125 0.050515625 -0.32653
v 0.220835625 0.089745625 -0.276919375
v 0.2328475 0.08176562500000001 -0.29198125
v 0.237823125 0.0625 -0.298220625
v 0.2328475 0.043234375 -0.29198125
v 0.220835625 0.035254375 -0.276919375
v 0.20882375 0.043234375 -0.261856875
v 0.203848125 0.0625 -0.2556175
v 0.20882375 0.08176562500000001 -0.261856875
v 0.319116875 0.058495624999999996 -0.15367875
v 0.336474375 0.050515625 -0.1620375
v 0.343664375 0.03125 -0.1655
v 0.336474375 0.011984374999999999 -0.1620375
v 0.319116875 0.004004375000000001 -0.15367875
v 0.301759375 0.011984374999999999 -0.145319375
v 0.294569375 0.03125 -0.141856875
v 0.301759375 0.050515625 -0.145319375
v 0.354193125 0.089745625 0
v 0.373458125 0.08176562500000001 0
v 0.38143875 0.0625 0
v 0.373458125 0.043234375 0
v 0.354193125 0.035254375 0
v 0.3349275 0.043234375 0
v 0.3269475 0.0625 0
v 0.3349275 0.08176562500000001 0
v 0.319116875 0.058495624999999996 0.15367875
v 0.336474375 0.050515625 0.1620375
v 0.343664375 0.03125 0.1655
v 0.336474375 0.011984374999999999 0.1620375
v 0.319116875 0.004004375000000001 0.15367875
v 0.301759375 0.011984374999999999 0.145319375
v 0.294569375 0.03125 0.141856875
v 0.301759375 0.050515625 0.145319375
v 0.220835625 0.089745625 0.276919375
v 0.2328475 0.08176562500000001 0.29198125
v 0.237823125 0.0625 0.298220625
v 0.2328475 0.043234375 0.29198125
v 0.220835625 0.035254375 0.276919375
v 0.20882375 0.043234375 0.261856875
v 0.203848125 0.0625 0.2556175
v 0.20882375 0.08176562500000001 0.261856875
v 0.078815625 0.058495624999999996 0.3453125
v 0.0831025 0.050515625 0.364095
v 0.084878125 0.03125 0.371875
v 0.0831025 0.011984374999999999 0.364095
v 0.078815625 0.004004375000000001 0.3453125
v 0.074528125 0.011984374999999999 0.32653
v 0.0727525 0.03125 0.31875
v 0.074528125 0.050515625 0.32653
vt 0.5733053125 0.60435609375
vt 0.5725471875 0.59919765625
vt 0.61446859375 0.60469140625
vt 0.613119375 0.6097134375
vt 0.65780109375 0.83068796875
vt 0.65750578125 0.82548328125
vt 0.69982453125 0.83392546875
vt 0.69923390625 0.83910515625
vt 0.62830046875 0.869216875
vt 0.62888796875 0.8640371875
vt 0.67032390625 0.87243875
vt 0.67062078125 0.8776434375
vt 0.092941875 0.9956071875
vt 0.0938296875 0.99047
vt 0.13396578125 0.9922303125
vt 0.135185625 0.99728421875
vt 0.402593125 0.90625
vt 0.401666875 0.91138109375
vt 0.36380234375 0.9153709375
vt 0.36262640625 0.91030796875
vt 0.51269015625 0.28125187500000004
vt 0.51241984375 0.28645656249999996
vt 0.47618546875 0.294901875
vt 0.47557140625 0.2897253125
vt 0.65756109375 0.6426734375
vt 0.65816421875 0.6478515625
vt 0.62102828125 0.65625
vt 0.62130953125 0.6510453125
vt 0.30368359375 0.7743642187499999
vt 0.30457125 0.7795023437499999
vt 0.2644346875 0.78125
vt 0.2656553125 0.77619453125
vt 0.61311609375 0.609725625
vt 0.61446859375 0.60469140625
vt 0.6535059375 0.6209275000000001
vt 0.65027171875 0.625
vt 0.69923375 0.83910609375
vt 0.69982453125 0.83392546875
vt 0.7429578125 0.83521421875
vt 0.7414984375 0.8402190625
vt 0.67062078125 0.877643125
vt 0.67032390625 0.87243875
vt 0.710535 0.859375
vt 0.7117078125 0.86445484375
vt 0.13518921875 0.9972990625
vt 0.13396578125 0.9922303125
vt 0.16889703125 0.9723865625
vt 0.17202046875 0.97654125
vt 0.3626228125 0.9102928125
vt 0.36380234375 0.9153709375
vt 0.3280509375 0.928465
vt 0.324965 0.92428171875
vt 0.47557125 0.28972453125
vt 0.47618546875 0.294901875
vt 0.43898078125 0.295170625
vt 0.4375 0.29017187499999997
vt 0.621309375 0.6510456250000001
vt 0.62102828125 0.65625
vt 0.58501296875 0.6438978125
vt 0.58617046875 0.638815625
vt 0.265658125 0.7761828125
vt 0.2644346875 0.78125
vt 0.2295034375 0.7614046875
vt 0.232626875 0.75725
vt 0.094416875 0.94990546875
vt 0.0903159375 0.953125
vt 0.0742684375 0.91400890625
vt 0.0792975 0.91268640625
vt 0.57804078125 0.5276059375
vt 0.5765875 0.5225996875000001
vt 0.61972203125 0.52135078125
vt 0.62030625 0.52653125
vt 0.26934921875 0.75
vt 0.268895625 0.734375
vt 0.31117484375 0.734375
vt 0.3125 0.74984875
vt 0.17202984375 0.97655375
vt 0.16889703125 0.9723865625
vt 0.19768453125 0.94436359375
vt 0.20220078125 0.94693875
vt 0.324955625 0.9242690625
vt 0.3280509375 0.928465
vt 0.30495890625 0.95873703125
vt 0.30047 0.9561165625
vt 0.71875 0.3213265625
vt 0.717275625 0.32632531249999996
vt 0.68007078125 0.3261046875
vt 0.6806784375 0.32092734375
vt 0.203125 0.18012234375000002
vt 0.21875 0.18067624999999998
vt 0.21875 0.21875
vt 0.20329421875 0.21732765624999995
vt 0.23263671875 0.757236875
vt 0.2295034375 0.7614046875
vt 0.200723125 0.73337453125
vt 0.20524109375 0.73079859375
vt 0.07930984375 0.912683125
vt 0.0742684375 0.91400890625
vt 0.0689775 0.87206203125
vt 0.0741184375 0.87284734375
vt 0.62030640625 0.5265320312499999
vt 0.61972203125 0.52135078125
vt 0.66204859375 0.5129476562499999
vt 0.66174703125 0.51815234375
vt 0.59375 0.41483078124999995
vt 0.59520484375 0.40982515625000004
vt 0.63747078125 0.4109121875
vt 0.63688328125 0.41609234375000004
vt 0.20221421875 0.94694625
vt 0.19768453125 0.94436359375
vt 0.2071715625 0.90532578125
vt 0.2123378125 0.90589828125
vt 0.44633234375 0.7263934375000001
vt 0.441226875 0.72533796875
vt 0.4443090625 0.68738890625
vt 0.44940015625 0.68633859375
vt 0.68067859375 0.32092656249999996
vt 0.68007078125 0.3261046875
vt 0.64382546875 0.31770624999999997
vt 0.64354890625 0.3125
vt 0.75037921875 0.736239375
vt 0.7518490625 0.7412396875
vt 0.71377625 0.7416015625
vt 0.713173125 0.7364242187500001
vt 0.2052515625 0.7307925
vt 0.200723125 0.73337453125
vt 0.19123453125 0.69433609375
vt 0.196400625 0.693763125
vt 0.0741315625 0.872849375
vt 0.0689775 0.87206203125
vt 0.08651875 0.83359265625
vt 0.09092453125 0.8363546875
vt 0.66174703125 0.51815203125
vt 0.66204859375 0.5129476562499999
vt 0.703125 0.52617171875
vt 0.70194625 0.53125
vt 0.63688328125 0.416091875
vt 0.63747078125 0.4109121875
vt 0.67890671875 0.41931375000000004
vt 0.67920359375 0.42451843749999996
vt 0.212353125 0.9059
vt 0.2071715625 0.90532578125
vt 0.20649171875 0.865156875
vt 0.21146203125 0.86363234375
vt 0.449415625 0.6863354687500001
vt 0.4443090625 0.68738890625
vt 0.42649046875 0.65374171875
vt 0.43075 0.6507629687500001
vt 0.64354890625 0.31250187500000004
vt 0.64382546875 0.31770624999999997
vt 0.6086753125 0.32990125000000003
vt 0.6075221875 0.3248175
vt 0.713173125 0.7364234375
vt 0.71377625 0.7416015625
vt 0.6766403125 0.75
vt 0.6769215625 0.7447953125
vt 0.196416875 0.6937614062499999
vt 0.19123453125 0.69433609375
vt 0.191921875 0.65416734375
vt 0.1968940625 0.65569203125
vt 0.0909353125 0.83636140625
vt 0.08651875 0.83359265625
vt 0.11348484375 0.80102953125
vt 0.1164303125 0.805315625
vt 0.7864459375 0.359375
vt 0.78125 0.35893921875
vt 0.78125 0.31578656250000003
vt 0.78629640625 0.3170959375
vt 0.67920359375 0.42451812499999997
vt 0.67890671875 0.41931375000000004
vt 0.7191178125 0.40625
vt 0.72029046875 0.41132984375000003
vt 0.211476875 0.8636278125
vt 0.20649171875 0.865156875
vt 0.18456359375 0.831495
vt 0.1885209375 0.828125
vt 0.4307628125 0.6507540625
vt 0.42649046875 0.65374171875
vt 0.40101171875 0.625449375
vt 0.40374296875 0.62102625
vt 0.8193234375 0.671875
vt 0.81990015625 0.6770567187500001
vt 0.7826946875 0.6770567187500001
vt 0.78125 0.6720471875
vt 0.6769215625 0.7447956250000001
vt 0.6766403125 0.75
vt 0.640625 0.7376478125
vt 0.6417825 0.732565625
vt 0.196905625 0.6556954687500001
vt 0.191921875 0.65416734375
vt 0.2138471875 0.62050265625
vt 0.217805 0.62387203125
vt 0.1164378125 0.8053265625
vt 0.11348484375 0.80102953125
vt 0.15353984375 0.78749484375
vt 0.15454078125 0.79259765625
vt 0.55537203125 0.5744809375
vt 0.55391875 0.5694746875000001
vt 0.59705328125 0.56822578125
vt 0.5976375 0.57340625
vt 0.6007909375 0.36445531249999996
vt 0.60195890625 0.359375
vt 0.6421825 0.37239765625
vt 0.6418903125 0.37760265625
vt 0.39632765625 0.75765578125
vt 0.39913859375 0.75326515625
vt 0.43544953125 0.77045578125
vt 0.43461359375 0.77558703125
vt 0.40375125 0.62101296875
vt 0.40101171875 0.625449375
vt 0.364313125 0.61530796875
vt 0.36507125 0.610165625
vt 0.38373890625 0.3369515625
vt 0.38226453125 0.34195031249999996
vt 0.3450596875 0.3417296875
vt 0.34566734375 0.33655234375
vt 0.3825871875 0.29510749999999997
vt 0.38373875 0.30019171874999995
vt 0.347709375 0.3125
vt 0.347434375 0.307295
vt 0.40187953125 0.57216875
vt 0.40469203125 0.576559375
vt 0.36838109375 0.59375
vt 0.36754359375 0.5886171875
vt 0.15454328125 0.79261015625
vt 0.15353984375 0.78749484375
vt 0.1957378125 0.7848745312500001
vt 0.194628125 0.7899553125000001
vt 0.59763765625 0.5734070312499999
vt 0.59705328125 0.56822578125
vt 0.63937984375 0.5598226562499999
vt 0.63907828125 0.56502734375
vt 0.6418903125 0.37760234375
vt 0.6421825 0.37239765625
vt 0.683610625 0.36395390625
vt 0.6842028125 0.36913359375
vt 0.43461109375 0.7756021875
vt 0.43544953125 0.77045578125
vt 0.47534296875 0.7657146875
vt 0.47661046875 0.770755625
vt 0.3650734375 0.6101503125000001
vt 0.364313125 0.61530796875
vt 0.3262496875 0.6144125
vt 0.3249084375 0.6093901562499999
vt 0.3456675 0.33655156249999996
vt 0.3450596875 0.3417296875
vt 0.308814375 0.33333124999999997
vt 0.3085378125 0.328125
vt 0.347434375 0.3072953125
vt 0.347709375 0.3125
vt 0.3105828125 0.30405625000000003
vt 0.3111921875 0.29887968750000005
vt 0.3675415625 0.5886053124999999
vt 0.36838109375 0.59375
vt 0.32848546875 0.5890203125
vt 0.32975125 0.58397890625
vt 0.536739375 0.62098359375
vt 0.5339940625 0.61655234375
vt 0.5725471875 0.59919765625
vt 0.5733034375 0.6043429687499999
vt 0.61758984375 0.84375
vt 0.6164171875 0.83866953125
vt 0.65750578125 0.82548328125
vt 0.65780109375 0.8306884375
vt 0.5851671875 0.8679557812500001
vt 0.5866221875 0.8629501562499999
vt 0.62888796875 0.8640371875
vt 0.62830046875 0.86921734375
vt 0.052586875 0.98299453125
vt 0.05543984375 0.97863
vt 0.0938296875 0.99047
vt 0.09294453125 0.995591875
vt 0.43861375 0.92404515625
vt 0.4357309375 0.92838890625
vt 0.401666875 0.91138109375
vt 0.4025903125 0.90626546875
vt 0.54873265625 0.29352015625000005
vt 0.54758578125 0.29860609375
vt 0.51241984375 0.28645656249999996
vt 0.51269015625 0.28125
vt 0.69476703125 0.642489375
vt 0.69623703125 0.6474896875
vt 0.65816421875 0.6478515625
vt 0.65756109375 0.6426742187500001
vt 0.3401115625 0.7633021875
vt 0.342963125 0.7676659375
vt 0.30457125 0.7795023437499999
vt 0.30368640625 0.7743803125
vt 0.26969875 0.91547515625
vt 0.27471171875 0.9169084375000001
vt 0.2524425 0.95284828125
vt 0.24842171875 0.94955078125
vt 0.64765953125 0.47127703125
vt 0.64796109375 0.46607265625000005
vt 0.6890375 0.47929671875
vt 0.68785875 0.484375
vt 0.7504534375 0.578125
vt 0.75 0.5625
vt 0.7922790625 0.5625
vt 0.793604375 0.57797375
vt 0.02486703125 0.95106796875
vt 0.0292165625 0.9481940625
vt 0.05543984375 0.97863
vt 0.0525953125 0.9829815625
vt 0.4689921875 0.9503340625
vt 0.4646253125 0.95318296875
vt 0.4357309375 0.92838890625
vt 0.43860515625 0.924058125
vt 0.70790171875 0.5937518749999999
vt 0.708178125 0.5989562500000001
vt 0.67302796875 0.61115125
vt 0.671875 0.6060675
vt 0.78125 0.71137234375
vt 0.796875 0.71192625
vt 0.796875 0.75
vt 0.78141921875 0.74857765625
vt 0.364848125 0.73436515625
vt 0.36919796875 0.73724015625
vt 0.342963125 0.7676659375
vt 0.340118125 0.76331234375
vt 0.26960390625 0.87530625
vt 0.2747725 0.87462921875
vt 0.27471171875 0.9169084375000001
vt 0.26971140625 0.91547875
vt 0.60621890625 0.47965703125000003
vt 0.60563453125 0.47447578125
vt 0.64796109375 0.46607265625000005
vt 0.64765953125 0.47127734374999997
vt 0.677663125 0.6901431250000001
vt 0.67736625 0.6849387499999999
vt 0.7175771875 0.671875
vt 0.71875 0.6769548437499999
vt 0.006396875 0.91303578125
vt 0.01153046875 0.91212234375
vt 0.0292165625 0.9481940625
vt 0.02488 0.95105953125
vt 0.48078 0.9887425
vt 0.4756425 0.989628125
vt 0.4646253125 0.95318296875
vt 0.4689790625 0.95034265625
vt 0.74503125 0.6021765625
vt 0.7444234375 0.6073546875
vt 0.708178125 0.5989562500000001
vt 0.7079015625 0.59375
vt 0.67507234375 0.791670625
vt 0.67479109375 0.796875
vt 0.6387759375 0.7845228125
vt 0.6399334375 0.779440625
vt 0.3817584375 0.7002565625
vt 0.38689046875 0.70117078125
vt 0.36919796875 0.73724015625
vt 0.36486171875 0.73437421875
vt 0.259329375 0.83647109375
vt 0.263805 0.8337965625
vt 0.2747725 0.87462921875
vt 0.26961640625 0.8753046875
vt 0.56395328125 0.48073093749999996
vt 0.5625 0.47572468749999997
vt 0.60563453125 0.47447578125
vt 0.60621875 0.47965625
vt 0.6353428125 0.681716875
vt 0.6359303125 0.6765371875
vt 0.67736625 0.6849387499999999
vt 0.677663125 0.6901434375
vt 0.0106509375 0.87096921875
vt 0.01572484375 0.8721671875
vt 0.01153046875 0.91212234375
vt 0.00641203125 0.913033125
vt 0.26231515625 0.6587190625
vt 0.2669015625 0.6611990624999999
vt 0.25888671875 0.69842
vt 0.253709375 0.69795875
vt 0.7831028125 0.6025765625
vt 0.7816284375 0.6075753125000001
vt 0.7444234375 0.6073546875
vt 0.74503125 0.60217734375
vt 0.71132390625 0.7832984375
vt 0.71192703125 0.7884765625
vt 0.67479109375 0.796875
vt 0.67507234375 0.7916703125
vt 0.377639375 0.6624110937500001
vt 0.38271421875 0.6612137499999999
vt 0.38689046875 0.70117078125
vt 0.3817703125 0.70025859375
vt 0.2299740625 0.80905203125
vt 0.2330175 0.80481984375
vt 0.263805 0.8337965625
vt 0.25934078125 0.836464375
vt 0.65625 0.21875
vt 0.6510540625 0.21831421875
vt 0.6510540625 0.17516156250000003
vt 0.65610046875 0.17647093749999998
vt 0.59220953125 0.6804557812500001
vt 0.593664375 0.6754501562499999
vt 0.6359303125 0.6765371875
vt 0.63534265625 0.6817173437499999
vt 0.5159196875 0.75518921875
vt 0.51274625 0.75105171875
vt 0.53663265625 0.71875
vt 0.54117234375 0.7212815625
vt 0.29045421875 0.6300425000000001
vt 0.2936825 0.6341359375
vt 0.2669015625 0.6611990624999999
vt 0.26232890625 0.6587265625000001
vt 0.82754828125 0.921875
vt 0.828125 0.92705671875
vt 0.790919375 0.92705671875
vt 0.78947484375 0.9220471875
vt 0.74853 0.783114375
vt 0.75 0.7881146875
vt 0.71192703125 0.7884765625
vt 0.7113240625 0.78329921875
vt 0.29425234375 0.5702225000000001
vt 0.29108125 0.5743598437499999
vt 0.26718296875 0.54206578125
vt 0.27172171875 0.5395323437499999
vt 0.1946253125 0.78996828125
vt 0.1957378125 0.7848745312500001
vt 0.2330175 0.80481984375
vt 0.2299815625 0.80904171875
vt 0.63907828125 0.56502703125
vt 0.63937984375 0.5598226562499999
vt 0.68045625 0.57304671875
vt 0.6792775 0.578125
vt 0.6842028125 0.36913312499999995
vt 0.683610625 0.36395390625
vt 0.7258746875 0.3628240625
vt 0.7273340625 0.36782875000000004
vt 0.47661421875 0.77077078125
vt 0.47534296875 0.7657146875
vt 0.51274625 0.75105171875
vt 0.5159103125 0.75517703125
vt 0.324904375 0.609375
vt 0.3262496875 0.6144125
vt 0.2936825 0.6341359375
vt 0.29046375 0.6300546874999999
vt 0.3085378125 0.32812687500000004
vt 0.308814375 0.33333124999999997
vt 0.27366421875 0.34552625000000003
vt 0.27251109375 0.3404425
vt 0.3111921875 0.29887890625
vt 0.3105828125 0.30405625000000003
vt 0.27251125 0.30364812500000005
vt 0.27398734375 0.29864921874999995
vt 0.32975515625 0.58396296875
vt 0.32848546875 0.5890203125
vt 0.29108125 0.5743598437499999
vt 0.294245 0.5702321875
vn 0.172996486299265 0.9200921921718188 -0.35142932949963834
vn 0.06977997058698177 0.3790587562226023 -0.92273789075547
vn -0.0692030392766492 -0.36806051657521527 -0.9272229481053953
vn -0.17659142352726276 -0.8907624585562188 -0.4187573421010018
vn -0.19250474439415918 -0.9182091298112602 0.3461703588076074
vn -0.08153800018983365 -0.3796539749638958 0.9215283033196303
vn 0.07699026235401331 0.36722815337617265 0.9269390394576045
vn 0.17659098898730946 0.8907602666497862 0.41876218784231956
vn -0.33249869147380523 0.8929386517530683 -0.3034883595356169
vn -0.4633968070867728 0.3682073123943315 -0.8060314970775816
vn -0.3360725937048842 -0.3791365365699824 -0.8621546835679723
vn 0.012784521342000206 -0.9192474246981198 -0.39347265241682383
vn 0.34996552755361693 -0.8882652543658772 0.29750456704131817
vn 0.47317200335947235 -0.36702579706920146 0.8008747214905095
vn 0.3282322718724029 0.37955710751128907 0.8649855362022796
vn -0.012784334866688538 0.9192472882354895 0.39347297728524533
vn -0.16690249407534796 0.9200893035095324 -0.35437160021476366
vn -0.6779124515543772 0.3790715085132641 -0.6298726057394565
vn -0.7680769136475377 -0.3680714497778058 -0.5240050215218718
vn -0.43750325038643356 -0.8907608738875745 -0.12302833597326349
vn 0.1506252248272524 -0.9182082339708034 0.3663409350781837
vn 0.6696352054228341 -0.3796668640367933 0.6383116511632746
vn 0.772710244458537 0.3672389864733644 0.5177397076937834
vn 0.4375007997220631 0.8907624009467754 0.12302599441618609
vn -0.4445866087659369 0.8929385180162366 0.07073577842203305
vn -0.9191001069712761 0.3682180303888706 -0.14025147222731638
vn -0.8835925863804771 -0.379147028784141 -0.2747938715794391
vn -0.2996636102348094 -0.9192456721858104 -0.2553215910742721
vn 0.45081033629395834 -0.888259460085289 -0.08812021481770918
vn 0.9211627831070682 -0.36703672767041134 0.12939539234237446
vn 0.8809180764128297 0.37956746123645996 0.28268690280879377
vn 0.29965621564701383 0.9192483975549048 0.25532045749773047
vn -0.38112172279078504 0.9200889711233666 -0.09045726965882293
vn -0.9151218426413222 0.3790816158535951 0.13729217618851614
vn -0.8885674000864624 -0.36808165877385446 0.2737953030602832
vn -0.368972200124624 -0.8907580746116385 0.26534801308726835
vn 0.38033028248936235 -0.9182080950606677 0.11064705322159134
vn 0.9165684503536519 -0.37965112649198407 -0.12556790182874333
vn 0.8865684601325604 0.36722485317023557 -0.28132236440119657
vn 0.3689621272219417 0.8907626544185747 -0.2653466452944801
vn -0.2218948933808706 0.8929368782405336 0.3916968059220583
vn -0.6827022505064899 0.36821748426000234 0.6311366899797609
vn -0.7657538391679636 -0.37914682293604185 0.5194889262121289
vn -0.3864544442363577 -0.9192462521790683 0.07509520879992818
vn 0.21217277592266062 -0.8882640196615237 -0.40739384449451926
vn 0.6754998991943445 -0.36703602965715026 -0.6395189122472814
vn 0.7702568918438804 0.3795672288776903 -0.5124773549427489
vn 0.3864528275616935 0.9192470537585119 -0.07509371628750011
vn -0.3083465702343924 0.9200903341572136 0.24157021673864096
vn -0.4632301059172286 0.37907254158246717 0.8010754503728859
vn -0.3399541297407599 -0.36807363161517936 0.8654207019605065
vn -0.022593297694963602 -0.8907570667571211 0.4539178239742483
vn 0.32363876080375387 -0.9182080593244158 -0.2283679318492439
vn 0.47330017705696037 -0.379667849874969 -0.7948831776866133
vn 0.3328122514610442 0.36724091876316095 -0.8685448249016399
vn 0.02258688704296126 0.8907627009467671 -0.45390708645683076
vn 0.16789131255311093 0.8929400192924737 0.4176968148252398
vn 0.06778282025189936 0.3682098361723677 0.9272685726501341
vn -0.07128582207737126 -0.37913792186782364 0.9225902491206491
vn -0.18223845041947656 -0.9192471916059237 0.3489609547117416
vn -0.1862257175481892 -0.8882594275613528 -0.41989900151350684
vn -0.07882644200214822 -0.36702852619272236 -0.9268637726236149
vn 0.07957530234068791 0.3795582771046132 -0.9217392719954847
vn 0.18223883605860194 0.9192491368467999 -0.3489556290395951
vn 0.029972955243671728 0.8929351131720594 -0.4491864931388326
vn 0.34125179650595566 0.36822276269378423 -0.86484634959952
vn 0.46452471925135314 -0.379151828236846 -0.8002878709246498
vn 0.31560206311211575 -0.9192454304902528 -0.2353363046411798
vn -0.014400542979175488 -0.8882623143340941 0.4591107549336479
vn -0.33112716529364156 -0.36704150781069617 0.8692728754244251
vn -0.4716211815690588 0.3795720237418592 0.7959262151028287
vn -0.3155995278406793 0.9192479425141069 0.23532989230083348
vn 0.38262209983934425 0.920091207370205 -0.08385999543625865
vn 0.7649305321676406 0.3790676614552881 -0.5207580906683535
vn 0.6817806474168904 -0.3680680806261075 -0.6322191367176567
vn 0.21729978155318352 -0.890759302539561 -0.39915995525124204
vn -0.3906756017927197 -0.9182070634623545 0.0653327082841055
vn -0.7713155147097097 -0.379662925228872 0.5108115503537012
vn -0.6767040953292104 0.36723575797956665 0.6381296619229107
vn -0.21729060567883296 0.8907642570105604 0.399153894026039
vn 0.3698742734425644 0.8929358242946107 -0.25662937387726925
vn 0.888927516369802 0.3682308339505605 -0.2724223257530304
vn 0.9153132331329429 -0.3791608977737088 -0.13578917059601672
vn 0.3807717492700866 -0.9192440789082968 0.10001599047070209
vn -0.3679264116899792 -0.8882621898765363 0.27499170463247896
vn -0.8860860054771145 -0.3670250159912986 0.2830975600993379
vn -0.916337590220511 0.3795555020903638 0.12752663087292257
vn -0.3807610801118495 0.919248143362137 -0.1000192521333856
vn 0.30412688592938775 0.9200907265779004 0.24686006586777984
vn 0.8840711049538456 0.3790679410177721 0.27336016073713754
vn 0.9193720281907127 -0.368068496572905 0.13885480046097337
vn 0.4475561737223331 -0.8907611800614945 -0.07898095630263603
vn -0.29465697040109246 -0.9182084857255972 -0.26470822906656216
vn -0.8802749948611517 -0.37966326376277576 -0.28455533657128323
vn -0.9208278653904667 0.36723619155212267 -0.1312006933469837
vn -0.447558243411185 0.8907601997201815 0.07898028455986342
vn 0.4312497105505313 0.8929384055396131 0.12916923419474322
vn 0.7672272388231117 0.36822076041034335 0.5251436333144414
vn 0.6768576161411967 -0.3791507259019097 0.6309583936518409
vn 0.15921058447887812 -0.9192442938049818 0.3600582148720879
vn -0.44439561876835404 -0.888262021105359 -0.1162029082308805
vn -0.7737960801141398 -0.3670393666211838 -0.5162574258548853
vn -0.6710244826643442 0.37957110758348295 -0.636908092233799
vn -0.15920188288392603 0.919248137155952 -0.3600522501270126
vn -0.00338518619822632 0.9200925401137756 0.39168642833443135
vn 0.33749153734297066 0.3790574588190246 0.8616350185174358
vn 0.46465849108674645 -0.36805775357834447 0.805373190944329
vn 0.3407970234618426 -0.8907611396889644 0.3006692216033518
vn 0.023240266129499327 -0.9182072634917324 -0.39541789451320314
vn -0.3263744868559171 -0.3796527170340166 -0.8656462954222274
vn -0.4715481792582426 0.3672257037667051 -0.8017403551844478
vn -0.3407937215162958 0.8907653696914168 -0.30066043227133643
usemtl m_41c55970-49ed-0baf-8e3d-d95fe0cfa287
f 89/121/37 90/122/37 34/123/37 33/124/37
f 90/125/38 91/126/38 35/127/38 34/128/38
f 91/129/39 92/130/39 36/131/39 35/132/39
f 92/133/40 93/134/40 37/135/40 36/136/40
f 93/137/41 94/138/41 38/139/41 37/140/41
f 94/141/42 95/142/42 39/143/42 38/144/42
f 95/145/43 96/146/43 40/147/43 39/148/43
f 96/149/44 89/150/44 33/151/44 40/152/44
f 33/153/45 34/154/45 42/155/45 41/156/45
f 34/157/46 35/158/46 43/159/46 42/160/46
f 35/161/47 36/162/47 44/163/47 43/164/47
f 36/165/48 37/166/48 45/167/48 44/168/48
f 37/169/49 38/170/49 46/171/49 45/172/49
f 38/173/50 39/174/50 47/175/50 46/176/50
f 39/177/51 40/178/51 48/179/51 47/180/51
f 40/181/52 33/182/52 41/183/52 48/184/52
f 41/185/53 42/186/53 50/187/53 49/188/53
f 42/189/54 43/190/54 51/191/54 50/192/54
f 43/193/55 44/194/55 52/195/55 51/196/55
f 44/197/56 45/198/56 53/199/56 52/200/56
f 45/201/57 46/202/57 54/203/57 53/204/57
f 46/205/58 47/206/58 55/207/58 54/208/58
f 47/209/59 48/210/59 56/211/59 55/212/59
f 48/213/60 41/214/60 49/215/60 56/216/60
f 49/217/61 50/218/61 58/219/61 57/220/61
f 50/221/62 51/222/62 59/223/62 58/224/62
f 51/225/63 52/226/63 60/227/63 59/228/63
f 52/229/64 53/230/64 61/231/64 60/232/64
f 53/233/65 54/234/65 62/235/65 61/236/65
f 54/237/66 55/238/66 63/239/66 62/240/66
f 55/241/67 56/242/67 64/243/67 63/244/67
f 56/245/68 49/246/68 57/247/68 64/248/68
f 57/249/69 58/250/69 66/251/69 65/252/69
f 58/253/70 59/254/70 67/255/70 66/256/70
f 59/257/71 60/258/71 68/259/71 67/260/71
f 60/261/72 61/262/72 69/263/72 68/264/72
f 61/265/73 62/266/73 70/267/73 69/268/73
f 62/269/74 63/270/74 71/271/74 70/272/74
f 63/273/75 64/274/75 72/275/75 71/276/75
f 64/277/76 57/278/76 65/279/76 72/280/76
f 65/281/77 66/282/77 74/283/77 73/284/77
f 66/285/78 67/286/78 75/287/78 74/288/78
f 67/289/79 68/290/79 76/291/79 75/292/79
f 68/293/80 69/294/80 77/295/80 76/296/80
f 69/297/81 70/298/81 78/299/81 77/300/81
f 70/301/82 71/302/82 79/303/82 78/304/82
f 71/305/83 72/306/83 80/307/83 79/308/83
f 72/309/84 65/310/84 73/311/84 80/312/84
f 73/313/85 74/314/85 82/315/85 81/316/85
f 74/317/86 75/318/86 83/319/86 82/320/86
f 75/321/87 76/322/87 84/323/87 83/324/87
f 76/325/88 77/326/88 85/327/88 84/328/88
f 77/329/89 78/330/89 86/331/89 85/332/89
f 78/333/90 79/334/90 87/335/90 86/336/90
f 79/337/91 80/338/91 88/339/91 87/340/91
f 80/341/92 73/342/92 81/343/92 88/344/92
f 81/345/93 82/346/93 138/347/93 137/348/93
f 82/349/94 83/350/94 139/351/94 138/352/94
f 83/353/95 84/354/95 140/355/95 139/356/95
f 84/357/96 85/358/96 141/359/96 140/360/96
f 85/361/97 86/362/97 142/363/97 141/364/97
f 86/365/98 87/366/98 143/367/98 142/368/98
f 87/369/99 88/370/99 144/371/99 143/372/99
f 88/373/100 81/374/100 137/375/100 144/376/100
f 97/377/101 98/378/101 90/379/101 89/380/101
f 98/381/102 99/382/102 91/383/102 90/384/102
f 99/385/103 100/386/103 92/387/103 91/388/103
f 100/389/104 101/390/104 93/391/104 92/392/104
f 101/393/105 102/394/105 94/395/105 93/396/105
f 102/397/106 103/398/106 95/399/106 94/400/106
f 103/401/107 104/402/107 96/403/107 95/404/107
f 104/405/108 97/406/108 89/407/108 96/408/108
f 105/409/109 106/410/109 98/411/109 97/412/109
f 106/413/110 107/414/110 99/415/110 98/416/110
f 107/417/111 108/418/111 100/419/111 99/420/111
f 108/421/112 109/422/112 101/423/112 100/424/112
f 109/425/113 110/426/113 102/427/113 101/428/113
f 110/429/114 111/430/114 103/431/114 102/432/114
f 111/433/115 112/434/115 104/435/115 103/436/115
f 112/437/116 105/438/116 97/439/116 104/440/116
f 113/441/117 114/442/117 106/443/117 105/444/117
f 114/445/118 115/446/118 107/447/118 106/448/118
f 115/449/119 116/450/119 108/451/119 107/452/119
f 116/453/120 117/454/120 109/455/120 108/456/120
f 117/457/121 118/458/121 110/459/121 109/460/121
f 118/461/122 119/462/122 111/463/122 110/464/122
f 119/465/123 120/466/123 112/467/123 111/468/123
f 120/469/124 113/470/124 105/471/124 112/472/124
f 121/473/125 122/474/125 114/475/125 113/476/125
f 122/477/126 123/478/126 115/479/126 114/480/126
f 123/481/127 124/482/127 116/483/127 115/484/127
f 124/485/128 125/486/128 117/487/128 116/488/128
f 125/489/129 126/490/129 118/491/129 117/492/129
f 126/493/130 127/494/130 119/495/130 118/496/130
f 127/497/131 128/498/131 120/499/131 119/500/131
f 128/501/132 121/502/132 113/503/132 120/504/132
f 129/505/133 130/506/133 122/507/133 121/508/133
f 130/509/134 131/510/134 123/511/134 122/512/134
f 131/513/135 132/514/135 124/515/135 123/516/135
f 132/517/136 133/518/136 125/519/136 124/520/136
f 133/521/137 134/522/137 126/523/137 125/524/137
f 134/525/138 135/526/138 127/527/138 126/528/138
f 135/529/139 136/530/139 128/531/139 127/532/139
f 136/533/140 129/534/140 121/535/140 128/536/140
f 137/537/141 138/538/141 130/539/141 129/540/141
f 138/541/142 139/542/142 131/543/142 130/544/142
f 139/545/143 140/546/143 132/547/143 131/548/143
f 140/549/144 141/550/144 133/551/144 132/552/144
f 141/553/145 142/554/145 134/555/145 133/556/145
f 142/557/146 143/558/146 135/559/146 134/560/146
f 143/561/147 144/562/147 136/563/147 135/564/147
f 144/565/148 137/566/148 129/567/148 136/568/148
o bush1
v 0.04142125 0.03125 0.2875
v 0.04142125 0.13125 0.2875
v 0.1 0.03125 0.22892125
v 0.1 0.13125 0.22892125
v 0.1 0.03125 0.14607875
v 0.1 0.13125 0.14607875
v 0.04142125 0.03125 0.0875
v 0.04142125 0.13125 0.0875
v -0.04142125 0.03125 0.0875
v -0.04142125 0.13125 0.0875
v -0.1 0.03125 0.14607875
v -0.1 0.13125 0.14607875
v -0.1 0.03125 0.22892125
v -0.1 0.13125 0.22892125
v -0.04142125 0.03125 0.2875
v -0.04142125 0.13125 0.2875
v -0.075 0.16875 0.15643375
v -0.075 0.16875 0.21856625
v 0 0.18125 0.1875
v -0.03106625 0.16875 0.1125
v 0.03106625 0.16875 0.1125
v 0.075 0.16875 0.15643375
v 0.075 0.16875 0.21856625
v 0.03106625 0.16875 0.2625
v -0.03106625 0.16875 0.2625
v 0.03106625 0.006249999999999999 0.2625
v -0.03106625 0.006249999999999999 0.2625
v 0 0.006249999999999999 0.1875
v -0.075 0.006249999999999999 0.21856625
v -0.075 0.006249999999999999 0.15643375
v -0.03106625 0.006249999999999999 0.1125
v 0.03106625 0.006249999999999999 0.1125
v 0.075 0.006249999999999999 0.15643375
v 0.075 0.006249999999999999 0.21856625
vt 0.1828125 0.2765171875
vt 0.1718296875 0.2875
vt 0.1640625 0.26875000000000004
vt 0.744915625 0.24498281249999998
vt 0.765625 0.24498281249999998
vt 0.765625 0.2699828125
vt 0.744915625 0.2699828125
vt 0.15557078125 0.35877828125
vt 0.14490734375 0.34748187500000005
vt 0.1640625 0.34008125
vt 0.1828125 0.2609828125
vt 0.1828125 0.2765171875
vt 0.1640625 0.26875000000000004
vt 0.7396453125 0.6824828125
vt 0.7603546875 0.6824828125
vt 0.7603546875 0.7074828125
vt 0.7396453125 0.7074828125
vt 0.14490734375 0.34748187500000005
vt 0.14520578125 0.33195031249999996
vt 0.1640625 0.34008125
vt 0.1718296875 0.25
vt 0.1828125 0.2609828125
vt 0.1640625 0.26875000000000004
vt 0.5 0.22935781249999998
vt 0.520709375 0.22935781249999998
vt 0.520709375 0.2543578125
vt 0.5 0.2543578125
vt 0.14520578125 0.33195031249999996
vt 0.1562953125 0.321071875
vt 0.1640625 0.34008125
vt 0.1562953125 0.25
vt 0.1718296875 0.25
vt 0.1640625 0.26875000000000004
vt 0.4583953125 0.22935781249999998
vt 0.4791046875 0.22935781249999998
vt 0.4791046875 0.2543578125
vt 0.4583953125 0.2543578125
vt 0.1562953125 0.321071875
vt 0.1718296875 0.321071875
vt 0.1640625 0.34008125
vt 0.1453125 0.2609828125
vt 0.1562953125 0.25
vt 0.1640625 0.26875000000000004
vt 0.744915625 0.3074828125
vt 0.765625 0.3074828125
vt 0.765625 0.3324828125
vt 0.744915625 0.3324828125
vt 0.1718296875 0.321071875
vt 0.18291921875 0.33195031249999996
vt 0.1640625 0.34008125
vt 0.1453125 0.2765171875
vt 0.1453125 0.2609828125
vt 0.1640625 0.26875000000000004
vt 0.3646453125 0.22935781249999998
vt 0.3853546875 0.22935781249999998
vt 0.3853546875 0.2543578125
vt 0.3646453125 0.2543578125
vt 0.18291921875 0.33195031249999996
vt 0.18321765625 0.34748187500000005
vt 0.1640625 0.34008125
vt 0.1562953125 0.2875
vt 0.1453125 0.2765171875
vt 0.1640625 0.26875000000000004
vt 0.75 0.3856078125
vt 0.770709375 0.3856078125
vt 0.770709375 0.4106078125
vt 0.75 0.4106078125
vt 0.18321765625 0.34748187500000005
vt 0.17255421875 0.35877828125
vt 0.1640625 0.34008125
vt 0.1718296875 0.2875
vt 0.1562953125 0.2875
vt 0.1640625 0.26875000000000004
vt 0.4115203125 0.22935781249999998
vt 0.4322296875 0.22935781249999998
vt 0.4322296875 0.2543578125
vt 0.4115203125 0.2543578125
vt 0.17109375 0.359375
vt 0.15557078125 0.35877828125
vt 0.1640625 0.34008125
vt 0.3827671875 0.265625
vt 0.3672328125 0.265625
vt 0.3646453125 0.2543578125
vt 0.3853546875 0.2543578125
vt 0.7630375 0.34375
vt 0.747503125 0.34375
vt 0.744915625 0.3324828125
vt 0.765625 0.3324828125
vt 0.4765171875 0.265625
vt 0.4609828125 0.265625
vt 0.4583953125 0.2543578125
vt 0.4791046875 0.2543578125
vt 0.518121875 0.265625
vt 0.5025875 0.265625
vt 0.5 0.2543578125
vt 0.520709375 0.2543578125
vt 0.7577671875 0.71875
vt 0.7422328125 0.71875
vt 0.7396453125 0.7074828125
vt 0.7603546875 0.7074828125
vt 0.7630375 0.28125
vt 0.747503125 0.28125
vt 0.744915625 0.2699828125
vt 0.765625 0.2699828125
vt 0.4296421875 0.265625
vt 0.4141078125 0.265625
vt 0.4115203125 0.2543578125
vt 0.4322296875 0.2543578125
vt 0.768121875 0.421875
vt 0.7525875 0.421875
vt 0.75 0.4106078125
vt 0.770709375 0.4106078125
vt 0.7422328125 0.89900203125
vt 0.7577671875 0.89900203125
vt 0.7603546875 0.90784109375
vt 0.7396453125 0.90784109375
vt 0.729150625 0.890625
vt 0.7422328125 0.89900203125
vt 0.7396453125 0.90784109375
vt 0.72220515625 0.8966734375000001
vt 0.2734828125 0.375
vt 0.2890171875 0.375
vt 0.2916046875 0.390625
vt 0.2708953125 0.390625
vt 0.7421421875 0.44587703125
vt 0.755224375 0.4375
vt 0.76216984375 0.44354843749999995
vt 0.7447296875 0.45471609375
vt 0.7266078125 0.44587703125
vt 0.7421421875 0.44587703125
vt 0.7447296875 0.45471609375
vt 0.7240203125 0.45471609375
vt 0.713525625 0.4375
vt 0.7266078125 0.44587703125
vt 0.7240203125 0.45471609375
vt 0.70658015625 0.44354843749999995
vt 0.1328578125 0.9375
vt 0.1483921875 0.9375
vt 0.1509796875 0.953125
vt 0.1302703125 0.953125
vt 0.7577671875 0.89900203125
vt 0.770849375 0.890625
vt 0.77779484375 0.8966734375000001
vt 0.7603546875 0.90784109375
vn 0 -1 0
vn 0.7071067811865476 0 0.7071067811865476
vn 0.11624739046950554 0.9863939823508967 0.11624739046950554
vn 0 -1 0
vn 1 0 0
vn 0.16439898730535707 0.9863939238321439 0
vn 0 -1 0
vn 0.7071067811865476 0 -0.7071067811865476
vn 0.11624739046950554 0.9863939823508967 -0.11624739046950554
vn 0 -1 0
vn 0 0 -1
vn 0 0.9863939238321439 -0.16439898730535707
vn 0 -1 0
vn -0.7071067811865476 0 -0.7071067811865476
vn -0.11624739046950554 0.9863939823508967 -0.11624739046950554
vn 0 -1 0
vn -1 0 0
vn -0.16439898730535707 0.9863939238321439 0
vn 0 -1 0
vn -0.7071067811865476 0 0.7071067811865476
vn -0.11624739046950554 0.9863939823508967 0.11624739046950554
vn 0 -1 0
vn 0 0 1
vn 0 0.9863939238321439 0.16439898730535707
vn -0.8320502943378437 0.5547001962252291 0
vn -0.588350141502608 0.5546965134086588 -0.588350141502608
vn 0 0.5547001962252291 -0.8320502943378437
vn 0.588350141502608 0.5546965134086588 -0.588350141502608
vn 0.8320502943378437 0.5547001962252291 0
vn 0.588350141502608 0.5546965134086588 0.588350141502608
vn 0 0.5547001962252291 0.8320502943378437
vn -0.588350141502608 0.5546965134086588 0.588350141502608
vn 0 -0.7071067811865477 0.7071067811865475
vn -0.5000023975172442 -0.7071033905688867 0.5000023975172442
vn -0.7071067811865475 -0.7071067811865477 0
vn -0.5000023975172442 -0.7071033905688867 -0.5000023975172442
vn 0 -0.7071067811865477 -0.7071067811865475
vn 0.5000023975172442 -0.7071033905688867 -0.5000023975172442
vn 0.7071067811865475 -0.7071067811865477 0
vn 0.5000023975172442 -0.7071033905688867 0.5000023975172442
usemtl m_41c55970-49ed-0baf-8e3d-d95fe0cfa287
f 178/569/149 170/570/149 172/571/149
f 145/572/150 147/573/150 148/574/150 146/575/150
f 168/576/151 167/577/151 163/578/151
f 177/579/152 178/580/152 172/581/152
f 147/582/153 149/583/153 150/584/153 148/585/153
f 167/586/154 166/587/154 163/588/154
f 176/589/155 177/590/155 172/591/155
f 149/592/156 151/593/156 152/594/156 150/595/156
f 166/596/157 165/597/157 163/598/157
f 175/599/158 176/600/158 172/601/158
f 151/602/159 153/603/159 154/604/159 152/605/159
f 165/606/160 164/607/160 163/608/160
f 174/609/161 175/610/161 172/611/161
f 153/612/162 155/613/162 156/614/162 154/615/162
f 164/616/163 161/617/163 163/618/163
f 173/619/164 174/620/164 172/621/164
f 155/622/165 157/623/165 158/624/165 156/625/165
f 161/626/166 162/627/166 163/628/166
f 171/629/167 173/630/167 172/631/167
f 157/632/168 159/633/168 160/634/168 158/635/168
f 162/636/169 169/637/169 163/638/169
f 170/639/170 171/640/170 172/641/170
f 159/642/171 145/643/171 146/644/171 160/645/171
f 169/646/172 168/647/172 163/648/172
f 162/649/173 161/650/173 156/651/173 158/652/173
f 161/653/174 164/654/174 154/655/174 156/656/174
f 164/657/175 165/658/175 152/659/175 154/660/175
f 165/661/176 166/662/176 150/663/176 152/664/176
f 166/665/177 167/666/177 148/667/177 150/668/177
f 167/669/178 168/670/178 146/671/178 148/672/178
f 168/673/179 169/674/179 160/675/179 146/676/179
f 169/677/180 162/678/180 158/679/180 160/680/180
f 171/681/181 170/682/181 145/683/181 159/684/181
f 173/685/182 171/686/182 159/687/182 157/688/182
f 174/689/183 173/690/183 157/691/183 155/692/183
f 175/693/184 174/694/184 155/695/184 153/696/184
f 176/697/185 175/698/185 153/699/185 151/700/185
f 177/701/186 176/702/186 151/703/186 149/704/186
f 178/705/187 177/706/187 149/707/187 147/708/187
f 170/709/188 178/710/188 147/711/188 145/712/188
o bush2
v 0.13517125 0.03125 -0.071875
v 0.13517125 0.13125 -0.071875
v 0.19375 0.03125 -0.13045375
v 0.19375 0.13125 -0.13045375
v 0.19375 0.03125 -0.21329625
v 0.19375 0.13125 -0.21329625
v 0.13517125 0.03125 -0.271875
v 0.13517125 0.13125 -0.271875
v 0.05232875 0.03125 -0.271875
v 0.05232875 0.13125 -0.271875
v -0.0062500000000000056 0.03125 -0.21329625
v -0.0062500000000000056 0.13125 -0.21329625
v -0.0062500000000000056 0.03125 -0.13045375
v -0.0062500000000000056 0.13125 -0.13045375
v 0.05232875 0.03125 -0.071875
v 0.05232875 0.13125 -0.071875
v 0.018750000000000003 0.16875 -0.20294125
v 0.018750000000000003 0.16875 -0.14080875
v 0.09375 0.18125 -0.171875
v 0.06268375 0.16875 -0.246875
v 0.12481625 0.16875 -0.246875
v 0.16875 0.16875 -0.20294125
v 0.16875 0.16875 -0.14080875
v 0.12481625 0.16875 -0.096875
v 0.06268375 0.16875 -0.096875
v 0.12481625 0.006249999999999999 -0.096875
v 0.06268375 0.006249999999999999 -0.096875
v 0.09375 0.006249999999999999 -0.171875
v 0.018750000000000003 0.006249999999999999 -0.14080875
v 0.018750000000000003 0.006249999999999999 -0.20294125
v 0.06268375 0.006249999999999999 -0.246875
v 0.12481625 0.006249999999999999 -0.246875
v 0.16875 0.006249999999999999 -0.20294125
v 0.16875 0.006249999999999999 -0.14080875
vt 0.6203125 0.2765171875
vt 0.6093296875 0.2875
vt 0.6015625 0.26875000000000004
vt 0.557415625 0.19810781249999998
vt 0.578125 0.19810781249999998
vt 0.578125 0.2231078125
vt 0.557415625 0.2231078125
vt 0.01494578125 0.32752828125
vt 0.00428234375 0.31623187500000005
vt 0.0234375 0.30883125
vt 0.6203125 0.2609828125
vt 0.6203125 0.2765171875
vt 0.6015625 0.26875000000000004
vt 0.7708953125 0.9637328125
vt 0.7916046875 0.9637328125
vt 0.7916046875 0.9887328125
vt 0.7708953125 0.9887328125
vt 0.00428234375 0.31623187500000005
vt 0.00458078125 0.30070031249999996
vt 0.0234375 0.30883125
vt 0.6093296875 0.25
vt 0.6203125 0.2609828125
vt 0.6015625 0.26875000000000004
vt 0.265625 0.19810781249999998
vt 0.286334375 0.19810781249999998
vt 0.286334375 0.2231078125
vt 0.265625 0.2231078125
vt 0.00458078125 0.30070031249999996
vt 0.0156703125 0.289821875
vt 0.0234375 0.30883125
vt 0.5937953125 0.25
vt 0.6093296875 0.25
vt 0.6015625 0.26875000000000004
vt 0.7708953125 0.7762328125
vt 0.7916046875 0.7762328125
vt 0.7916046875 0.8012328125
vt 0.7708953125 0.8012328125
vt 0.0156703125 0.289821875
vt 0.0312046875 0.289821875
vt 0.0234375 0.30883125
vt 0.5828125 0.2609828125
vt 0.5937953125 0.25
vt 0.6015625 0.26875000000000004
vt 0.323040625 0.19810781249999998
vt 0.34375 0.19810781249999998
vt 0.34375 0.2231078125
vt 0.323040625 0.2231078125
vt 0.0312046875 0.289821875
vt 0.04229421875 0.30070031249999996
vt 0.0234375 0.30883125
vt 0.5828125 0.2765171875
vt 0.5828125 0.2609828125
vt 0.6015625 0.26875000000000004
vt 0.1302703125 0.19810781249999998
vt 0.1509796875 0.19810781249999998
vt 0.1509796875 0.2231078125
vt 0.1302703125 0.2231078125
vt 0.04229421875 0.30070031249999996
vt 0.04259265625 0.31623187500000005
vt 0.0234375 0.30883125
vt 0.5937953125 0.2875
vt 0.5828125 0.2765171875
vt 0.6015625 0.26875000000000004
vt 0.59375 0.19810781249999998
vt 0.614459375 0.19810781249999998
vt 0.614459375 0.2231078125
vt 0.59375 0.2231078125
vt 0.04259265625 0.31623187500000005
vt 0.03192921875 0.32752828125
vt 0.0234375 0.30883125
vt 0.6093296875 0.2875
vt 0.5937953125 0.2875
vt 0.6015625 0.26875000000000004
vt 0.7708953125 0.8387328125
vt 0.7916046875 0.8387328125
vt 0.7916046875 0.8637328125
vt 0.7708953125 0.8637328125
vt 0.03046875 0.328125
vt 0.01494578125 0.32752828125
vt 0.0234375 0.30883125
vt 0.1483921875 0.234375
vt 0.1328578125 0.234375
vt 0.1302703125 0.2231078125
vt 0.1509796875 0.2231078125
vt 0.3411625 0.234375
vt 0.325628125 0.234375
vt 0.323040625 0.2231078125
vt 0.34375 0.2231078125
vt 0.7890171875 0.8125
vt 0.7734828125 0.8125
vt 0.7708953125 0.8012328125
vt 0.7916046875 0.8012328125
vt 0.283746875 0.234375
vt 0.2682125 0.234375
vt 0.265625 0.2231078125
vt 0.286334375 0.2231078125
vt 0.7890171875 1
vt 0.7734828125 1
vt 0.7708953125 0.9887328125
vt 0.7916046875 0.9887328125
vt 0.5755375 0.234375
vt 0.560003125 0.234375
vt 0.557415625 0.2231078125
vt 0.578125 0.2231078125
vt 0.7890171875 0.875
vt 0.7734828125 0.875
vt 0.7708953125 0.8637328125
vt 0.7916046875 0.8637328125
vt 0.611871875 0.234375
vt 0.5963375 0.234375
vt 0.59375 0.2231078125
vt 0.614459375 0.2231078125
vt 0.0234828125 0.24275203125
vt 0.0390171875 0.24275203125
vt 0.0416046875 0.25159109375
vt 0.0208953125 0.25159109375
vt 0.010400625 0.234375
vt 0.0234828125 0.24275203125
vt 0.0208953125 0.25159109375
vt 0.00345515625 0.24042343749999995
vt 0.7734828125 0.46875
vt 0.7890171875 0.46875
vt 0.7916046875 0.484375
vt 0.7708953125 0.484375
vt 0.7577671875 0.50837703125
vt 0.770849375 0.5
vt 0.77779484375 0.5060484375000001
vt 0.7603546875 0.51721609375
vt 0.7422328125 0.50837703125
vt 0.7577671875 0.50837703125
vt 0.7603546875 0.51721609375
vt 0.7396453125 0.51721609375
vt 0.729150625 0.5
vt 0.7422328125 0.50837703125
vt 0.7396453125 0.51721609375
vt 0.72220515625 0.5060484375000001
vt 0.7734828125 0.640625
vt 0.7890171875 0.640625
vt 0.7916046875 0.65625
vt 0.7708953125 0.65625
vt 0.0390171875 0.24275203125
vt 0.052099375 0.234375
vt 0.05904484375 0.24042343749999995
vt 0.0416046875 0.25159109375
vn 0 -1 0
vn 0.7071067811865476 0 0.7071067811865476
vn 0.11624739046950554 0.9863939823508967 0.11624739046950554
vn 0 -1 0
vn 1 0 0
vn 0.16439898730535707 0.9863939238321439 0
vn 0 -1 0
vn 0.7071067811865476 0 -0.7071067811865476
vn 0.11624739046950554 0.9863939823508967 -0.11624739046950554
vn 0 -1 0
vn 0 0 -1
vn 0 0.9863939238321439 -0.16439898730535707
vn 0 -1 0
vn -0.7071067811865476 0 -0.7071067811865476
vn -0.11624739046950554 0.9863939823508967 -0.11624739046950554
vn 0 -1 0
vn -1 0 0
vn -0.16439898730535707 0.9863939238321439 0
vn 0 -1 0
vn -0.7071067811865476 0 0.7071067811865476
vn -0.11624739046950554 0.9863939823508967 0.11624739046950554
vn 0 -1 0
vn 0 0 1
vn 0 0.9863939238321439 0.16439898730535707
vn -0.8320502943378437 0.5547001962252291 0
vn -0.588350141502608 0.5546965134086588 -0.588350141502608
vn 0 0.5547001962252291 -0.8320502943378437
vn 0.588350141502608 0.5546965134086588 -0.588350141502608
vn 0.8320502943378437 0.5547001962252291 0
vn 0.588350141502608 0.5546965134086588 0.588350141502608
vn 0 0.5547001962252291 0.8320502943378437
vn -0.588350141502608 0.5546965134086588 0.588350141502608
vn 0 -0.7071067811865477 0.7071067811865475
vn -0.5000023975172442 -0.7071033905688867 0.5000023975172442
vn -0.7071067811865475 -0.7071067811865477 0
vn -0.5000023975172442 -0.7071033905688867 -0.5000023975172442
vn 0 -0.7071067811865477 -0.7071067811865475
vn 0.5000023975172442 -0.7071033905688867 -0.5000023975172442
vn 0.7071067811865475 -0.7071067811865477 0
vn 0.5000023975172442 -0.7071033905688867 0.5000023975172442
usemtl m_41c55970-49ed-0baf-8e3d-d95fe0cfa287
f 212/713/189 204/714/189 206/715/189
f 179/716/190 181/717/190 182/718/190 180/719/190
f 202/720/191 201/721/191 197/722/191
f 211/723/192 212/724/192 206/725/192
f 181/726/193 183/727/193 184/728/193 182/729/193
f 201/730/194 200/731/194 197/732/194
f 210/733/195 211/734/195 206/735/195
f 183/736/196 185/737/196 186/738/196 184/739/196
f 200/740/197 199/741/197 197/742/197
f 209/743/198 210/744/198 206/745/198
f 185/746/199 187/747/199 188/748/199 186/749/199
f 199/750/200 198/751/200 197/752/200
f 208/753/201 209/754/201 206/755/201
f 187/756/202 189/757/202 190/758/202 188/759/202
f 198/760/203 195/761/203 197/762/203
f 207/763/204 208/764/204 206/765/204
f 189/766/205 191/767/205 192/768/205 190/769/205
f 195/770/206 196/771/206 197/772/206
f 205/773/207 207/774/207 206/775/207
f 191/776/208 193/777/208 194/778/208 192/779/208
f 196/780/209 203/781/209 197/782/209
f 204/783/210 205/784/210 206/785/210
f 193/786/211 179/787/211 180/788/211 194/789/211
f 203/790/212 202/791/212 197/792/212
f 196/793/213 195/794/213 190/795/213 192/796/213
f 195/797/214 198/798/214 188/799/214 190/800/214
f 198/801/215 199/802/215 186/803/215 188/804/215
f 199/805/216 200/806/216 184/807/216 186/808/216
f 200/809/217 201/810/217 182/811/217 184/812/217
f 201/813/218 202/814/218 180/815/218 182/816/218
f 202/817/219 203/818/219 194/819/219 180/820/219
f 203/821/220 196/822/220 192/823/220 194/824/220
f 205/825/221 204/826/221 179/827/221 193/828/221
f 207/829/222 205/830/222 193/831/222 191/832/222
f 208/833/223 207/834/223 191/835/223 189/836/223
f 209/837/224 208/838/224 189/839/224 187/840/224
f 210/841/225 209/842/225 187/843/225 185/844/225
f 211/845/226 210/846/226 185/847/226 183/848/226
f 212/849/227 211/850/227 183/851/227 181/852/227
f 204/853/228 212/854/228 181/855/228 179/856/228
o large pine
v -0.140625 0.65015 -0.15625
v -0.140625 0.79735 -0.15625
v -0.0796525 0.65015 -0.009050000000000002
v 0.0065749999999999975 0.65015 -0.0952775
v 0.0065749999999999975 0.65015 -0.21722249999999999
v -0.0796525 0.65015 -0.30345
v -0.20159749999999999 0.65015 -0.30345
v -0.287825 0.65015 -0.21722249999999999
v -0.287825 0.65015 -0.0952775
v -0.20159749999999999 0.65015 -0.009050000000000002
v -0.140625 0.37875000000000003 -0.15625
v -0.140625 0.60875 -0.15625
v -0.045355625 0.37875000000000003 0.07375000000000001
v 0.08937500000000001 0.37875000000000003 -0.060980625
v 0.08937500000000001 0.37875000000000003 -0.251519375
v -0.045355625 0.37875000000000003 -0.38625
v -0.235894375 0.37875000000000003 -0.38625
v -0.370625 0.37875000000000003 -0.251519375
v -0.370625 0.37875000000000003 -0.060980625
v -0.235894375 0.37875000000000003 0.07375000000000001
v -0.140625 0.51675 -0.15625
v -0.140625 0.70075 -0.15625
v -0.06441 0.51675 0.027749999999999997
v 0.043375 0.51675 -0.080035
v 0.043375 0.51675 -0.232465
v -0.06441 0.51675 -0.34025
v -0.21684 0.51675 -0.34025
v -0.324625 0.51675 -0.232465
v -0.324625 0.51675 -0.080035
v -0.21684 0.51675 0.027749999999999997
v -0.09375 0.375 -0.109375
v -0.09375 0.375 -0.203125
v -0.09375 0 -0.109375
v -0.09375 0 -0.203125
v -0.1875 0.375 -0.109375
v -0.1875 0.375 -0.203125
v -0.1875 0 -0.109375
v -0.1875 0 -0.203125
vt 0.0758625 0.5051687499999999
vt 0.05430625 0.526725
vt 0.0390625 0.48992500000000005
vt 0.46836875 0.47920624999999994
vt 0.4940384375 0.49565484375
vt 0.453125 0.53125
vt 0.0758625 0.47468125000000005
vt 0.0758625 0.5051687499999999
vt 0.0390625 0.48992500000000005
vt 0.28538484375 0.71875
vt 0.2939546875 0.68949171875
vt 0.33961515625 0.71875
vt 0.05430625 0.453125
vt 0.0758625 0.47468125000000005
vt 0.0390625 0.48992500000000005
vt 0.4747115625 0.66752984375
vt 0.50038125 0.6510812500000001
vt 0.515625 0.703125
vt 0.02381875 0.453125
vt 0.05430625 0.453125
vt 0.0390625 0.48992500000000005
vt 0.50038125 0.6510812500000001
vt 0.53086875 0.6510812500000001
vt 0.515625 0.703125
vt 0.0022625 0.47468125000000005
vt 0.02381875 0.453125
vt 0.0390625 0.48992500000000005
vt 0.53086875 0.6510812500000001
vt 0.5565384375 0.66752984375
vt 0.515625 0.703125
vt 0.0022625 0.5051687499999999
vt 0.0022625 0.47468125000000005
vt 0.0390625 0.48992500000000005
vt 0.00413484375 0.828125
vt 0.0127046875 0.79886671875
vt 0.05836515625 0.828125
vt 0.02381875 0.526725
vt 0.0022625 0.5051687499999999
vt 0.0390625 0.48992500000000005
vt 0.4122115625 0.49565484375
vt 0.43788125 0.47920624999999994
vt 0.453125 0.53125
vt 0.05430625 0.526725
vt 0.02381875 0.526725
vt 0.0390625 0.48992500000000005
vt 0.43788125 0.47920624999999994
vt 0.46836875 0.47920624999999994
vt 0.453125 0.53125
vt 0.12 0.7375671875
vt 0.0863171875 0.77125
vt 0.0625 0.71375
vt 0.3910046875 0.8093078125
vt 0.43111203125 0.83500671875
vt 0.3671875 0.890625
vt 0.12 0.6899328124999999
vt 0.12 0.7375671875
vt 0.0625 0.71375
vt 0.12558046875 0.6317809375
vt 0.17129453125 0.6183915625
vt 0.17129453125 0.703125
vt 0.0863171875 0.65625
vt 0.12 0.6899328124999999
vt 0.0625 0.71375
vt 0.00638796875 0.58500671875
vt 0.0464953125 0.5593078125
vt 0.0703125 0.640625
vt 0.0386828125 0.65625
vt 0.0863171875 0.65625
vt 0.0625 0.71375
vt 0.0464953125 0.5593078125
vt 0.0941296875 0.5593078125
vt 0.0703125 0.640625
vt 0.005 0.6899328124999999
vt 0.0386828125 0.65625
vt 0.0625 0.71375
vt 0.0941296875 0.5593078125
vt 0.13423703125 0.58500671875
vt 0.0703125 0.640625
vt 0.005 0.7375671875
vt 0.005 0.6899328124999999
vt 0.0625 0.71375
vt 0.34825828125 1
vt 0.3616475 0.95428609375
vt 0.43299171875 1
vt 0.0386828125 0.77125
vt 0.005 0.7375671875
vt 0.0625 0.71375
vt 0.30326296875 0.83500671875
vt 0.3433703125 0.8093078125
vt 0.3671875 0.890625
vt 0.0863171875 0.77125
vt 0.0386828125 0.77125
vt 0.0625 0.71375
vt 0.3433703125 0.8093078125
vt 0.3910046875 0.8093078125
vt 0.3671875 0.890625
vt 0.249125 0.5650531249999999
vt 0.222178125 0.5920000000000001
vt 0.203125 0.546
vt 0.526865625 0.8568203125
vt 0.5589509375 0.87737796875
vt 0.5078125 0.921875
vt 0.249125 0.5269468749999999
vt 0.249125 0.5650531249999999
vt 0.203125 0.546
vt 0.5676525 0.911673125
vt 0.6042225 0.9009626562499999
vt 0.6042225 0.96875
vt 0.222178125 0.5
vt 0.249125 0.5269468749999999
vt 0.203125 0.546
vt 0.4254240625 0.5805029687500001
vt 0.457509375 0.5599453125
vt 0.4765625 0.625
vt 0.184071875 0.5
vt 0.222178125 0.5
vt 0.203125 0.546
vt 0.457509375 0.5599453125
vt 0.495615625 0.5599453125
vt 0.4765625 0.625
vt 0.157125 0.5269468749999999
vt 0.184071875 0.5
vt 0.203125 0.546
vt 0.495615625 0.5599453125
vt 0.5277009375 0.5805029687500001
vt 0.4765625 0.625
vt 0.157125 0.5650531249999999
vt 0.157125 0.5269468749999999
vt 0.203125 0.546
vt 0.3176525 0.380423125
vt 0.3542225 0.36971265625000005
vt 0.3542225 0.4375
vt 0.184071875 0.5920000000000001
vt 0.157125 0.5650531249999999
vt 0.203125 0.546
vt 0.4566740625 0.87737796875
vt 0.488759375 0.8568203125
vt 0.5078125 0.921875
vt 0.222178125 0.5920000000000001
vt 0.184071875 0.5920000000000001
vt 0.203125 0.546
vt 0.488759375 0.8568203125
vt 0.526865625 0.8568203125
vt 0.5078125 0.921875
vt 0.421875 0.453125
vt 0.390625 0.453125
vt 0.390625 0.359375
vt 0.421875 0.359375
vt 0.46875 0.359375
vt 0.46875 0.453125
vt 0.4375 0.453125
vt 0.4375 0.359375
vt 0.140625 0.734375
vt 0.171875 0.734375
vt 0.171875 0.765625
vt 0.140625 0.765625
vt 0.359375 0.640625
vt 0.359375 0.671875
vt 0.328125 0.671875
vt 0.328125 0.640625
vt 0.03125 0.34375
vt 0.03125 0.4375
vt 0 0.4375
vt 0 0.34375
vt 0.078125 0.4375
vt 0.046875 0.4375
vt 0.046875 0.34375
vt 0.078125 0.34375
vn 0 -1 0
vn 0.49999968341287787 0.707107228908066 0.49999968341287787
vn 0 -1 0
vn 0.7071067811865476 0.7071067811865476 0
vn 0 -1 0
vn 0.49999968341287787 0.707107228908066 -0.49999968341287787
vn 0 -1 0
vn 0 0.7071067811865476 -0.7071067811865476
vn 0 -1 0
vn -0.49999968341287787 0.707107228908066 -0.49999968341287787
vn 0 -1 0
vn -0.7071067811865476 0.7071067811865476 0
vn 0 -1 0
vn -0.49999968341287787 0.707107228908066 0.49999968341287787
vn 0 -1 0
vn 0 0.7071067811865476 0.7071067811865476
vn 0 -1 0
vn 0.4999998035056799 0.707107059071371 0.4999998035056799
vn 0 -1 0
vn 0.7071067811865475 0.7071067811865476 0
vn 0 -1 0
vn 0.4999998035056799 0.707107059071371 -0.4999998035056799
vn 0 -1 0
vn 0 0.7071067811865476 -0.7071067811865475
vn 0 -1 0
vn -0.4999998035056799 0.707107059071371 -0.4999998035056799
vn 0 -1 0
vn -0.7071067811865475 0.7071067811865476 0
vn 0 -1 0
vn -0.4999998035056799 0.707107059071371 0.4999998035056799
vn 0 -1 0
vn 0 0.7071067811865476 0.7071067811865475
vn 0 -1 0
vn 0.5000002838771764 0.7071063797233667 0.5000002838771764
vn 0 -1 0
vn 0.7071067811865476 0.7071067811865476 0
vn 0 -1 0
vn 0.5000002838771764 0.7071063797233667 -0.5000002838771764
vn 0 -1 0
vn 0 0.7071067811865476 -0.7071067811865476
vn 0 -1 0
vn -0.5000002838771764 0.7071063797233667 -0.5000002838771764
vn 0 -1 0
vn -0.7071067811865476 0.7071067811865476 0
vn 0 -1 0
vn -0.5000002838771764 0.7071063797233667 0.5000002838771764
vn 0 -1 0
vn 0 0.7071067811865476 0.7071067811865476
vn 1 0 0
vn -1 0 0
vn 0 1 0
vn 0 -1 0
vn 0 0 1
vn 0 0 -1
usemtl m_41c55970-49ed-0baf-8e3d-d95fe0cfa287
f 216/857/229 215/858/229 213/859/229
f 215/860/230 216/861/230 214/862/230
f 217/863/231 216/864/231 213/865/231
f 216/866/232 217/867/232 214/868/232
f 218/869/233 217/870/233 213/871/233
f 217/872/234 218/873/234 214/874/234
f 219/875/235 218/876/235 213/877/235
f 218/878/236 219/879/236 214/880/236
f 220/881/237 219/882/237 213/883/237
f 219/884/238 220/885/238 214/886/238
f 221/887/239 220/888/239 213/889/239
f 220/890/240 221/891/240 214/892/240
f 222/893/241 221/894/241 213/895/241
f 221/896/242 222/897/242 214/898/242
f 215/899/243 222/900/243 213/901/243
f 222/902/244 215/903/244 214/904/244
f 226/905/245 225/906/245 223/907/245
f 225/908/246 226/909/246 224/910/246
f 227/911/247 226/912/247 223/913/247
f 226/914/248 227/915/248 224/916/248
f 228/917/249 227/918/249 223/919/249
f 227/920/250 228/921/250 224/922/250
f 229/923/251 228/924/251 223/925/251
f 228/926/252 229/927/252 224/928/252
f 230/929/253 229/930/253 223/931/253
f 229/932/254 230/933/254 224/934/254
f 231/935/255 230/936/255 223/937/255
f 230/938/256 231/939/256 224/940/256
f 232/941/257 231/942/257 223/943/257
f 231/944/258 232/945/258 224/946/258
f 225/947/259 232/948/259 223/949/259
f 232/950/260 225/951/260 224/952/260
f 236/953/261 235/954/261 233/955/261
f 235/956/262 236/957/262 234/958/262
f 237/959/263 236/960/263 233/961/263
f 236/962/264 237/963/264 234/964/264
f 238/965/265 237/966/265 233/967/265
f 237/968/266 238/969/266 234/970/266
f 239/971/267 238/972/267 233/973/267
f 238/974/268 239/975/268 234/976/268
f 240/977/269 239/978/269 233/979/269
f 239/980/270 240/981/270 234/982/270
f 241/983/271 240/984/271 233/985/271
f 240/986/272 241/987/272 234/988/272
f 242/989/273 241/990/273 233/991/273
f 241/992/274 242/993/274 234/994/274
f 235/995/275 242/996/275 233/997/275
f 242/998/276 235/999/276 234/1000/276
f 244/1001/277 243/1002/277 245/1003/277 246/1004/277
f 249/1005/278 247/1006/278 248/1007/278 250/1008/278
f 247/1009/279 243/1010/279 244/1011/279 248/1012/279
f 246/1013/280 245/1014/280 249/1015/280 250/1016/280
f 245/1017/281 243/1018/281 247/1019/281 249/1020/281
f 248/1021/282 244/1022/282 246/1023/282 250/1024/282
o tree
v 0.15625 0.234375 0.203125
v 0.15625 0.421875 0.203125
v 0.208026875 0.234375 0.328125
v 0.208026875 0.359375 0.328125
v 0.28125 0.234375 0.254901875
v 0.28125 0.359375 0.254901875
v 0.28125 0.234375 0.151348125
v 0.28125 0.359375 0.151348125
v 0.208026875 0.234375 0.078125
v 0.208026875 0.359375 0.078125
v 0.104473125 0.234375 0.078125
v 0.104473125 0.359375 0.078125
v 0.03125 0.234375 0.151348125
v 0.03125 0.359375 0.151348125
v 0.03125 0.234375 0.254901875
v 0.03125 0.359375 0.254901875
v 0.104473125 0.234375 0.328125
v 0.104473125 0.359375 0.328125
v 0.1875 0.25 0.234375
v 0.1875 0.25 0.171875
v 0.1875 0 0.234375
v 0.1875 0 0.171875
v 0.125 0.25 0.234375
v 0.125 0.25 0.171875
v 0.125 0 0.234375
v 0.125 0 0.171875
vt 0.171875 0.90356875
vt 0.15356875 0.921875
vt 0.140625 0.890625
vt 0.71875 0.96875
vt 0.75 0.96875
vt 0.75 1
vt 0.71875 1
vt 0.67700625 0.9650625
vt 0.696645 0.9819292187499999
vt 0.6640625 1
vt 0.171875 0.87768125
vt 0.171875 0.90356875
vt 0.140625 0.890625
vt 0.453125 0.796875
vt 0.484375 0.796875
vt 0.484375 0.828125
vt 0.453125 0.828125
vt 0.51819609375 0.828125
vt 0.522105 0.802534375
vt 0.5546875 0.82060515625
vt 0.15356875 0.859375
vt 0.171875 0.87768125
vt 0.140625 0.890625
vt 0.265625 0.25
vt 0.296875 0.25
vt 0.296875 0.28125
vt 0.265625 0.28125
vt 0.522105 0.802534375
vt 0.54174375 0.78566765625
vt 0.5546875 0.82060515625
vt 0.12768125 0.859375
vt 0.15356875 0.859375
vt 0.140625 0.890625
vt 0.703125 0.546875
vt 0.734375 0.546875
vt 0.734375 0.578125
vt 0.703125 0.578125
vt 0.54174375 0.78566765625
vt 0.56763125 0.78566765625
vt 0.5546875 0.82060515625
vt 0.109375 0.87768125
vt 0.12768125 0.859375
vt 0.140625 0.890625
vt 0.71875 0.625
vt 0.75 0.625
vt 0.75 0.65625
vt 0.71875 0.65625
vt 0.56763125 0.78566765625
vt 0.58727 0.802534375
vt 0.5546875 0.82060515625
vt 0.109375 0.90356875
vt 0.109375 0.87768125
vt 0.140625 0.890625
vt 0.09375 0.5
vt 0.125 0.5
vt 0.125 0.53125
vt 0.09375 0.53125
vt 0.58727 0.802534375
vt 0.59117890625 0.828125
vt 0.5546875 0.82060515625
vt 0.12768125 0.921875
vt 0.109375 0.90356875
vt 0.140625 0.890625
vt 0.3125 0.25
vt 0.34375 0.25
vt 0.34375 0.28125
vt 0.3125 0.28125
vt 0.63148 0.9819292187499999
vt 0.65111875 0.9650625
vt 0.6640625 1
vt 0.15356875 0.921875
vt 0.12768125 0.921875
vt 0.140625 0.890625
vt 0.4375 0.3125
vt 0.46875 0.3125
vt 0.46875 0.34375
vt 0.4375 0.34375
vt 0.65111875 0.9650625
vt 0.67700625 0.9650625
vt 0.6640625 1
vt 0.6875 0.296875
vt 0.671875 0.296875
vt 0.671875 0.234375
vt 0.6875 0.234375
vt 0.71875 0.234375
vt 0.71875 0.296875
vt 0.703125 0.296875
vt 0.703125 0.234375
vt 0.296875 0.890625
vt 0.3125 0.890625
vt 0.3125 0.90625
vt 0.296875 0.90625
vt 0.234375 0.6875
vt 0.234375 0.703125
vt 0.21875 0.703125
vt 0.21875 0.6875
vt 0.109375 0.21875
vt 0.109375 0.28125
vt 0.09375 0.28125
vt 0.09375 0.21875
vt 0.25 0.28125
vt 0.234375 0.28125
vt 0.234375 0.21875
vt 0.25 0.21875
vn 0 -1 0
vn 0.7071067811865476 0 0.7071067811865476
vn 0.31622750884650214 0.8944273728467119 0.31622750884650214
vn 0 -1 0
vn 1 0 0
vn 0.44721359549995804 0.8944271909999161 0
vn 0 -1 0
vn 0.7071067811865476 0 -0.7071067811865476
vn 0.31622750884650214 0.8944273728467119 -0.31622750884650214
vn 0 -1 0
vn 0 0 -1
vn 0 0.8944271909999161 -0.44721359549995804
vn 0 -1 0
vn -0.7071067811865476 0 -0.7071067811865476
vn -0.31622750884650214 0.8944273728467119 -0.31622750884650214
vn 0 -1 0
vn -1 0 0
vn -0.44721359549995804 0.8944271909999161 0
vn 0 -1 0
vn -0.7071067811865476 0 0.7071067811865476
vn -0.31622750884650214 0.8944273728467119 0.31622750884650214
vn 0 -1 0
vn 0 0 1
vn 0 0.8944271909999161 0.44721359549995804
vn 1 0 0
vn -1 0 0
vn 0 1 0
vn 0 -1 0
vn 0 0 1
vn 0 0 -1
usemtl m_41c55970-49ed-0baf-8e3d-d95fe0cfa287
f 255/1025/283 253/1026/283 251/1027/283
f 253/1028/284 255/1029/284 256/1030/284 254/1031/284
f 254/1032/285 256/1033/285 252/1034/285
f 257/1035/286 255/1036/286 251/1037/286
f 255/1038/287 257/1039/287 258/1040/287 256/1041/287
f 256/1042/288 258/1043/288 252/1044/288
f 259/1045/289 257/1046/289 251/1047/289
f 257/1048/290 259/1049/290 260/1050/290 258/1051/290
f 258/1052/291 260/1053/291 252/1054/291
f 261/1055/292 259/1056/292 251/1057/292
f 259/1058/293 261/1059/293 262/1060/293 260/1061/293
f 260/1062/294 262/1063/294 252/1064/294
f 263/1065/295 261/1066/295 251/1067/295
f 261/1068/296 263/1069/296 264/1070/296 262/1071/296
f 262/1072/297 264/1073/297 252/1074/297
f 265/1075/298 263/1076/298 251/1077/298
f 263/1078/299 265/1079/299 266/1080/299 264/1081/299
f 264/1082/300 266/1083/300 252/1084/300
f 267/1085/301 265/1086/301 251/1087/301
f 265/1088/302 267/1089/302 268/1090/302 266/1091/302
f 266/1092/303 268/1093/303 252/1094/303
f 253/1095/304 267/1096/304 251/1097/304
f 267/1098/305 253/1099/305 254/1100/305 268/1101/305
f 268/1102/306 254/1103/306 252/1104/306
f 270/1105/307 269/1106/307 271/1107/307 272/1108/307
f 275/1109/308 273/1110/308 274/1111/308 276/1112/308
f 273/1113/309 269/1114/309 270/1115/309 274/1116/309
f 272/1117/310 271/1118/310 275/1119/310 276/1120/310
f 271/1121/311 269/1122/311 273/1123/311 275/1124/311
f 274/1125/312 270/1126/312 272/1127/312 276/1128/312