# Made in Blockbench 5.1.4
mtllib hill.mtl

o cylinder
v 0 0 0
v 0.13648875 0 0.375
v 0.120209375 0.09375 0.328125
v 0.345601875 0 0.199533125
v 0.304380625 0.09375 0.17391
v 0.39300375 0 -0.0692975
v 0.34612875 0.09375 -0.062361875
v 0.256515 0 -0.3057025
v 0.225919375 0.09375 -0.270135625
v 0 0 -0.399066875
v 0 0.09375 -0.352191875
v -0.256515 0 -0.3057025
v -0.225919375 0.09375 -0.270135625
v -0.39300375 0 -0.0692975
v -0.34612875 0.09375 -0.062361875
v -0.345601875 0 0.199533125
v -0.304380625 0.09375 0.17391
v -0.13648875 0 0.375
v -0.120209375 0.09375 0.328125
v 0 0.140625 -0.264508125
v -0.16944 0.140625 -0.202965625
v 0.16944 0.140625 -0.202965625
v 0.259596875 0.140625 -0.047135625
v 0.228285625 0.140625 0.130068125
v 0.090156875 0.140625 0.245729375
v -0.090156875 0.140625 0.245729375
v -0.228285625 0.140625 0.130068125
v -0.259596875 0.140625 -0.047135625
v 0 0.1875 -0.151870625
v -0.096484375 0.1875 -0.11702125
v 0 0.2109375 -0.002915
v 0.096484375 0.1875 -0.11702125
v 0.1478225 0.1875 -0.028780625
v 0.129993125 0.1875 0.071563125
v 0.051338125 0.1875 0.1370575
v -0.051338125 0.1875 0.1370575
v -0.129993125 0.1875 0.071563125
v -0.1478225 0.1875 -0.028780625
vt 0.375925 0.89305
vt 0.27136875 0.980784375
vt 0.203125 0.793284375
vt 0.67761875 0.9097121875
vt 0.8071203125 0.95281875
vt 0.783455 1
vt 0.6694784375 0.962120625
vt 0.53448625 0.38880843750000005
vt 0.574099375 0.42120749999999996
vt 0.5088184375 0.45976843749999996
vt 0.399628125 0.758634375
vt 0.375925 0.89305
vt 0.203125 0.793284375
vt 0.0147684375 0.4738903125
vt 0.1512559375 0.4738903125
vt 0.1437715625 0.5258746875
vt 0.0238059375 0.5258934375
vt 0.574099375 0.42120749999999996
vt 0.583894375 0.4712165625
vt 0.5088190625 0.45976812499999997
vt 0.33138125 0.640434375
vt 0.399628125 0.758634375
vt 0.203125 0.793284375
vt 0.1512559375 0.4738903125
vt 0.28125 0.51548875
vt 0.2580659375 0.5625
vt 0.1437715625 0.52587625
vt 0.583894375 0.4712165625
vt 0.559393125 0.5159990624999999
vt 0.50882 0.45976843749999996
vt 0.203125 0.59375
vt 0.33138125 0.640434375
vt 0.203125 0.793284375
vt 0 0.375
vt 0.1364875 0.375
vt 0.128471875 0.4375
vt 0.008290625 0.43746562499999997
vt 0.559393125 0.5159990624999999
vt 0.51179 0.5351040625
vt 0.5088196875 0.4597678125
vt 0.07486875 0.640434375
vt 0.203125 0.59375
vt 0.203125 0.793284375
vt 0.4572625 0.6875
vt 0.59375 0.6875
vt 0.585459375 0.749965625
vt 0.465278125 0.75
vt 0.5058453125 0.5351040625
vt 0.4582421875 0.5159990624999999
vt 0.508815625 0.4597678125
vt 0.006621875 0.758634375
vt 0.07486875 0.640434375
vt 0.203125 0.793284375
vt 0.4375 0.8279884375
vt 0.567494375 0.78639125
vt 0.5749784375 0.8383771875
vt 0.46068375 0.875
vt 0.4582421875 0.5159990624999999
vt 0.4337409375 0.4712165625
vt 0.5088153125 0.45976843749999996
vt 0.030325 0.89305
vt 0.006621875 0.758634375
vt 0.203125 0.793284375
vt 0.567494375 0.78639125
vt 0.703981875 0.78639125
vt 0.694944375 0.8383975
vt 0.57497875 0.83837875
vt 0.4337409375 0.4712165625
vt 0.4435359375 0.42120749999999996
vt 0.50881625 0.45976812499999997
vt 0.13488125 0.980784375
vt 0.030325 0.89305
vt 0.203125 0.793284375
vt 0.4116296875 0.95281875
vt 0.54113125 0.9097121875
vt 0.5492715625 0.962120625
vt 0.435295 1
vt 0.4435359375 0.42120749999999996
vt 0.48314875 0.38880843750000005
vt 0.5088165625 0.45976843749999996
vt 0.27136875 0.980784375
vt 0.13488125 0.980784375
vt 0.203125 0.793284375
vt 0.54113125 0.9097121875
vt 0.67761875 0.9097121875
vt 0.669478125 0.9621215625
vt 0.549271875 0.9621215625
vt 0.48314875 0.38880843750000005
vt 0.53448625 0.38880843750000005
vt 0.5088175 0.4597709375
vt 0.4184321875 0.56227625
vt 0.50202625 0.5959840625
vt 0.49817625 0.6455500000000001
vt 0.386718125 0.6006065625
vt 0.5646165625 0.610145625
vt 0.634175 0.5528234375000001
vt 0.6759615625 0.57982125
vt 0.5832178125 0.65625
vt 0.634175 0.5528234375000001
vt 0.658085 0.46604156249999995
vt 0.7078415625 0.464110625
vt 0.67596125 0.5798209375000001
vt 0.658085 0.46604156249999995
vt 0.6276290625 0.3813778125
vt 0.6672328125 0.35122687500000005
vt 0.707840625 0.464110625
vt 0.6276290625 0.3813778125
vt 0.553895625 0.32963343749999996
vt 0.5689209375 0.28223624999999997
vt 0.6672309375 0.351228125
vt 0.553895625 0.32963343749999996
vt 0.463739375 0.32963343749999996
vt 0.448714375 0.28223656249999995
vt 0.568920625 0.28223656249999995
vt 0.4611453125 0.3305478125
vt 0.3915634375 0.38775312500000003
vt 0.349781875 0.3607040625
vt 0.4425571875 0.28443125
vt 0.3900959375 0.3901534375
vt 0.372878125 0.478465625
vt 0.3234084375 0.48412875
vt 0.3463653125 0.36638000000000004
vt 0.373280625 0.4813021875
vt 0.4163134375 0.560365625
vt 0.3817678125 0.5961640625
vt 0.3243903125 0.49074562499999996
vt 0.4582421875 0.5159990624999999
vt 0.5058453125 0.5351040625
vt 0.50202625 0.5959840625
vt 0.418431875 0.56227625
vt 0.52821875 0.5435140625
vt 0.5715446875 0.5160565625
vt 0.6191209375 0.554309375
vt 0.54306625 0.6026821875
vt 0.5715446875 0.5160565625
vt 0.589726875 0.46835781249999997
vt 0.6509940625 0.47012406250000005
vt 0.6191184375 0.5543075
vt 0.589726875 0.46835781249999997
vt 0.5754909375 0.41942718749999996
vt 0.6259371875 0.3837096875
vt 0.6509971875 0.47012437500000004
vt 0.5754909375 0.41942718749999996
vt 0.53448625 0.38880843750000005
vt 0.5538959375 0.32963312499999997
vt 0.6259359375 0.38371062499999997
vt 0.53448625 0.38880843750000005
vt 0.48314875 0.38880843750000005
vt 0.463739375 0.32963343749999996
vt 0.553895625 0.32963343749999996
vt 0.48314875 0.38880843750000005
vt 0.4435359375 0.42120749999999996
vt 0.3915634375 0.38775312500000003
vt 0.461145625 0.3305478125
vt 0.4435359375 0.42120749999999996
vt 0.4337409375 0.4712165625
vt 0.372878125 0.478465625
vt 0.3900959375 0.3901534375
vt 0.4337409375 0.4712165625
vt 0.4582421875 0.5159990624999999
vt 0.4163134375 0.560365625
vt 0.373280625 0.481301875
vn 0 -1 0
vn 0.5767608296403114 0.44146152935338795 0.687356285701664
vn 0.10534988555972033 0.986354042052951 0.1265191896052112
vn 0 -1 0
vn 0.8879802477380705 0.4324067676734704 0.1565741578205572
vn 0.16142492382679108 0.9864680990837024 0.02868245905952582
vn 0 -1 0
vn 0.7830722354291041 0.42707890124942965 -0.45210782586419124
vn 0.1419484326950582 0.9864229991948751 -0.0825851628006146
vn 0 -1 0
vn 0.30955629831728254 0.42524696311016774 -0.8504939262203354
vn 0.05605294950178775 0.9862933099731155 -0.15518883192558114
vn 0 -1 0
vn -0.30976172335567204 0.42396627774373363 -0.8510583235477152
vn -0.05605294950178775 0.9862933099731155 -0.15518883192558114
vn 0 -1 0
vn -0.7837723750237784 0.42536302914966306 -0.45251205241651715
vn -0.1419484326950582 0.9864229991948751 -0.08258516280061462
vn 0 -1 0
vn -0.8876629443934513 0.433077992308626 0.15651820893646443
vn -0.16142492382679108 0.9864680990837024 0.028682459059525822
vn 0 -1 0
vn -0.5761569181575872 0.4433660145906969 0.6866365725513851
vn -0.10534988555972033 0.986354042052951 0.1265191896052112
vn 0 -1 0
vn 0 0.44721359549995804 0.8944271909999161
vn 0 0.9862693819897431 0.16514450081540732
vn -0.1687800114328496 0.8692399033157723 -0.46468838830372583
vn 0.16877973559386672 0.8692403628679016 -0.46468762885850906
vn 0.4275041806058117 0.8695198961578458 -0.24733646263784623
vn 0.48619402900156494 0.8696177679900376 0.0859086943169953
vn 0.31724885366617317 0.8693714354852864 0.3788752723651302
vn 0 0.8691877233972779 0.4944822559965702
vn -0.317249631440959 0.8693707468601161 0.3788762012247003
vn -0.48619510405568556 0.8696171481720498 0.0859088842750991
vn -0.427504069636087 0.86951996897923 -0.24733639843529473
vn -0.13745811153414814 0.9144797420728773 -0.3805680870905882
vn 0.13780808934681082 0.9140232042450723 -0.38153703963331315
vn 0.3500102346863299 0.9143443939874765 -0.20363488109480343
vn 0.3950434292071582 0.9159769122126248 0.07019248772963317
vn 0.2540731002987898 0.9177931194514147 0.3051272678608096
vn 0 0.9182206275489435 0.3960692857867477
vn -0.2550545459121866 0.9171280483787649 0.3063059279323307
vn -0.39557725322421844 0.9157392241707646 0.07028733916367041
vn -0.3488083057115145 0.9149589647100163 -0.20293560250344944
usemtl m_865632ee-472a-ce8c-39d1-6ae37939b775
f 4/1/1 2/2/1 1/3/1
f 2/4/2 4/5/2 5/6/2 3/7/2
f 35/8/3 34/9/3 31/10/3
f 6/11/4 4/12/4 1/13/4
f 4/14/5 6/15/5 7/16/5 5/17/5
f 34/18/6 33/19/6 31/20/6
f 8/21/7 6/22/7 1/23/7
f 6/24/8 8/25/8 9/26/8 7/27/8
f 33/28/9 32/29/9 31/30/9
f 10/31/10 8/32/10 1/33/10
f 8/34/11 10/35/11 11/36/11 9/37/11
f 32/38/12 29/39/12 31/40/12
f 12/41/13 10/42/13 1/43/13
f 10/44/14 12/45/14 13/46/14 11/47/14
f 29/48/15 30/49/15 31/50/15
f 14/51/16 12/52/16 1/53/16
f 12/54/17 14/55/17 15/56/17 13/57/17
f 30/58/18 38/59/18 31/60/18
f 16/61/19 14/62/19 1/63/19
f 14/64/20 16/65/20 17/66/20 15/67/20
f 38/68/21 37/69/21 31/70/21
f 18/71/22 16/72/22 1/73/22
f 16/74/23 18/75/23 19/76/23 17/77/23
f 37/78/24 36/79/24 31/80/24
f 2/81/25 18/82/25 1/83/25
f 18/84/26 2/85/26 3/86/26 19/87/26
f 36/88/27 35/89/27 31/90/27
f 21/91/28 20/92/28 11/93/28 13/94/28
f 20/95/29 22/96/29 9/97/29 11/98/29
f 22/99/30 23/100/30 7/101/30 9/102/30
f 23/103/31 24/104/31 5/105/31 7/106/31
f 24/107/32 25/108/32 3/109/32 5/110/32
f 25/111/33 26/112/33 19/113/33 3/114/33
f 26/115/34 27/116/34 17/117/34 19/118/34
f 27/119/35 28/120/35 15/121/35 17/122/35
f 28/123/36 21/124/36 13/125/36 15/126/36
f 30/127/37 29/128/37 20/129/37 21/130/37
f 29/131/38 32/132/38 22/133/38 20/134/38
f 32/135/39 33/136/39 23/137/39 22/138/39
f 33/139/40 34/140/40 24/141/40 23/142/40
f 34/143/41 35/144/41 25/145/41 24/146/41
f 35/147/42 36/148/42 26/149/42 25/150/42
f 36/151/43 37/152/43 27/153/43 26/154/43
f 37/155/44 38/156/44 28/157/44 27/158/44
f 38/159/45 30/160/45 21/161/45 28/162/45