# Made in Blockbench 5.1.6
mtllib cache.mtl

o mesh
v 0.25 0.1875 0.125
v 0.25 0.1875 -0.125
v 0.25 0 0.125
v 0.25 0 -0.125
v -0.25 0.1875 0.125
v -0.25 0.1875 -0.125
v -0.25 0 0.125
v -0.25 0 -0.125
v 0.25 0.25 0.1125
v 0.25 0.25 -0.1125
v -0.25 0.25 0.1125
v -0.25 0.25 -0.1125
v 0.25 0.2812500000000001 0.075
v 0.25 0.2812500000000001 -0.075
v -0.25 0.2812500000000001 0.075
v -0.25 0.2812500000000001 -0.075
v 0.25 0.2937500000000003 0.024999999999999994
v 0.25 0.2937500000000003 -0.024999999999999994
v -0.25 0.2937500000000003 0.024999999999999994
v -0.25 0.2937500000000003 -0.024999999999999994
vt 0.40625 0.603125
vt 0.28125 0.603125
vt 0.28125 0.509375
vt 0.40625 0.509375
vt 0.125 0.478125
vt 0.125 0.571875
vt 0 0.571875
vt 0 0.478125
vt 0.28125 0.9248218749999999
vt 0.53125 0.9248218749999999
vt 0.53125 0.9498218749999999
vt 0.28125 0.9498218749999999
vt 0.53125 0.6875
vt 0.53125 0.8125
vt 0.28125 0.8125
vt 0.28125 0.6875
vt 0.25 0.87438125
vt 0.25 0.96813125
vt 0 0.96813125
vt 0 0.87438125
vt 0.25 0.78063125
vt 0 0.78063125
vt 0 0.68688125
vt 0.25 0.68688125
vt 0.25 1
vt 0 1
vt 0 0.96813125
vt 0.25 0.96813125
vt 0.4 0.634375
vt 0.2875 0.634375
vt 0.28125 0.603125
vt 0.40625 0.603125
vt 0.25 0.8125
vt 0 0.8125
vt 0 0.78063125
vt 0.25 0.78063125
vt 0.11875 0.603125
vt 0.0062500000000000056 0.603125
vt 0 0.571875
vt 0.125 0.571875
vt 0.53125 0.8990499999999999
vt 0.28125 0.8990499999999999
vt 0.28125 0.8746437499999999
vt 0.53125 0.8746437499999999
vt 0.38125 0.65
vt 0.30625 0.65
vt 0.2875 0.634375
vt 0.4 0.634375
vt 0.28125 0.97559375
vt 0.53125 0.9755937499999999
vt 0.53125 1
vt 0.28125 1
vt 0.1 0.61875
vt 0.025 0.61875
vt 0.006249999999999999 0.603125
vt 0.11875 0.603125
vt 0.53125 0.9248218749999999
vt 0.28125 0.9248218749999999
vt 0.28125 0.8990499999999999
vt 0.53125 0.8990499999999999
vt 0.35625 0.65625
vt 0.33125 0.65625
vt 0.30625 0.65
vt 0.38125 0.65
vt 0.28125 0.949821875
vt 0.53125 0.9498218749999999
vt 0.53125 0.9755937499999999
vt 0.28125 0.97559375
vt 0.075 0.625
vt 0.049999999999999996 0.625
vt 0.025 0.61875
vt 0.1 0.61875
vn 1 0 0
vn -1 0 0
vn 0 1 0
vn 0 -1 0
vn 0 0 1
vn 0 0 -1
vn 0 0.19611613513818404 0.9805806756909203
vn 1 0 0
vn 0 0.19611613513818404 -0.9805806756909203
vn -1 0 0
vn 0 0.7682212795973747 0.6401843996644812
vn 1 0 0
vn 0 0.7682212795973747 -0.6401843996644812
vn -1 0 0
vn 0 0.9701425001453312 0.24253562503633624
vn 1 0 0
vn 0 0.9701425001453312 -0.24253562503633624
vn -1 0 0
usemtl m_3db3b5d1-4b2f-26f4-f0db-525e3d196cf6
f 2/1/1 1/2/1 3/3/1 4/4/1
f 7/5/2 5/6/2 6/7/2 8/8/2
f 19/9/3 17/10/3 18/11/3 20/12/3
f 4/13/4 3/14/4 7/15/4 8/16/4
f 3/17/5 1/18/5 5/19/5 7/20/5
f 6/21/6 2/22/6 4/23/6 8/24/6
f 9/25/7 11/26/7 5/27/7 1/28/7
f 10/29/8 9/30/8 1/31/8 2/32/8
f 12/33/9 10/34/9 2/35/9 6/36/9
f 11/37/10 12/38/10 6/39/10 5/40/10
f 13/41/11 15/42/11 11/43/11 9/44/11
f 14/45/12 13/46/12 9/47/12 10/48/12
f 16/49/13 14/50/13 10/51/13 12/52/13
f 15/53/14 16/54/14 12/55/14 11/56/14
f 17/57/15 19/58/15 15/59/15 13/60/15
f 18/61/16 17/62/16 13/63/16 14/64/16
f 20/65/17 18/66/17 14/67/17 16/68/17
f 19/69/18 20/70/18 16/71/18 15/72/18