# Made in Blockbench 5.0.4
mtllib goo.mtl

o cone
v 0 0 0
v 0 0.2578125000000001 0
v 0.100480947161671 0 0.37499999999999994
v 0.27451905283832895 0 0.274519052838329
v 0.37499999999999994 0 0.100480947161671
v 0.37499999999999994 0 -0.10048094716167102
v 0.274519052838329 0 -0.27451905283832895
v 0.10048094716167111 0 -0.3749999999999999
v -0.10048094716167084 0 -0.375
v -0.27451905283832895 0 -0.274519052838329
v -0.37499999999999994 0 -0.10048094716167094
v -0.375 0 0.10048094716167083
v -0.274519052838329 0 0.2745190528383289
v -0.10048094716167097 0 0.37499999999999994
v 0.13725952641916447 0.1875 0.1372595264191645
v 0.0502404735808355 0.1875 0.18749999999999997
v -0.050240473580835485 0.1875 0.18749999999999997
v -0.1372595264191645 0.1875 0.13725952641916445
v -0.1875 0.1875 0.050240473580835415
v -0.18749999999999997 0.1875 -0.05024047358083547
v -0.13725952641916447 0.1875 -0.1372595264191645
v -0.05024047358083542 0.1875 -0.1875
v 0.050240473580835554 0.1875 -0.18749999999999994
v 0.1372595264191645 0.1875 -0.13725952641916447
v 0.18749999999999997 0.1875 -0.05024047358083551
v 0.18749999999999997 0.1875 0.0502404735808355
vt 0.42518203484392725 0.875
vt 0.39917597325710075 0.9720570348439272
vt 0.23106796515607272 0.875
vt 0.631128125 0.875
vt 0.580890625 0.875
vt 0.55576875 0.75
vt 0.65625 0.75
vt 0.5501821615085546 0.8125
vt 0.524175627202808 0.9095569081794652
vt 0.3560678384914454 0.8125
vt 0.724878125 0.8125
vt 0.674640625 0.8125
vt 0.64951875 0.6875
vt 0.75 0.6875
vt 0.1804256272028079 0.875
vt 0.20643216150855462 0.972057414837644
vt 0.012317838491445382 0.9720574148376441
vt 0.58761875 0.625
vt 0.53738125 0.625
vt 0.512259375 0.5
vt 0.612740625 0.5
vt 0.13897148257803638 0.5
vt 0.23602851742196365 0.5260060615868265
vt 0.13897148257803635 0.6941140696878545
vt 0.450359375 0.40625
vt 0.400121875 0.40625
vt 0.375 0.28125
vt 0.47548124999999997 0.28125
vt 0.3889714825780364 0.4322560615868265
vt 0.4860285174219636 0.40625
vt 0.4860285174219636 0.6003640696878545
vt 0.637859375 1
vt 0.587621875 1
vt 0.5625 0.875
vt 0.66298125 0.875
vt 0.13731783849144538 0.847057414837644
vt 0.1633243727971921 0.75
vt 0.3314321615085546 0.847057414837644
vt 0.21261875 0.5
vt 0.16238125 0.5
vt 0.13725937500000002 0.375
vt 0.23774062499999998 0.375
vt 0.29356796515607275 0.7845570348439272
vt 0.31957402674289925 0.6875
vt 0.48768203484392725 0.7845570348439272
vt 0.349878125 0.46875
vt 0.299640625 0.46875
vt 0.27451875000000003 0.34375
vt 0.375 0.34375
vt 0.44457402674289925 0.7220570348439272
vt 0.41856796515607275 0.625
vt 0.6126820348439272 0.625
vt 0.693628125 0.4375
vt 0.643390625 0.4375
vt 0.61826875 0.3125
vt 0.71875 0.3125
vt 0.267278707418822 0.7566143230171092
vt 0.170221292581178 0.7306077887113624
vt 0.267278707418822 0.5625
vt 0.58761875 0.5
vt 0.53738125 0.5
vt 0.512259375 0.375
vt 0.612740625 0.375
vt 0.3922785174219636 0.6628640696878545
vt 0.2952214825780364 0.636858008101028
vt 0.3922785174219636 0.46875
vt 0.200359375 0.375
vt 0.150121875 0.375
vt 0.125 0.25
vt 0.22548125 0.25
vt 0.11102845408973258 0.7253643230171092
vt 0.013971545910267363 0.6993577887113624
vt 0.11102845408973264 0.53125
vt 0.07535937499999999 0.40625
vt 0.025121875 0.40625
vt 0 0.28125
vt 0.10048125 0.28125
vt 0.11102870741882202 0.8868577887113624
vt 0.013971292581178012 0.9128643230171092
vt 0.013971292581177977 0.71875
vt 0.08761875 0.53125
vt 0.037381250000000005 0.53125
vt 0.012259375000000003 0.40625
vt 0.112740625 0.40625
vt 0.375 0.24052225553872397
vt 0.37499999999999994 0.34375
vt 0.32627250223522103 0.2527467133112986
vt 0.30561374888238946 0.490522255538724
vt 0.30561374888238946 0.59375
vt 0.25688625111761054 0.5027467133112986
vt 0.7362274977647789 0.896772255538724
vt 0.7362274977647789 1
vt 0.6875 0.9089967133112986
vt 0.7362274977647789 0.584272255538724
vt 0.7362274977647789 0.6875
vt 0.6875 0.5964967133112986
vt 0.5556137488823895 0.271772255538724
vt 0.5556137488823895 0.375
vt 0.5068862511176105 0.2839967133112986
vt 0.4714967133112987 0.9512725022352211
vt 0.5625 1
vt 0.459272255538724 1
vt 0.3125 0.24052225553872397
vt 0.31249999999999994 0.34375
vt 0.26377250223522103 0.2527467133112986
vt 0.6806137488823895 0.584272255538724
vt 0.6806137488823895 0.6875
vt 0.6318862511176105 0.5964967133112986
vt 0.2309744577725747 0.9512725022352211
vt 0.321977744461276 1
vt 0.21875 1
vt 0.6112274977647789 0.20927225553872397
vt 0.6112274977647789 0.3125
vt 0.5625 0.2214967133112986
vt 0.6806137488823895 0.459272255538724
vt 0.6806137488823895 0.5625
vt 0.6318862511176105 0.4714967133112986
vt 0.75 0.459272255538724
vt 0.75 0.5625
vt 0.7012725022352211 0.4714967133112986
vn 0 -1 0
vn 0.3535533905932737 0.7071067811865476 0.6123724356957947
vn 0 -1 0
vn 0.6123724356957946 0.7071067811865475 0.3535533905932737
vn 0 -1 0
vn 0.7071067811865476 0.7071067811865475 0
vn 0 -1 0
vn 0.6123724356957947 0.7071067811865475 -0.3535533905932737
vn 0 -1 0
vn 0.35355339059327373 0.7071067811865476 -0.6123724356957946
vn 0 -1 0
vn 3.906443218925727e-16 0.7071067811865475 -0.7071067811865476
vn 0 -1 0
vn -0.35355339059327356 0.7071067811865475 -0.6123724356957948
vn 0 -1 0
vn -0.6123724356957947 0.7071067811865475 -0.3535533905932736
vn 0 -1 0
vn -0.7071067811865476 0.7071067811865475 -1.953221609462865e-16
vn 0 -1 0
vn -0.6123724356957947 0.7071067811865475 0.3535533905932736
vn 0 -1 0
vn -0.3535533905932738 0.7071067811865475 0.6123724356957946
vn 0 -1 0
vn 0 0.7071067811865475 0.7071067811865476
vn 0.17556172079419602 0.9363291775690444 0.3040818202797692
vn 0 0.9363291775690444 0.3511234415883923
vn -0.1755617207941961 0.9363291775690443 0.3040818202797691
vn -0.3040818202797692 0.9363291775690445 0.17556172079419605
vn -0.3511234415883922 0.9363291775690443 -9.698986234421183e-17
vn -0.3040818202797692 0.9363291775690445 -0.17556172079419605
vn -0.17556172079419596 0.9363291775690443 -0.3040818202797692
vn 1.9397972468842358e-16 0.9363291775690444 -0.3511234415883923
vn 0.17556172079419607 0.9363291775690444 -0.30408182027976915
vn 0.3040818202797692 0.9363291775690444 -0.17556172079419607
vn 0.3511234415883922 0.9363291775690443 0
vn 0.3040818202797692 0.9363291775690444 0.17556172079419607
usemtl m_e389c2a2-1f31-8bab-e64e-a368df3d8689
f 4/1/1 3/2/1 1/3/1
f 15/4/2 16/5/2 3/6/2 4/7/2
f 5/8/3 4/9/3 1/10/3
f 26/11/4 15/12/4 4/13/4 5/14/4
f 6/15/5 5/16/5 1/17/5
f 25/18/6 26/19/6 5/20/6 6/21/6
f 7/22/7 6/23/7 1/24/7
f 24/25/8 25/26/8 6/27/8 7/28/8
f 8/29/9 7/30/9 1/31/9
f 23/32/10 24/33/10 7/34/10 8/35/10
f 9/36/11 8/37/11 1/38/11
f 22/39/12 23/40/12 8/41/12 9/42/12
f 10/43/13 9/44/13 1/45/13
f 21/46/14 22/47/14 9/48/14 10/49/14
f 11/50/15 10/51/15 1/52/15
f 20/53/16 21/54/16 10/55/16 11/56/16
f 12/57/17 11/58/17 1/59/17
f 19/60/18 20/61/18 11/62/18 12/63/18
f 13/64/19 12/65/19 1/66/19
f 18/67/20 19/68/20 12/69/20 13/70/20
f 14/71/21 13/72/21 1/73/21
f 17/74/22 18/75/22 13/76/22 14/77/22
f 3/78/23 14/79/23 1/80/23
f 16/81/24 17/82/24 14/83/24 3/84/24
f 15/85/25 2/86/25 16/87/25
f 16/88/26 2/89/26 17/90/26
f 17/91/27 2/92/27 18/93/27
f 18/94/28 2/95/28 19/96/28
f 19/97/29 2/98/29 20/99/29
f 20/100/30 2/101/30 21/102/30
f 21/103/31 2/104/31 22/105/31
f 22/106/32 2/107/32 23/108/32
f 23/109/33 2/110/33 24/111/33
f 24/112/34 2/113/34 25/114/34
f 25/115/35 2/116/35 26/117/35
f 26/118/36 2/119/36 15/120/36