# Made in Blockbench 5.1.6
mtllib marketplace.mtl

o mesh
v 0.3125 0.375 0.3125
v 0.3125 0.375 -0.3125
v 0.3125 0.125 0.3125
v 0.3125 0.125 -0.3125
v -0.3125 0.375 0.3125
v -0.3125 0.375 -0.3125
v -0.3125 0.125 0.3125
v -0.3125 0.125 -0.3125
v 0.21875 0.375 0.21875
v 0.21875 0.375 -0.21875
v -0.21875 0.375 0.21875
v -0.21875 0.375 -0.21875
v 0.21875 0.15625 0.21875
v 0.21875 0.15625 -0.21875
v -0.21875 0.15625 0.21875
v -0.21875 0.15625 -0.21875
v -0.21875 0.875 -0.21875
v -0.21875 0.875 -0.28125
v -0.21875 0.375 -0.21875
v -0.21875 0.375 -0.28125
v -0.28125 0.875 -0.21875
v -0.28125 0.875 -0.28125
v -0.28125 0.375 -0.21875
v -0.28125 0.375 -0.28125
v 0.28125 0.875 -0.21875
v 0.28125 0.875 -0.28125
v 0.28125 0.375 -0.21875
v 0.28125 0.375 -0.28125
v 0.21875 0.875 -0.21875
v 0.21875 0.875 -0.28125
v 0.21875 0.375 -0.21875
v 0.21875 0.375 -0.28125
v -0.21875 0.875 0.15625
v -0.21875 0.875 0.09375
v -0.21875 0.375 0.15625
v -0.21875 0.375 0.09375
v -0.28125 0.875 0.15625
v -0.28125 0.875 0.09375
v -0.28125 0.375 0.15625
v -0.28125 0.375 0.09375
v 0.28125 0.875 0.15625
v 0.28125 0.875 0.09375
v 0.28125 0.375 0.15625
v 0.28125 0.375 0.09375
v 0.21875 0.875 0.15625
v 0.21875 0.875 0.09375
v 0.21875 0.375 0.15625
v 0.21875 0.375 0.09375
v 0.3125 0.9375000000000001 0.5
v 0.3125 0.9375000000000001 -0.3125
v 0.3125 0.8750000000000001 0.5
v 0.3125 0.8750000000000001 -0.3125
v -0.3125 0.9375000000000001 0.5
v -0.3125 0.9375000000000001 -0.3125
v -0.3125 0.8750000000000001 0.5
v -0.3125 0.8750000000000001 -0.3125
v 0.3125 0.8750000000000001 0.46875
v -0.3125 0.8750000000000001 0.46875
v -0.3125 0.9375000000000001 0.46875
v 0.3125 0.9375000000000001 0.46875
v 0.3125 0.7812500000000001 0.46875
v -0.3125 0.7812500000000001 0.46875
v -0.2801820193753113 0.9288725864372822 0.5172269709370331
v 0.3448179806246887 0.9288725864372822 0.5172269709370331
v -0.3125 0.7812500000000001 0.5
v 0.3125 0.7812500000000001 0.5
vt 0.5 0.875
vt 0.34375 0.875
vt 0.34375 0.8125
vt 0.5 0.8125
vt 0.5 0.734375
vt 0.5 0.796875
vt 0.34375 0.796875
vt 0.34375 0.734375
vt 0.34375 0.890625
vt 0.453125 0.890625
vt 0.453125 1
vt 0.34375 1
vt 0.15625 0.625
vt 0.15625 0.78125
vt 0 0.78125
vt 0 0.625
vt 0.5 0.65625
vt 0.5 0.71875
vt 0.34375 0.71875
vt 0.34375 0.65625
vt 0.5 0.640625
vt 0.34375 0.640625
vt 0.34375 0.578125
vt 0.5 0.578125
vt 0.3046875 0.6484375
vt 0.1953125 0.6484375
vt 0.171875 0.625
vt 0.328125 0.625
vt 0.3046875 0.7578125
vt 0.3046875 0.6484375
vt 0.328125 0.625
vt 0.328125 0.78125
vt 0.1953125 0.7578125
vt 0.3046875 0.7578125
vt 0.328125 0.78125
vt 0.171875 0.78125
vt 0.1953125 0.6484375
vt 0.1953125 0.7578125
vt 0.171875 0.78125
vt 0.171875 0.625
vt 0.421875 0.5078125
vt 0.53125 0.5078125
vt 0.53125 0.5625
vt 0.421875 0.5625
vt 0.46875 0.9453125
vt 0.578125 0.9453125
vt 0.578125 1
vt 0.46875 1
vt 0 0.4609375
vt 0.109375 0.4609375
vt 0.109375 0.515625
vt 0 0.515625
vt 0.125 0.4453125
vt 0.234375 0.4453125
vt 0.234375 0.5
vt 0.125 0.5
vt 0.53125 0.875
vt 0.515625 0.875
vt 0.515625 0.75
vt 0.53125 0.75
vt 0.53125 0.609375
vt 0.53125 0.734375
vt 0.515625 0.734375
vt 0.515625 0.609375
vt 0.21875 0.71875
vt 0.234375 0.71875
vt 0.234375 0.734375
vt 0.21875 0.734375
vt 0.265625 0.71875
vt 0.265625 0.734375
vt 0.25 0.734375
vt 0.25 0.71875
vt 0.4375 0.359375
vt 0.4375 0.484375
vt 0.421875 0.484375
vt 0.421875 0.359375
vt 0.46875 0.484375
vt 0.453125 0.484375
vt 0.453125 0.359375
vt 0.46875 0.359375
vt 0.5 0.484375
vt 0.484375 0.484375
vt 0.484375 0.359375
vt 0.5 0.359375
vt 0.53125 0.359375
vt 0.53125 0.484375
vt 0.515625 0.484375
vt 0.515625 0.359375
vt 0.21875 0.6875
vt 0.234375 0.6875
vt 0.234375 0.703125
vt 0.21875 0.703125
vt 0.265625 0.6875
vt 0.265625 0.703125
vt 0.25 0.703125
vt 0.25 0.6875
vt 0.265625 0.34375
vt 0.265625 0.46875
vt 0.25 0.46875
vt 0.25 0.34375
vt 0.296875 0.46875
vt 0.28125 0.46875
vt 0.28125 0.34375
vt 0.296875 0.34375
vt 0.328125 0.46875
vt 0.3125 0.46875
vt 0.3125 0.34375
vt 0.328125 0.34375
vt 0.359375 0.34375
vt 0.359375 0.46875
vt 0.34375 0.46875
vt 0.34375 0.34375
vt 0.21875 0.59375
vt 0.234375 0.59375
vt 0.234375 0.609375
vt 0.21875 0.609375
vt 0.265625 0.59375
vt 0.265625 0.609375
vt 0.25 0.609375
vt 0.25 0.59375
vt 0.390625 0.34375
vt 0.390625 0.46875
vt 0.375 0.46875
vt 0.375 0.34375
vt 0.5625 0.875
vt 0.546875 0.875
vt 0.546875 0.75
vt 0.5625 0.75
vt 0.5625 0.734375
vt 0.546875 0.734375
vt 0.546875 0.609375
vt 0.5625 0.609375
vt 0.5625 0.46875
vt 0.5625 0.59375
vt 0.546875 0.59375
vt 0.546875 0.46875
vt 0.28125 0.59375
vt 0.296875 0.59375
vt 0.296875 0.609375
vt 0.28125 0.609375
vt 0.328125 0.59375
vt 0.328125 0.609375
vt 0.3125 0.609375
vt 0.3125 0.59375
vt 0.5625 0.328125
vt 0.5625 0.453125
vt 0.546875 0.453125
vt 0.546875 0.328125
vt 0.015625 0.4375
vt 0 0.4375
vt 0 0.3125
vt 0.015625 0.3125
vt 0 0.59375
vt 0.0078125 0.59375
vt 0.0078125 0.609375
vt 0 0.609375
vt 0.234375 0.5625
vt 0.2265625 0.5625
vt 0.2265625 0.546875
vt 0.234375 0.546875
vt 0.15625 0.796875
vt 0.15625 0.8046875
vt 0 0.8046875
vt 0 0.796875
vt 0.03125 0.421875
vt 0.03125 0.4140625
vt 0.1875 0.4140625
vt 0.1875 0.421875
vt 0.40625 0.546875
vt 0.40625 0.5625
vt 0.25 0.5625
vt 0.25 0.546875
vt 0.40625 0.5
vt 0.25 0.5
vt 0.25 0.484375
vt 0.40625 0.484375
vt 0.328125 0.8046875
vt 0.328125 1
vt 0.171875 1
vt 0.171875 0.8046875
vt 0.03125 0.546875
vt 0.2265625 0.546875
vt 0.2265625 0.5625
vt 0.03125 0.5625
vt 0 1
vt 0 0.8046875
vt 0.15625 0.8046875
vt 0.15625 1
vt 0.203125 0.609375
vt 0.0078125 0.609375
vt 0.0078125 0.59375
vt 0.203125 0.59375
vt 0.2265625 0.5234375
vt 0.234375 0.5234375
vt 0.234375 0.546875
vt 0.2265625 0.546875
vt 0.46875 0.8984375
vt 0.625 0.8984375
vt 0.625 0.921875
vt 0.46875 0.921875
vt 0 0.5703125
vt 0.0078125 0.5703125
vt 0.0078125 0.59375
vt 0 0.59375
vt 0.25 0.5234375
vt 0.40625 0.5234375
vt 0.40625 0.546875
vt 0.25 0.546875
vn 1 0 0
vn -1 0 0
vn 0 1 0
vn 0 -1 0
vn 0 0 1
vn 0 0 -1
vn 0 1 0
vn 0 1 0
vn 0 1 0
vn 0 1 0
vn 0 0 -1
vn -1 0 0
vn 0 0 1
vn 1 0 0
vn 1 0 0
vn -1 0 0
vn 0 1 0
vn 0 -1 0
vn 0 0 1
vn 0 0 -1
vn 1 0 0
vn -1 0 0
vn 0 1 0
vn 0 -1 0
vn 0 0 1
vn 0 0 -1
vn 1 0 0
vn -1 0 0
vn 0 1 0
vn 0 -1 0
vn 0 0 1
vn 0 0 -1
vn 1 0 0
vn -1 0 0
vn 0 1 0
vn 0 -1 0
vn 0 0 1
vn 0 0 -1
vn 1 0 0
vn -1 0 0
vn 0 1 0
vn 0 -1 0
vn 0 0 1
vn 0 0 -1
vn 0 -1 0
vn -1 0 0
vn 0 1 0
vn 1 0 0
vn -1 0 0
vn 0 0 -1
vn 1 0 0
vn 0 0 1
usemtl m_5f444f45-f684-0393-2892-0c7c28455533
f 2/1/1 1/2/1 3/3/1 4/4/1
f 7/5/2 5/6/2 6/7/2 8/8/2
f 15/9/3 13/10/3 14/11/3 16/12/3
f 4/13/4 3/14/4 7/15/4 8/16/4
f 3/17/5 1/18/5 5/19/5 7/20/5
f 6/21/6 2/22/6 4/23/6 8/24/6
f 9/25/7 11/26/7 5/27/7 1/28/7
f 10/29/8 9/30/8 1/31/8 2/32/8
f 12/33/9 10/34/9 2/35/9 6/36/9
f 11/37/10 12/38/10 6/39/10 5/40/10
f 13/41/11 15/42/11 11/43/11 9/44/11
f 14/45/12 13/46/12 9/47/12 10/48/12
f 16/49/13 14/50/13 10/51/13 12/52/13
f 15/53/14 16/54/14 12/55/14 11/56/14
f 18/57/15 17/58/15 19/59/15 20/60/15
f 23/61/16 21/62/16 22/63/16 24/64/16
f 21/65/17 17/66/17 18/67/17 22/68/17
f 20/69/18 19/70/18 23/71/18 24/72/18
f 19/73/19 17/74/19 21/75/19 23/76/19
f 22/77/20 18/78/20 20/79/20 24/80/20
f 26/81/21 25/82/21 27/83/21 28/84/21
f 31/85/22 29/86/22 30/87/22 32/88/22
f 29/89/23 25/90/23 26/91/23 30/92/23
f 28/93/24 27/94/24 31/95/24 32/96/24
f 27/97/25 25/98/25 29/99/25 31/100/25
f 30/101/26 26/102/26 28/103/26 32/104/26
f 34/105/27 33/106/27 35/107/27 36/108/27
f 39/109/28 37/110/28 38/111/28 40/112/28
f 37/113/29 33/114/29 34/115/29 38/116/29
f 36/117/30 35/118/30 39/119/30 40/120/30
f 35/121/31 33/122/31 37/123/31 39/124/31
f 38/125/32 34/126/32 36/127/32 40/128/32
f 42/129/33 41/130/33 43/131/33 44/132/33
f 47/133/34 45/134/34 46/135/34 48/136/34
f 45/137/35 41/138/35 42/139/35 46/140/35
f 44/141/36 43/142/36 47/143/36 48/144/36
f 43/145/37 41/146/37 45/147/37 47/148/37
f 46/149/38 42/150/38 44/151/38 48/152/38
f 51/153/39 57/154/39 60/155/39 49/156/39
f 53/157/40 59/158/40 58/159/40 55/160/40
f 49/161/41 60/162/41 59/163/41 53/164/41
f 65/165/42 62/166/42 61/167/42 66/168/42
f 51/169/43 49/170/43 53/171/43 55/172/43
f 54/173/44 50/174/44 52/175/44 56/176/44
f 52/177/45 57/178/45 58/179/45 56/180/45
f 56/181/46 58/182/46 59/183/46 54/184/46
f 54/185/47 59/186/47 60/187/47 50/188/47
f 50/189/48 60/190/48 57/191/48 52/192/48
f 62/193/49 65/194/49 55/195/49 58/196/49
f 61/197/50 62/198/50 58/199/50 57/200/50
f 66/201/51 61/202/51 57/203/51 51/204/51
f 65/205/52 66/206/52 51/207/52 55/208/52