# Made in Blockbench 5.0.5
mtllib tower.mtl

o cylinder
v -0.18301270189221933 0 -0.1830127018922194
v -0.140625 0.7812500000000001 -0.0376803551856266
v -8.326672684688675e-18 0 -8.326672684688675e-18
v 0.06698729810778066 0 0.25
v 0.03349364905389033 0.75 0.125
v 0.1830127018922193 0 0.18301270189221935
v 0.09150635094610965 0.75 0.09150635094610966
v 0.25 0 0.06698729810778066
v 0.125 0.75 0.03349364905389033
v 0.25 0 -0.0669872981077807
v 0.125 0.75 -0.03349364905389035
v 0.18301270189221935 0 -0.18301270189221933
v 0.09150635094610966 0.75 -0.09150635094610966
v 0.06698729810778074 0 -0.25
v 0.033493649053890365 0.75 -0.125
v -0.06698729810778058 0 -0.25
v -0.03349364905389028 0.75 -0.125
v -0.09150635094610966 0.75 -0.0915063509461097
v -0.25 0 -0.06698729810778063
v -0.125 0.75 -0.03349364905389031
v -0.25 0 0.06698729810778055
v -0.125 0.75 0.033493649053890275
v -0.1830127018922194 0 0.1830127018922193
v -0.0915063509461097 0.75 0.09150635094610965
v -0.06698729810778066 0 0.25
v -0.03349364905389033 0.75 0.125
v 0.05024047358083554 0.7812500000000001 -0.1875
v -0.05024047358083543 0.7812500000000001 -0.1875
v -0.1372595264191645 0.7812500000000001 -0.13725952641916456
v -0.1875 0.7812500000000001 -0.05024047358083547
v -0.1875 0.7812500000000001 0.05024047358083541
v -0.13725952641916456 0.7812500000000001 0.13725952641916447
v -0.0502404735808355 0.7812500000000001 0.1875
v 0.05024047358083549 0.7812500000000001 0.1875
v 0.13725952641916447 0.7812500000000001 0.1372595264191645
v 0.1875 0.7812500000000001 0.05024047358083549
v 0.1875 0.7812500000000001 -0.050240473580835526
v 0.1372595264191645 0.7812500000000001 -0.1372595264191645
v 0.03768035518562665 0.7812500000000001 -0.140625
v -0.037680355185626575 0.7812500000000001 -0.140625
v -8.326672684688675e-18 0.7812500000000001 -8.326672684688675e-18
v -0.10294464481437338 0.7812500000000001 -0.10294464481437342
v -0.140625 0.7812500000000001 0.037680355185626555
v -0.10294464481437342 0.7812500000000001 0.10294464481437335
v -0.037680355185626624 0.7812500000000001 0.140625
v 0.03768035518562662 0.7812500000000001 0.140625
v 0.10294464481437335 0.7812500000000001 0.10294464481437338
v 0.140625 0.7812500000000001 0.03768035518562662
v 0.140625 0.7812500000000001 -0.037680355185626645
v 0.10294464481437338 0.7812500000000001 -0.10294464481437338
v -0.140625 0.875 0.037680355185626555
v -0.140625 0.875 -0.0376803551856266
v -0.1875 0.875 -0.05024047358083547
v -0.1875 0.875 0.05024047358083541
v -0.10294464481437342 0.875 0.10294464481437335
v -0.13725952641916456 0.875 0.13725952641916447
v -0.037680355185626624 0.875 0.140625
v -0.0502404735808355 0.875 0.1875
v 0.03768035518562662 0.875 0.140625
v 0.05024047358083549 0.875 0.1875
v 0.10294464481437335 0.875 0.10294464481437338
v 0.13725952641916447 0.875 0.1372595264191645
v 0.140625 0.875 0.03768035518562662
v 0.1875 0.875 0.05024047358083549
v 0.140625 0.875 -0.037680355185626645
v 0.1875 0.875 -0.050240473580835526
v 0.10294464481437338 0.875 -0.10294464481437338
v 0.1372595264191645 0.875 -0.1372595264191645
v 0.03768035518562665 0.875 -0.140625
v 0.05024047358083554 0.875 -0.1875
v -0.037680355185626575 0.875 -0.140625
v -0.05024047358083543 0.875 -0.1875
v -0.10294464481437338 0.875 -0.10294464481437342
v -0.1372595264191645 0.875 -0.13725952641916456
v -0.05024047358083543 0.828125 -0.1875
v -0.1372595264191645 0.828125 -0.13725952641916456
v -0.1875 0.828125 -0.05024047358083547
v -0.1875 0.828125 0.05024047358083541
v -0.13725952641916456 0.828125 0.13725952641916447
v -0.0502404735808355 0.828125 0.1875
v 0.05024047358083549 0.828125 0.1875
v 0.13725952641916447 0.828125 0.1372595264191645
v 0.1875 0.828125 0.05024047358083549
v 0.1875 0.828125 -0.050240473580835526
v 0.1372595264191645 0.828125 -0.1372595264191645
v 0.05024047358083554 0.828125 -0.1875
v 0.03768035518562662 0.828125 0.140625
v -0.037680355185626624 0.828125 0.140625
v -0.10294464481437342 0.828125 0.10294464481437335
v -0.140625 0.828125 0.037680355185626555
v -0.140625 0.828125 -0.0376803551856266
v -0.10294464481437338 0.828125 -0.10294464481437342
v -0.037680355185626575 0.828125 -0.140625
v 0.03768035518562665 0.828125 -0.140625
v 0.10294464481437338 0.828125 -0.10294464481437338
v 0.140625 0.828125 -0.037680355185626645
v 0.140625 0.828125 0.03768035518562662
v 0.10294464481437335 0.828125 0.10294464481437338
vt 0.71650625 0.96650625
vt 0.65849375 1
vt 0.625 0.875
vt 0.39286875 0.616882987036232
vt 0.45959677863675424 0.6227732629637679
vt 0.40948588931837715 1
vt 0.376121875 0.9970548620362321
vt 0.5969656249999999 0.296875
vt 0.6295968750000001 0.31571562499999994
vt 0.578125 0.3671875
vt 0.75 0.90849375
vt 0.71650625 0.96650625
vt 0.625 0.875
vt 0.009153221363245756 0.1852732629637679
vt 0.07588125 0.179382987036232
vt 0.09262812499999999 0.5595548620362321
vt 0.059264110681622885 0.5625
vt 0.6295968750000001 0.31571562499999994
vt 0.6484375 0.34834687500000006
vt 0.578125 0.3671875
vt 0.75 0.84150625
vt 0.75 0.90849375
vt 0.625 0.875
vt 0.07588125 0.179382987036232
vt 0.14286875 0.179382987036232
vt 0.126121875 0.5595548620362321
vt 0.092628125 0.5595548620362321
vt 0.6484375 0.34834687500000006
vt 0.6484375 0.38602812499999994
vt 0.578125 0.3671875
vt 0.71650625 0.78349375
vt 0.75 0.84150625
vt 0.625 0.875
vt 0.14286875 0.179382987036232
vt 0.20959677863675424 0.1852732629637679
vt 0.15948588931837712 0.5625
vt 0.126121875 0.5595548620362321
vt 0.6484375 0.38602812499999994
vt 0.6295968750000001 0.41865937500000006
vt 0.578125 0.3671875
vt 0.65849375 0.75
vt 0.71650625 0.78349375
vt 0.625 0.875
vt 0.009153221363245756 0.6227732629637679
vt 0.07588125 0.616882987036232
vt 0.09262812499999999 0.9970548620362321
vt 0.059264110681622885 1
vt 0.6295968750000001 0.41865937500000006
vt 0.5969656249999999 0.4375
vt 0.578125 0.3671875
vt 0.59150625 0.75
vt 0.65849375 0.75
vt 0.625 0.875
vt 0.07588125 0.616882987036232
vt 0.14286875 0.616882987036232
vt 0.126121875 0.9970548620362321
vt 0.092628125 0.9970548620362321
vt 0.5969656249999999 0.4375
vt 0.5592843750000001 0.4375
vt 0.578125 0.3671875
vt 0.53349375 0.78349375
vt 0.59150625 0.75
vt 0.625 0.875
vt 0.14286875 0.616882987036232
vt 0.20959677863675424 0.6227732629637679
vt 0.15948588931837712 1
vt 0.126121875 0.9970548620362321
vt 0.5592843750000001 0.4375
vt 0.5266531249999999 0.41865937500000006
vt 0.578125 0.3671875
vt 0.5 0.84150625
vt 0.53349375 0.78349375
vt 0.625 0.875
vt 0.25915322136324576 0.1852732629637679
vt 0.32588125 0.179382987036232
vt 0.342628125 0.5595548620362321
vt 0.3092641106816229 0.5625
vt 0.5266531249999999 0.41865937500000006
vt 0.5078125 0.38602812499999994
vt 0.578125 0.3671875
vt 0.5 0.90849375
vt 0.5 0.84150625
vt 0.625 0.875
vt 0.32588125 0.179382987036232
vt 0.39286875 0.179382987036232
vt 0.376121875 0.5595548620362321
vt 0.342628125 0.5595548620362321
vt 0.5078125 0.38602812499999994
vt 0.5078125 0.34834687500000006
vt 0.578125 0.3671875
vt 0.53349375 0.96650625
vt 0.5 0.90849375
vt 0.625 0.875
vt 0.39286875 0.179382987036232
vt 0.45959677863675424 0.1852732629637679
vt 0.40948588931837715 0.5625
vt 0.376121875 0.5595548620362321
vt 0.5078125 0.34834687500000006
vt 0.5266531249999999 0.31571562499999994
vt 0.578125 0.3671875
vt 0.59150625 1
vt 0.53349375 0.96650625
vt 0.625 0.875
vt 0.25915322136324576 0.6227732629637679
vt 0.32588125 0.616882987036232
vt 0.342628125 0.9970548620362321
vt 0.3092641106816229 1
vt 0.5266531249999999 0.31571562499999994
vt 0.5592843750000001 0.296875
vt 0.578125 0.3671875
vt 0.65849375 1
vt 0.59150625 1
vt 0.625 0.875
vt 0.32588125 0.616882987036232
vt 0.39286875 0.616882987036232
vt 0.376121875 0.9970548620362321
vt 0.342628125 0.9970548620362321
vt 0.5592843750000001 0.296875
vt 0.5969656249999999 0.296875
vt 0.578125 0.3671875
vt 0.63449375 0.7021811397403319
vt 0.58425625 0.7021811397403319
vt 0.5926281250000001 0.667240514740332
vt 0.6261218749999999 0.667240514740332
vt 0.6792761976929363 0.6794140849268648
vt 0.63449375 0.7021811397403319
vt 0.6261218749999999 0.667240514740332
vt 0.6559786972426531 0.652061534055414
vt 0.7088781650776821 0.6388243087116348
vt 0.6792761976929363 0.6794140849268648
vt 0.6559786972426531 0.652061534055414
vt 0.6757145697500994 0.625
vt 0.4786218349223179 0.5183475943122469
vt 0.47062902285848357 0.46875
vt 0.5064565574146073 0.4714561659291352
vt 0.5117854302499006 0.5045232856006121
vt 0.5082238023070637 0.5589373705274768
vt 0.4786218349223179 0.5183475943122469
vt 0.5117854302499006 0.5045232856006121
vt 0.5315213027573469 0.531584819656026
vt 0.55300625 0.581704425340944
vt 0.5082238023070637 0.5589373705274768
vt 0.5315213027573469 0.531584819656026
vt 0.5613781250000001 0.5467638003409441
vt 0.60324375 0.581704425340944
vt 0.55300625 0.581704425340944
vt 0.5613781250000001 0.5467638003409441
vt 0.5948718749999999 0.5467638003409441
vt 0.6480261976929363 0.5589373705274768
vt 0.60324375 0.581704425340944
vt 0.5948718749999999 0.5467638003409441
vt 0.6247286972426531 0.531584819656026
vt 0.6776281650776821 0.5183475943122469
vt 0.6480261976929363 0.5589373705274768
vt 0.6247286972426531 0.531584819656026
vt 0.6444645697500994 0.5045232856006121
vt 0.6856209771415165 0.46875
vt 0.6776281650776821 0.5183475943122469
vt 0.6444645697500994 0.5045232856006121
vt 0.6497934425853927 0.4714561659291352
vt 0.5394738023070637 0.6794140849268648
vt 0.5098718349223179 0.6388243087116348
vt 0.5430354302499006 0.625
vt 0.5627713027573469 0.652061534055414
vt 0.58425625 0.7021811397403319
vt 0.5394738023070637 0.6794140849268648
vt 0.5627713027573469 0.652061534055414
vt 0.5926281250000001 0.667240514740332
vt 0.5813406249999999 0.2265625
vt 0.5813406249999999 0.25
vt 0.5436593750000001 0.25
vt 0.5436593750000001 0.2265625
vt 0.82199375 0.4765625
vt 0.82199375 0.5
vt 0.77175625 0.5
vt 0.77175625 0.4765625
vt 0.5436593750000001 0.2265625
vt 0.5436593750000001 0.25
vt 0.505978125 0.25
vt 0.505978125 0.2265625
vt 0.87223125 0.4765625
vt 0.87223125 0.5
vt 0.82199375 0.5
vt 0.82199375 0.4765625
vt 0.837771875 0.546875
vt 0.837771875 0.5703125
vt 0.8000906249999999 0.5703125
vt 0.8000906249999999 0.546875
vt 0.74050625 0.390625
vt 0.74050625 0.4140625
vt 0.69026875 0.4140625
vt 0.69026875 0.390625
vt 0.8000906249999999 0.546875
vt 0.8000906249999999 0.5703125
vt 0.7624093750000001 0.5703125
vt 0.7624093750000001 0.546875
vt 0.79074375 0.390625
vt 0.79074375 0.4140625
vt 0.74050625 0.4140625
vt 0.74050625 0.390625
vt 0.7624093750000001 0.546875
vt 0.7624093750000001 0.5703125
vt 0.724728125 0.5703125
vt 0.724728125 0.546875
vt 0.84098125 0.390625
vt 0.84098125 0.4140625
vt 0.79074375 0.4140625
vt 0.79074375 0.390625
vt 0.775271875 0.2265625
vt 0.775271875 0.25
vt 0.7375906249999999 0.25
vt 0.7375906249999999 0.2265625
vt 0.80300625 0.6328125
vt 0.80300625 0.65625
vt 0.75276875 0.65625
vt 0.75276875 0.6328125
vt 0.7375906249999999 0.2265625
vt 0.7375906249999999 0.25
vt 0.6999093750000001 0.25
vt 0.6999093750000001 0.2265625
vt 0.85324375 0.6328125
vt 0.85324375 0.65625
vt 0.80300625 0.65625
vt 0.80300625 0.6328125
vt 0.6999093750000001 0.2265625
vt 0.6999093750000001 0.25
vt 0.662228125 0.25
vt 0.662228125 0.2265625
vt 0.90348125 0.6328125
vt 0.90348125 0.65625
vt 0.85324375 0.65625
vt 0.85324375 0.6328125
vt 0.869021875 0.703125
vt 0.869021875 0.7265625
vt 0.8313406249999999 0.7265625
vt 0.8313406249999999 0.703125
vt 0.74050625 0.296875
vt 0.74050625 0.3203125
vt 0.69026875 0.3203125
vt 0.69026875 0.296875
vt 0.8313406249999999 0.703125
vt 0.8313406249999999 0.7265625
vt 0.7936593750000001 0.7265625
vt 0.7936593750000001 0.703125
vt 0.79074375 0.296875
vt 0.79074375 0.3203125
vt 0.74050625 0.3203125
vt 0.74050625 0.296875
vt 0.7936593750000001 0.703125
vt 0.7936593750000001 0.7265625
vt 0.755978125 0.7265625
vt 0.755978125 0.703125
vt 0.84098125 0.296875
vt 0.84098125 0.3203125
vt 0.79074375 0.3203125
vt 0.79074375 0.296875
vt 0.619021875 0.2265625
vt 0.619021875 0.25
vt 0.5813406249999999 0.25
vt 0.5813406249999999 0.2265625
vt 0.77175625 0.4765625
vt 0.77175625 0.5
vt 0.72151875 0.5
vt 0.72151875 0.4765625
vt 0.7936590951430146 0.78125
vt 0.8313388991095048 0.78125
vt 0.8376211526541827 0.8125
vt 0.7873788473458173 0.8125
vt 0.21875 0.5562177464553222
vt 0.21875 0.518537942488832
vt 0.25 0.5122576946916347
vt 0.25 0.5625
vt 0.6875 0.18122187499999998
vt 0.6875 0.14354062499999998
vt 0.71875 0.13726249999999995
vt 0.71875 0.1875
vt 0.78125 0.14354062499999998
vt 0.78125 0.18122187499999998
vt 0.75 0.1875
vt 0.75 0.13726249999999995
vt 0.25 0.42478994823631266
vt 0.25 0.46246975220280273
vt 0.21875 0.46875
vt 0.21875 0.41850769469163474
vt 0.5500909048569853 0.1875
vt 0.5124111008904952 0.1875
vt 0.5061288473458173 0.15625
vt 0.5563711526541827 0.15625
vt 0.79074375 0.34375
vt 0.79074375 0.3203125
vt 0.84098125 0.3203125
vt 0.84098125 0.34375
vt 0.78125 1
vt 0.78125 0.96875
vt 0.84375 0.96875
vt 0.84375 1
vt 0.69026875 0.4375
vt 0.69026875 0.4140625
vt 0.74050625 0.4140625
vt 0.74050625 0.4375
vt 0.79074375 0.4375
vt 0.79074375 0.4140625
vt 0.84098125 0.4140625
vt 0.84098125 0.4375
vt 0.78125 0.9375
vt 0.78125 0.90625
vt 0.84375 0.90625
vt 0.84375 0.9375
vt 0.69026875 0.34375
vt 0.69026875 0.3203125
vt 0.74050625 0.3203125
vt 0.74050625 0.34375
vt 0.8000906249999999 0.59375
vt 0.8000906249999999 0.5703125
vt 0.837771875 0.5703125
vt 0.837771875 0.59375
vt 0 0.125
vt 0 0.09375
vt 0.03125 0.09375
vt 0.03125 0.125
vt 0.755978125 0.75
vt 0.755978125 0.7265625
vt 0.7936593750000001 0.7265625
vt 0.7936593750000001 0.75
vt 0.8313406249999999 0.75
vt 0.8313406249999999 0.7265625
vt 0.869021875 0.7265625
vt 0.869021875 0.75
vt 0.875 1
vt 0.875 0.96875
vt 0.90625 0.96875
vt 0.90625 1
vt 0.724728125 0.59375
vt 0.724728125 0.5703125
vt 0.7624093750000001 0.5703125
vt 0.7624093750000001 0.59375
vt 0.1875 0.09375
vt 0.21875 0.09375
vt 0.21875 0.125
vt 0.1875 0.125
vt 0.25 0.862287942488832
vt 0.25 0.8999677464553221
vt 0.21875 0.90625
vt 0.21875 0.8560076946916347
vt 0.90625 0.59375
vt 0.875 0.59375
vt 0.875 0.5625
vt 0.90625 0.5625
vt 0.875 0.90625
vt 0.90625 0.90625
vt 0.90625 0.9375
vt 0.875 0.9375
vt 0.81863125 0.21875
vt 0.86886875 0.21875
vt 0.8625906249999999 0.25
vt 0.8249093750000001 0.25
vt 0.15625 0.09375
vt 0.15625 0.125
vt 0.125 0.125
vt 0.125 0.09375
vt 0.4375 0.09375
vt 0.46875 0.09375
vt 0.46875 0.125
vt 0.4375 0.125
vt 0.6501211526541827 0.15625
vt 0.6438388991095048 0.1875
vt 0.6061590951430146 0.1875
vt 0.5998788473458173 0.15625
vt 0.25 0.125
vt 0.25 0.09375
vt 0.28125 0.09375
vt 0.28125 0.125
vt 0.34375 0.125
vt 0.3125 0.125
vt 0.3125 0.09375
vt 0.34375 0.09375
vt 0.21875 0.9560381346241669
vt 0.25 0.9497576945412285
vt 0.25 1
vt 0.21875 0.993717938477858
vt 0.53125 0.09375
vt 0.53125 0.125
vt 0.5 0.125
vt 0.5 0.09375
vt 0.90625 0.875
vt 0.875 0.875
vt 0.875 0.84375
vt 0.90625 0.84375
vt 0.8625906249999999 0.15625
vt 0.86886875 0.1875
vt 0.81863125 0.1875
vt 0.8249093750000001 0.15625
vt 0.0625 0.125
vt 0.0625 0.09375
vt 0.09375 0.09375
vt 0.09375 0.125
vt 0.40625 0.125
vt 0.375 0.125
vt 0.375 0.09375
vt 0.40625 0.09375
vt 0.8376211527293858 0.875
vt 0.7873788472706142 0.875
vt 0.7936592873535526 0.84375
vt 0.8313390912072438 0.84375
vt 0.90625 0.78125
vt 0.90625 0.8125
vt 0.875 0.8125
vt 0.875 0.78125
vn 0 -1 0
vn 0.49319696191607176 0.16439898730535732 0.8542421961772492
vn 0 1 0
vn 0 -1 0
vn 0.8542421961772492 0.1643989873053573 0.4931969619160719
vn 0 1 0
vn 0 -1 0
vn 0.9863939238321437 0.1643989873053573 0
vn 0 1 0
vn 0 -1 0
vn 0.8542421961772492 0.16439898730535735 -0.49319696191607176
vn 0 1 0
vn 0 -1 0
vn 0.493196961916072 0.16439898730535732 -0.8542421961772491
vn 0 1 0
vn 0 -1 0
vn 0 0.1643989873053573 -0.9863939238321437
vn 0 1 0
vn 0 -1 0
vn -0.4931969619160712 0.16439898730535732 -0.8542421961772497
vn 0 1 0
vn 0 -1 0
vn -0.8542421961772494 0.16439898730535732 -0.49319696191607143
vn 0 1 0
vn 0 -1 0
vn -0.9863939238321439 0.1643989873053573 0
vn 0 1 0
vn 0 -1 0
vn -0.8542421961772497 0.1643989873053573 0.4931969619160712
vn 0 1 0
vn 0 -1 0
vn -0.4931969619160717 0.1643989873053573 0.8542421961772492
vn 0 1 0
vn 0 -1 0
vn 0 0.1643989873053573 0.9863939238321437
vn 0 1 0
vn 0 -0.8944271909999154 -0.4472135954999593
vn -0.22360679774997927 -0.8944271909999154 -0.3872983346207431
vn -0.38729833462074287 -0.8944271909999153 -0.22360679774997938
vn -0.4472135954999593 -0.8944271909999154 0
vn -0.38729833462074303 -0.8944271909999154 0.2236067977499793
vn -0.2236067977499795 -0.8944271909999153 0.38729833462074276
vn 0 -0.8944271909999153 0.44721359549995926
vn 0.2236067977499796 -0.8944271909999153 0.38729833462074276
vn 0.3872983346207429 -0.8944271909999154 0.2236067977499797
vn 0.4472135954999593 -0.8944271909999154 0
vn 0.38729833462074276 -0.8944271909999153 -0.2236067977499796
vn 0.22360679774997963 -0.8944271909999153 -0.38729833462074276
vn 1 0 0
vn -1 0 0
vn 0.8660254037844392 0 -0.4999999999999992
vn -0.8660254037844392 0 0.49999999999999917
vn 0.49999999999999994 0 -0.8660254037844388
vn -0.49999999999999983 0 0.8660254037844388
vn 0 0 -1
vn 0 0 1
vn -0.5000000000000001 0 -0.8660254037844388
vn 0.5 0 0.8660254037844387
vn -0.8660254037844386 0 -0.5000000000000002
vn 0.8660254037844388 0 0.5000000000000001
vn -1 0 0
vn 1 0 0
vn -0.8660254037844388 0 0.5000000000000001
vn 0.8660254037844387 0 -0.5
vn -0.5000000000000001 0 0.8660254037844388
vn 0.5 0 -0.8660254037844387
vn 0 0 1
vn 0 0 -1
vn 0.49999999999999917 0 0.8660254037844392
vn -0.49999999999999917 0 -0.8660254037844393
vn 0.8660254037844389 0 0.49999999999999956
vn -0.8660254037844389 0 -0.49999999999999956
vn 0 1 0
vn 0 1 0
vn 0 1 0
vn 0 1 0
vn 0 1 0
vn 0 1 0
vn -0.49999999999999917 0 -0.8660254037844393
vn -1 0 0
vn -0.49999999999999983 0 0.8660254037844387
vn 0.5000000000000001 0 0.8660254037844388
vn 1 0 0
vn 0.5000000000000001 0 -0.8660254037844388
vn 0.49999999999999994 0 -0.8660254037844387
vn 1 0 0
vn 0.49999999999999917 0 0.8660254037844392
vn -0.5000000000000001 0 0.8660254037844387
vn -1 0 0
vn -0.5000000000000001 0 -0.8660254037844387
vn 0.2588190451025203 0 0.9659258262890684
vn 0 1 0
vn -0.7071067811865474 0 -0.7071067811865477
vn 0.9659258262890684 0 0.25881904510252074
vn 0 1 0
vn -0.9659258262890684 0 0.25881904510252074
vn 0.7071067811865476 0 -0.7071067811865476
vn 0 1 0
vn -0.25881904510252074 0 0.9659258262890684
vn -0.25881904510252085 0 -0.9659258262890682
vn 0 1 0
vn 0.7071067811865476 0 0.7071067811865476
vn -0.9659258262890682 0 -0.25881904510252096
vn 0 1 0
vn 0.9659258262890684 0 -0.2588190451025203
vn -0.7071067811865477 0 0.7071067811865474
vn 0 1 0
vn 0.2588190451025206 0 -0.9659258262890684
usemtl m_9a205e4e-6ffa-e182-63ce-8d775290225c
f 6/1/1 4/2/1 3/3/1
f 4/4/2 6/5/2 7/6/2 5/7/2
f 46/8/3 47/9/3 41/10/3
f 8/11/4 6/12/4 3/13/4
f 6/14/5 8/15/5 9/16/5 7/17/5
f 47/18/6 48/19/6 41/20/6
f 10/21/7 8/22/7 3/23/7
f 8/24/8 10/25/8 11/26/8 9/27/8
f 48/28/9 49/29/9 41/30/9
f 12/31/10 10/32/10 3/33/10
f 10/34/11 12/35/11 13/36/11 11/37/11
f 49/38/12 50/39/12 41/40/12
f 14/41/13 12/42/13 3/43/13
f 12/44/14 14/45/14 15/46/14 13/47/14
f 50/48/15 39/49/15 41/50/15
f 16/51/16 14/52/16 3/53/16
f 14/54/17 16/55/17 17/56/17 15/57/17
f 39/58/18 40/59/18 41/60/18
f 1/61/19 16/62/19 3/63/19
f 16/64/20 1/65/20 18/66/20 17/67/20
f 40/68/21 42/69/21 41/70/21
f 19/71/22 1/72/22 3/73/22
f 1/74/23 19/75/23 20/76/23 18/77/23
f 42/78/24 2/79/24 41/80/24
f 21/81/25 19/82/25 3/83/25
f 19/84/26 21/85/26 22/86/26 20/87/26
f 2/88/27 43/89/27 41/90/27
f 23/91/28 21/92/28 3/93/28
f 21/94/29 23/95/29 24/96/29 22/97/29
f 43/98/30 44/99/30 41/100/30
f 25/101/31 23/102/31 3/103/31
f 23/104/32 25/105/32 26/106/32 24/107/32
f 44/108/33 45/109/33 41/110/33
f 4/111/34 25/112/34 3/113/34
f 25/114/35 4/115/35 5/116/35 26/117/35
f 45/118/36 46/119/36 41/120/36
f 28/121/37 27/122/37 15/123/37 17/124/37
f 29/125/38 28/126/38 17/127/38 18/128/38
f 30/129/39 29/130/39 18/131/39 20/132/39
f 31/133/40 30/134/40 20/135/40 22/136/40
f 32/137/41 31/138/41 22/139/41 24/140/41
f 33/141/42 32/142/42 24/143/42 26/144/42
f 34/145/43 33/146/43 26/147/43 5/148/43
f 35/149/44 34/150/44 5/151/44 7/152/44
f 36/153/45 35/154/45 7/155/45 9/156/45
f 37/157/46 36/158/46 9/159/46 11/160/46
f 38/161/47 37/162/47 11/163/47 13/164/47
f 27/165/48 38/166/48 13/167/48 15/168/48
f 2/169/49 91/170/49 90/171/49 43/172/49
f 31/173/50 78/174/50 77/175/50 30/176/50
f 43/177/51 90/178/51 89/179/51 44/180/51
f 32/181/52 79/182/52 78/183/52 31/184/52
f 44/185/53 89/186/53 88/187/53 45/188/53
f 33/189/54 80/190/54 79/191/54 32/192/54
f 45/193/55 88/194/55 87/195/55 46/196/55
f 34/197/56 81/198/56 80/199/56 33/200/56
f 46/201/57 87/202/57 98/203/57 47/204/57
f 35/205/58 82/206/58 81/207/58 34/208/58
f 47/209/59 98/210/59 97/211/59 48/212/59
f 36/213/60 83/214/60 82/215/60 35/216/60
f 48/217/61 97/218/61 96/219/61 49/220/61
f 37/221/62 84/222/62 83/223/62 36/224/62
f 49/225/63 96/226/63 95/227/63 50/228/63
f 38/229/64 85/230/64 84/231/64 37/232/64
f 50/233/65 95/234/65 94/235/65 39/236/65
f 27/237/66 86/238/66 85/239/66 38/240/66
f 39/241/67 94/242/67 93/243/67 40/244/67
f 28/245/68 75/246/68 86/247/68 27/248/68
f 40/249/69 93/250/69 92/251/69 42/252/69
f 29/253/70 76/254/70 75/255/70 28/256/70
f 42/257/71 92/258/71 91/259/71 2/260/71
f 30/261/72 77/262/72 76/263/72 29/264/72
f 73/265/73 71/266/73 72/267/73 74/268/73
f 69/269/74 67/270/74 68/271/74 70/272/74
f 65/273/75 63/274/75 64/275/75 66/276/75
f 51/277/76 52/278/76 53/279/76 54/280/76
f 57/281/77 55/282/77 56/283/77 58/284/77
f 61/285/78 59/286/78 60/287/78 62/288/78
f 72/289/79 75/290/79 76/291/79 74/292/79
f 53/293/80 77/294/80 78/295/80 54/296/80
f 56/297/81 79/298/81 80/299/81 58/300/81
f 60/301/82 81/302/82 82/303/82 62/304/82
f 64/305/83 83/306/83 84/307/83 66/308/83
f 68/309/84 85/310/84 86/311/84 70/312/84
f 57/313/85 88/314/85 89/315/85 55/316/85
f 51/317/86 90/318/86 91/319/86 52/320/86
f 73/321/87 92/322/87 93/323/87 71/324/87
f 69/325/88 94/326/88 95/327/88 67/328/88
f 65/329/89 96/330/89 97/331/89 63/332/89
f 61/333/90 98/334/90 87/335/90 59/336/90
f 78/337/91 90/338/91 51/339/91 54/340/91
f 89/341/92 90/342/92 78/343/92 79/344/92
f 56/345/93 55/346/93 89/347/93 79/348/93
f 80/349/94 88/350/94 57/351/94 58/352/94
f 80/353/95 81/354/95 87/355/95 88/356/95
f 81/357/96 60/358/96 59/359/96 87/360/96
f 82/361/97 98/362/97 61/363/97 62/364/97
f 83/365/98 97/366/98 98/367/98 82/368/98
f 63/369/99 97/370/99 83/371/99 64/372/99
f 65/373/100 66/374/100 84/375/100 96/376/100
f 96/377/101 84/378/101 85/379/101 95/380/101
f 85/381/102 68/382/102 67/383/102 95/384/102
f 69/385/103 70/386/103 86/387/103 94/388/103
f 94/389/104 86/390/104 75/391/104 93/392/104
f 71/393/105 93/394/105 75/395/105 72/396/105
f 73/397/106 74/398/106 76/399/106 92/400/106
f 76/401/107 77/402/107 91/403/107 92/404/107
f 77/405/108 53/406/108 52/407/108 91/408/108