# Blender 4.5.4 LTS
# www.blender.org
mtllib d20.mtl
o Solid
v 0.850651 0.000000 -0.525731
v -0.850651 0.000000 -0.525731
v 0.850651 0.000000 0.525731
v -0.850651 0.000000 0.525731
v 0.525731 0.850651 0.000000
v 0.525731 -0.850651 0.000000
v -0.525731 0.850651 0.000000
v -0.525731 -0.850651 0.000000
v 0.000000 0.525731 -0.850651
v 0.000000 0.525731 0.850651
v 0.000000 -0.525731 -0.850651
v 0.000000 -0.525731 0.850651
vn 0.5774 0.5774 -0.5774
vn 0.5774 -0.5774 -0.5774
vn 0.5774 0.5774 0.5774
vn 0.5774 -0.5774 0.5774
vn -0.5774 0.5774 -0.5774
vn -0.5774 -0.5774 -0.5774
vn -0.5774 0.5774 0.5774
vn -0.5774 -0.5774 0.5774
vn 0.3568 -0.0000 -0.9342
vn -0.3568 -0.0000 -0.9342
vn 0.3568 -0.0000 0.9342
vn -0.3568 -0.0000 0.9342
vn 0.9342 0.3568 -0.0000
vn 0.9342 -0.3568 -0.0000
vn -0.9342 0.3568 -0.0000
vn -0.9342 -0.3568 -0.0000
vn -0.0000 0.9342 -0.3568
vn -0.0000 0.9342 0.3568
vn -0.0000 -0.9342 -0.3568
vn -0.0000 -0.9342 0.3568
vt 0.000402 0.000402
vt 0.142455 0.142455
vt 0.000402 0.284509
vt 0.143259 0.000402
vt 0.285313 0.142455
vt 0.143259 0.284509
vt 0.286116 0.000402
vt 0.428170 0.142455
vt 0.286116 0.284509
vt 0.000402 0.285312
vt 0.142455 0.427366
vt 0.000402 0.569420
vt 0.143259 0.285312
vt 0.285313 0.427366
vt 0.143259 0.569420
vt 0.286116 0.285312
vt 0.428170 0.427366
vt 0.286116 0.569420
vt 0.428973 0.000402
vt 0.571027 0.142455
vt 0.428973 0.284509
vt 0.428973 0.285312
vt 0.571027 0.427366
vt 0.428973 0.569420
vt 0.571830 0.000402
vt 0.713884 0.142455
vt 0.571830 0.284509
vt 0.571830 0.285313
vt 0.713884 0.427366
vt 0.571830 0.569420
vt 0.000402 0.570223
vt 0.142455 0.712277
vt 0.000402 0.854330
vt 0.143259 0.570223
vt 0.285313 0.712277
vt 0.143259 0.854330
vt 0.286116 0.570223
vt 0.428170 0.712277
vt 0.286116 0.854330
vt 0.428973 0.570223
vt 0.571027 0.712277
vt 0.428973 0.854330
vt 0.571830 0.570223
vt 0.713884 0.712277
vt 0.571830 0.854330
vt 0.714688 0.000402
vt 0.856741 0.142455
vt 0.714688 0.284509
vt 0.714688 0.285312
vt 0.856741 0.427366
vt 0.714688 0.569420
vt 0.714688 0.570223
vt 0.856741 0.712277
vt 0.714688 0.854330
vt 0.857545 0.000402
vt 0.999598 0.142455
vt 0.857545 0.284509
vt 0.857545 0.285312
vt 0.999598 0.427366
vt 0.857545 0.569420
s 0
usemtl Material
f 1/1/1 9/2/1 5/3/1
f 1/4/2 6/5/2 11/6/2
f 3/7/3 5/8/3 10/9/3
f 3/10/4 12/11/4 6/12/4
f 2/13/5 7/14/5 9/15/5
f 2/16/6 11/17/6 8/18/6
f 4/19/7 10/20/7 7/21/7
f 4/22/8 8/23/8 12/24/8
f 1/25/9 11/26/9 9/27/9
f 2/28/10 9/29/10 11/30/10
f 3/31/11 10/32/11 12/33/11
f 4/34/12 12/35/12 10/36/12
f 5/37/13 3/38/13 1/39/13
f 6/40/14 1/41/14 3/42/14
f 7/43/15 2/44/15 4/45/15
f 8/46/16 4/47/16 2/48/16
f 9/49/17 7/50/17 5/51/17
f 10/52/18 5/53/18 7/54/18
f 11/55/19 6/56/19 8/57/19
f 12/58/20 8/59/20 6/60/20
