# Made in Blockbench 4.11.1
mtllib axolotl.mtl

o cuboid
v 0.03815125461161335 0.45702158730075015 0.18750292215887646
v 0.030067830487987363 0.47919061029149723 0.1250023924135462
v 0.030067830487987363 0.18176195562780934 0.18750336349493937
v 0.030067830487987363 0.18176195562780934 0.1250023924135462
v -0.03414908830838126 0.45702158730075015 0.18750292215887646
v -0.042232512432007235 0.47919061029149723 0.1250023924135462
v -0.042232512432007235 0.18176195562780934 0.18750336349493937
v -0.042232512432007235 0.18176195562780934 0.1250023924135462
v 0.0020010831516160538 0.47354540136611367 0.18750448468314573
v -0.0060823409720099225 0.49571442435686075 0.1250039549378154
v -0.0060823409720099225 0.18176195562780934 0.1250023924135462
v -0.0060823409720099225 0.18176195562780934 0.18750336349493937
v 0.06621800194798466 0.23133339807175735 -0.015624792519588378
v 0.06621800194798466 0.23133339807175735 -0.12500149191202636
v 0.06621800194798466 0 -0.03125003528993666
v 0.06621800194798466 0 -0.12500149191202636
v -0.042232512432007235 0.23133339807175735 -0.015624792519588378
v -0.042232512432007235 0.23133339807175735 -0.12500149191202636
v -0.042232512432007235 0 -0.03125003528993666
v -0.042232512432007235 0 -0.12500149191202636
v 0.06621800194798466 0.23133339807175735 0.10937714964319792
v 0.06621800194798466 0.23133339807175735 4.5025075990710373e-7
v 0.06621800194798466 0 0.10937714964319792
v 0.06621800194798466 0 0.015625693021108195
v -0.042232512432007235 0.23133339807175735 0.10937714964319792
v -0.042232512432007235 0.23133339807175735 4.5025075990710373e-7
v -0.042232512432007235 0 0.10937714964319792
v -0.042232512432007235 0 0.015625693021108195
v -0.04627422449382021 0.45702158730075015 -0.187501721483965
v -0.03819080037019426 0.47919061029149723 -0.12500119173863466
v -0.03819080037019426 0.18176195562780934 -0.1875021628200278
v -0.03819080037019426 0.18176195562780934 -0.12500119173863466
v 0.026026118426174416 0.45702158730075015 -0.187501721483965
v 0.034109542549800365 0.47919061029149723 -0.12500119173863466
v 0.034109542549800365 0.18176195562780934 -0.1875021628200278
v 0.034109542549800365 0.18176195562780934 -0.12500119173863466
v -0.010124053033822938 0.47354540136611367 -0.18750328400823424
v -0.0020406289101969205 0.49571442435686075 -0.1250027542629039
v -0.0020406289101969205 0.18176195562780934 -0.12500119173863466
v -0.0020406289101969205 0.18176195562780934 -0.1875021628200278
v 0.0711890625517608 0.4909798994725375 4.5025075990710373e-7
v 0.11513094232639004 0.7187988234242635 4.5025075990710373e-7
v 0.1608322152241703 0.6770314408280247 0.08839017121555467
v 0.16689202366823996 0.5930042065489982 0.1250023924135462
v 0.129760614057446 0.5159391348191368 0.08839017121555472
v 0.2345642364533348 0.665146285928622 0.036612671448751404
v 0.2711648480717054 0.5761960592993582 0.05177795001756321
v 0.20349263528661055 0.5040539799197343 0.036612671448751404
v 0.2345642364533348 0.665146285928622 -0.036611770947231594
v 0.2711648480717054 0.5761960592993582 -0.051777049516043366
v 0.20349263528661055 0.5040539799197343 -0.036611770947231594
v 0.16083221522417035 0.6770314408280247 -0.08838927071403486
v 0.16689202366823996 0.5930042065489982 -0.12500149191202636
v 0.12976061405744602 0.5159391348191368 -0.08838927071403493
v 0.05655939082070488 0.6938395880776644 -0.08838927071403486
v 0.019427981209910905 0.616774516347803 -0.12500149191202636
v 0.025487789653980547 0.5327472820687766 -0.08838927071403493
v -0.01717263040845969 0.7057247429770668 -0.03661177094723165
v -0.08484484319355451 0.6335826635974429 -0.05177704951604347
v -0.04824423157518401 0.544632436968179 -0.03661177094723165
v -0.01717263040845969 0.7057247429770668 0.036612671448751404
v -0.08484484319355456 0.6335826635974429 0.05177795001756323
v -0.04824423157518401 0.544632436968179 0.03661267144875144
v 0.05655939082070477 0.6938395880776644 0.08839017121555467
v 0.01942798120991074 0.616774516347803 0.12500239241354616
v 0.025487789653980436 0.5327472820687766 0.08839017121555467
v 0.06621800194798466 0.49571442443948 0.1250023924135462
v 0.06621800194798466 0.49571442443948 -0.12500149191202636
v 0.06623206536077395 0.2313333986969458 0.1250023924135462
v 0.06623206536077395 0.2313333986969458 -0.12500149191202636
v -0.06030759897688054 0.495696261975067 0.12500239245352382
v -0.06030759897688054 0.495696261975067 -0.1250014918720488
v -0.04221844992297222 0.23131687488286873 0.1250023924135462
v -0.04221844992297222 0.23131687488286873 -0.12500149191202636
v 0.14361638470620458 0.49571442443948 -0.006067927389423681
v 0.10673804251982758 0.23133150620783288 -0.005187332233525332
v -0.04221844992297222 0.23131687488286873 4.502507599374382e-7
v -0.06030759897688054 0.495696261975067 4.5029073753388536e-7
v 0.09899664332957409 0.6449607968885747 0.17701767009022862
v 0.10032945313197145 0.6170543205243801 0.12037255330180949
v 0.09613842348460988 0.7048064285786263 0.15060361833470448
v 0.09747123328700724 0.6768999522144318 0.0939585015462854
v 0.1101256623822626 0.6175202920156955 -0.1132800219331812
v 0.11145847218466004 0.6454267588216072 -0.16992514293230962
v 0.10726744253729859 0.6774066160889171 -0.08694856839777625
v 0.10860025233969603 0.7053130828948286 -0.1435936893969047
vt 0.1253041581304884 0.28125
vt 0.09375 0.27029059883858786
vt 0.09375 0.125
vt 0.12470026510884803 0.125
vt 0.71875 0.78125
vt 0.8564417612396662 0.78125
vt 0.8674011624010783 0.8125
vt 0.71875 0.8118961069783598
vt 0.7763217194782839 0.5625
vt 0.78125 0.59375
vt 0.7478468947340783 0.59375
vt 0.7429186142123622 0.5625
vt 0.830575 0.500003125
vt 0.8125 0.500003125
vt 0.8125 0.46875
vt 0.830575 0.46875
vt 0.4575953125 0.32513125
vt 0.4395203125 0.33339062500000005
vt 0.4354796875 0.1875
vt 0.4535546875 0.1875
vt 0.700675 0.374275
vt 0.71875 0.374275
vt 0.71875 0.53125
vt 0.700675 0.522990625
vt 0.78125 0.28125
vt 0.8011254343505998 0.28125
vt 0.8020589644601287 0.3125
vt 0.7821860054878216 0.3125
vt 0.736825 0.522990625
vt 0.71875 0.53125
vt 0.71875 0.374275
vt 0.736825 0.374275
vt 0.794425 0.46875
vt 0.8125 0.46875
vt 0.8125 0.500003125
vt 0.794425 0.500003125
vt 0.4174046875 0.1875
vt 0.4354796875 0.1875
vt 0.4395203125 0.33339062500000005
vt 0.4214453125 0.32513125
vt 0.59375 0.5625
vt 0.53125 0.5625
vt 0.5390625 0.4375
vt 0.59375 0.4375
vt 0.67578125 0.71875
vt 0.68359375 0.84375
vt 0.62890625 0.84375
vt 0.62890625 0.71875
vt 0 0.75
vt 0.0625 0.75
vt 0.0625 0.8125
vt 0 0.8125
vt 0.46875 0.9375
vt 0.46875 1
vt 0.40625 1
vt 0.40625 0.9375
vt 0.65625 0.28125
vt 0.65625 0.40625
vt 0.59375 0.40625
vt 0.59375 0.28125
vt 0.1875 0.4375
vt 0.125 0.4375
vt 0.125 0.3125
vt 0.1875 0.3125
vt 0.68359375 0.6875
vt 0.62890625 0.6875
vt 0.62890625 0.5625
vt 0.67578125 0.5625
vt 0.28125 0.3125
vt 0.28125 0.4375
vt 0.21875 0.4375
vt 0.2265625 0.3125
vt 0.53125 0.75
vt 0.59375 0.75
vt 0.59375 0.8125
vt 0.53125 0.8125
vt 0.25 0.21875
vt 0.25 0.28125
vt 0.1875 0.28125
vt 0.1875 0.21875
vt 0.0625 0.28125
vt 0.0625 0.40625
vt 0 0.40625
vt 0 0.28125
vt 0.6875 1
vt 0.625 1
vt 0.625 0.875
vt 0.6875 0.875
vt 0.7503041718366334 1
vt 0.71875 0.9890374767737781
vt 0.71875 0.84375
vt 0.7497002524134171 0.84375
vt 0.71875 0.71875
vt 0.8564393750246779 0.71875
vt 0.8673987732766887 0.75
vt 0.71875 0.7493960932724348
vt 0.8388217194782839 0.84375
vt 0.84375 0.875
vt 0.8103468947340783 0.875
vt 0.8054186142123622 0.84375
vt 0.7944234375 0.40625
vt 0.8124984375 0.40625
vt 0.8124984375 0.4375
vt 0.7944234375 0.4375
vt 0.3638469645867376 0.3251317233921217
vt 0.34577178780948475 0.33339071151789623
vt 0.3417311604132624 0.1875
vt 0.35980616040912217 0.1875003868723336
vt 0.700675 0.15552500000000002
vt 0.71875 0.15552500000000002
vt 0.71875 0.3125
vt 0.700675 0.30424062500000004
vt 0.78125 0.21875
vt 0.8011229590638416 0.21875
vt 0.8020513769253679 0.25
vt 0.7821784178615262 0.25
vt 0.736825 0.30424062500000004
vt 0.71875 0.3125
vt 0.71875 0.15552500000000002
vt 0.736825 0.15552500000000002
vt 0.8305765625 0.4375
vt 0.8124984375 0.4375
vt 0.8124984375 0.40625
vt 0.8305765625 0.40625
vt 0.3236530354132624 0.1875
vt 0.3417311604132624 0.1875
vt 0.3457717854132624 0.33339062500000005
vt 0.3276967854132624 0.32513125
vt 0.11146828727044035 0.5490820178130187
vt 0.08944602683302152 0.5888269728573573
vt 0.06250018072749053 0.5264178000201891
vt 0.39137737019136604 0.6898614026933844
vt 0.3931025129442397 0.6439638547428366
vt 0.45709375213563247 0.6498364255597753
vt 0.43662744609831805 0.6940120162993114
vt 0.3054429344367839 0.9680548952571635
vt 0.28562716402683624 0.9259608363670839
vt 0.3265682823070954 0.90625
vt 0.36334232451665605 0.9401785441572719
vt 0.41919375000000003 0.8838071325083634
vt 0.3920572445691142 0.8473617136010764
vt 0.43749974365046596 0.8173330633836261
vt 0.07183325333890721 0.59375
vt 0.03555352216765842 0.5888249352905857
vt 0.06249973638741746 0.5264168558062273
vt 0.01294375 0.25
vt 0.005362499999999999 0.1875
vt 0.0571375 0.1875
vt 0.04955625 0.25
vt 0.5053625 0.25
vt 0.51294375 0.1875
vt 0.54955625 0.1875
vt 0.5571375 0.25
vt 0.45580624999999997 0.8838071325083634
vt 0.41919375000000003 0.8838071325083634
vt 0.4375 0.8173321325083633
vt 0.035553522167658426 0.5888249352905857
vt 0.01353171272955965 0.5490797303556244
vt 0.06250007644702052 0.5264160682200171
vt 0.03212583892684098 0.6940123423107936
vt 0.011656115396662961 0.6498383350373067
vt 0.0756476195234649 0.6439638547428366
vt 0.07737255253859432 0.6898589474841519
vt 0.10540570533400415 0.783928544157272
vt 0.14217974754356483 0.75
vt 0.18312176500895047 0.7697078435271102
vt 0.1633059945990028 0.8118019024171899
vt 0.4829427554308858 0.8473617136010764
vt 0.45580624999999997 0.8838071325083634
vt 0.43750025634953404 0.8173330633836261
vt 0.01353171272955965 0.5490797303556244
vt 0.01705696556956754 0.49638828639892363
vt 0.062498943799397286 0.5264165924348592
vt 0.07737261952346489 0.6898607297428365
vt 0.0756476195234649 0.6439638547428366
vt 0.1491944945234649 0.6569451047428365
vt 0.1293788695234649 0.6990388547428366
vt 0.16330614000895047 0.8118015935271101
vt 0.18312176500895047 0.7697078435271102
vt 0.23512801500895048 0.7788890935271101
vt 0.23685301500895048 0.8247859685271102
vt 0.48646800827089365 0.7946702696443756
vt 0.4829427554308857 0.8473617136010764
vt 0.437500777201056 0.8173334075651408
vt 0.01705696556956754 0.49638828639892363
vt 0.0441934710004533 0.4599428674916366
vt 0.06249946465091921 0.5264169366163739
vt 0.12937872411351725 0.6990391636329162
vt 0.1491944945234649 0.6569451047428365
vt 0.20709388460333705 0.6848214558427281
vt 0.1703198423937764 0.71875
vt 0.23685304046699115 0.8247866458862473
vt 0.23512801500895048 0.7788890935271101
vt 0.28037810152297726 0.7747385955613577
vt 0.3008442946659958 0.8189142386040194
vt 0.46444619883279487 0.7549250647094143
vt 0.48646800827089365 0.7946702696443756
vt 0.4374996445534327 0.8173339317799829
vt 0.0441934710004533 0.4599428674916366
vt 0.0808059710004533 0.4599428674916366
vt 0.0624997210004533 0.5264178674916367
vt 0.60669375 0.25
vt 0.5991125 0.1875
vt 0.6508875 0.1875
vt 0.64330625 0.25
vt 0.7241125 0.6875
vt 0.73169375 0.625
vt 0.76830625 0.625
vt 0.7758875 0.6875
vt 0.4281664676615461 0.75
vt 0.4644461988327949 0.7549250647094143
vt 0.43749998461303585 0.8173331441937727
vt 0.0808059710004533 0.4599428674916366
vt 0.1079409403301313 0.4963894300978079
vt 0.06250028249597482 0.5264158285478445
vt 0.2984302900739282 0.71875
vt 0.26165624786436753 0.6848214558427281
vt 0.3195556379442397 0.6569451047428365
vt 0.33937140835418733 0.6990391636329162
vt 0.16790767548334395 0.9751679506472726
vt 0.18837082751280942 0.9309915884013313
vt 0.23362091402683624 0.9351420863670838
vt 0.23189588856879556 0.981039638726221
vt 0.38853199172910635 0.7946702696443756
vt 0.4105525482171607 0.7549243705074029
vt 0.43749665371380575 0.8173322185346494
vt 0.1079409403301313 0.4963894300978079
vt 0.11146828727044035 0.5490820178130187
vt 0.06249848600218245 0.5264170156397792
vt 0.3393712629442397 0.6990388547428366
vt 0.3195556379442397 0.6569451047428365
vt 0.3931025129442397 0.6439638547428366
vt 0.3913775129442397 0.6898576047428366
vt 0.23189591402683624 0.9810389613670838
vt 0.23362091402683624 0.9351420863670838
vt 0.28562716402683624 0.9259608363670839
vt 0.30544278902683625 0.9680545863670839
vt 0.3920572445691143 0.8473617136010764
vt 0.38853199172910635 0.7946702696443756
vt 0.437499222798944 0.8173334075651408
vt 0.125 0.9762500000000001
vt 0.0625 0.9762500000000001
vt 0.0625 0.84375
vt 0.125 0.84375
vt 0.2968760156282483 0.5550485107676378
vt 0.231339678499145 0.593747677148726
vt 0.23437398437175175 0.49178750000000004
vt 0.29687444099120164 0.4917859384664648
vt 0.35937383361130004 0.5000005147438942
vt 0.42187383361130004 0.5000005147438942
vt 0.4244675836113001 0.5744786397438941
vt 0.35937383361130004 0.5542255147438941
vt 0.5625 0.28125
vt 0.5625 0.40625
vt 0.5 0.40625
vt 0.5090375001376494 0.28125
vt 0.46875 0.375
vt 0.46875 0.4382625006946502
vt 0.34375 0.4382625006946502
vt 0.34375 0.3840241607633883
vt 0.519675 0.59375
vt 0.58785 0.59375
vt 0.59375 0.71875
vt 0.519675 0.7164593749999999
vt 0.59375 0.97686875
vt 0.53125 0.97686875
vt 0.540940625 0.84375
vt 0.59375 0.845603125
vt 0.4843742832991641 0.5542253431254587
vt 0.4244675836113001 0.5744786397438941
vt 0.42187381568500326 0.5
vt 0.48437616638869996 0.5000020416561161
vt 0 0.84375
vt 0.0625 0.84375
vt 0.0625 0.9762500000000001
vt 0 0.9762500000000001
vt 0.17187398437175175 0.49178750000000004
vt 0.23437398437175175 0.49178750000000004
vt 0.23133960937175174 0.59375
vt 0.17187398437175175 0.55505
vt 0.7968101192982133 0.375
vt 0.795451799655866 0.34375
vt 0.8281940008384567 0.34375
vt 0.829548200344134 0.375
vt 0.625 0.49716900724504265
vt 0.65625 0.4985093972213017
vt 0.65625 0.53125
vt 0.625 0.5299083489271514
vn 0.9899570897719102 -0.02907184039132777 -0.13834662448571572
vn -0.9899570897719102 0.029071840391327722 0.1383466244857155
vn 0.40147413250951436 0.8783052762271937 0.25961194632991413
vn 0 -1 0
vn 0.00004094824697067667 -0.000004976945313379842 0.9999999991492355
vn 0 0.0000049769453176398535 -0.999999999987615
vn -0.38908721819789965 0.8511968972303718 0.35224278385853164
vn 0.00004094824696910112 0.0000049769453134672845 -0.9999999991492355
vn 0 -1 0
vn 0 -0.00000384253535533773 0.9999999999926175
vn 1 0 0
vn -1 0 0
vn 0 1 0
vn 0 -1 0
vn 0 -0.06739070729129534 0.997726662253134
vn 0 0 -1
vn 1 0 0
vn -1 0 0
vn 0 1 0
vn 0 -1 0
vn 0 0 1
vn 0 -0.06739070729129534 -0.997726662253134
vn -0.9899570897719102 -0.02907184039132757 0.1383466244857149
vn 0.9899570897719102 0.029071840391327562 -0.13834662448571486
vn -0.4014741325095139 0.878305276227194 -0.25961194632991397
vn 0 -1 0
vn -0.00004094824696978971 -0.000004976945313640647 -0.9999999991492355
vn 0 0.0000049769453176398535 0.999999999987615
vn 0.38908721819789893 0.8511968972303718 -0.35224278385853164
vn -0.00004094824696910114 0.000004976945313467284 0.9999999991492355
vn 0 -1 0
vn 0 -0.0000038425353556231025 -0.9999999999926175
vn 0.3284986085312999 0.9082095972931863 0.2593144646516045
vn 0.5741517720832944 0.3614950818081779 0.7346230655527443
vn 0.4204368561995664 -0.5466201103750928 0.7241818175586477
vn 0.024464166822979357 -0.9662021345870009 0.2566221729726035
vn 0.40977743361780905 0.9121855375402541 0
vn 0.9247730632251451 0.3805190948338627 0
vn 0.7293403757056157 -0.684151018683442 0
vn 0.0983398158682071 -0.9951528930847798 0
vn 0.32849860853130003 0.9082095972931863 -0.2593144646516042
vn 0.5741517720832945 0.36149508180817846 -0.7346230655527439
vn 0.42043685619956683 -0.5466201103750927 -0.7241818175586476
vn 0.024464166822979368 -0.9662021345870008 -0.25662217297260337
vn 0.14855137716941672 0.9215692506984408 -0.3586678191700284
vn 0.06488618498688599 0.4025348941117403 -0.9131020983549966
vn -0.06488618498688582 -0.40253489411174037 -0.9131020983549966
vn -0.14855137716941758 -0.9215692506984399 -0.3586678191700308
vn -0.024464166822979014 0.9662021345870012 -0.25662217297260154
vn -0.42043685619956644 0.546620110375093 -0.7241818175586476
vn -0.5741517720832939 -0.36149508180817763 -0.7346230655527448
vn -0.32849860853129825 -0.9082095972931857 -0.2593144646516083
vn -0.09833981586820628 0.9951528930847798 0
vn -0.7293403757056157 0.684151018683442 -3.38712154127283e-16
vn -0.9247730632251454 -0.3805190948338614 0
vn -0.4097774336178088 -0.9121855375402541 0
vn -0.024464166822979173 0.9662021345870014 0.2566221729726014
vn -0.4204368561995667 0.5466201103750933 0.7241818175586471
vn -0.574151772083294 -0.3614950818081779 0.7346230655527445
vn -0.3284986085312985 -0.9082095972931857 0.2593144646516081
vn 0.14855137716941666 0.9215692506984408 0.35866781917002855
vn 0.06488618498688584 0.402534894111741 0.9131020983549963
vn -0.06488618498688617 -0.40253489411174065 0.9131020983549963
vn -0.14855137716941758 -0.9215692506984396 0.3586678191700308
vn -0.9976674577989139 -0.06826158252672226 0
vn -0.00009065795656052696 0.9999999944575981 -0.00005353446327511554
vn 0.00009822549291826986 -0.9999999951758763 0
vn 3.1596476695768307e-10 1.6807344370178074e-14 1
vn -3.1596432822314715e-10 -1.680732103225926e-14 -1
vn 0.9466147909660731 -0.13106077091389884 0.2945225150166156
vn 0.8323028833074304 -0.11790063532894733 -0.5416376562123141
vn 0.00009653871427365966 -0.999999994167291 -0.00004843237287467568
vn -0.9976674577989139 -0.06826158252672226 0
vn -0.00008906487610199362 0.9999999960337239 0
vn 0.9988614446235481 0.04770549700567729 -5.658106614767124e-16
vn 0.9987826305257469 0.030688727722147497 0.03861941158103363
usemtl m_3a9409ab-fa8b-3e36-1fa6-ed18839ad8c5
f 2/1/1 1/2/1 3/3/1 4/4/1
f 7/5/2 5/6/2 6/7/2 8/8/2
f 2/9/3 10/10/3 9/11/3 1/12/3
f 3/13/4 12/14/4 11/15/4 4/16/4
f 1/17/5 9/18/5 12/19/5 3/20/5
f 4/21/6 11/22/6 10/23/6 2/24/6
f 5/25/7 9/26/7 10/27/7 6/28/7
f 6/29/8 10/30/8 11/31/8 8/32/8
f 8/33/9 11/34/9 12/35/9 7/36/9
f 7/37/10 12/38/10 9/39/10 5/40/10
f 14/41/11 13/42/11 15/43/11 16/44/11
f 19/45/12 17/46/12 18/47/12 20/48/12
f 17/49/13 13/50/13 14/51/13 18/52/13
f 16/53/14 15/54/14 19/55/14 20/56/14
f 15/57/15 13/58/15 17/59/15 19/60/15
f 18/61/16 14/62/16 16/63/16 20/64/16
f 22/65/17 21/66/17 23/67/17 24/68/17
f 27/69/18 25/70/18 26/71/18 28/72/18
f 25/73/19 21/74/19 22/75/19 26/76/19
f 24/77/20 23/78/20 27/79/20 28/80/20
f 23/81/21 21/82/21 25/83/21 27/84/21
f 26/85/22 22/86/22 24/87/22 28/88/22
f 30/89/23 29/90/23 31/91/23 32/92/23
f 35/93/24 33/94/24 34/95/24 36/96/24
f 30/97/25 38/98/25 37/99/25 29/100/25
f 31/101/26 40/102/26 39/103/26 32/104/26
f 29/105/27 37/106/27 40/107/27 31/108/27
f 32/109/28 39/110/28 38/111/28 30/112/28
f 33/113/29 37/114/29 38/115/29 34/116/29
f 34/117/30 38/118/30 39/119/30 36/120/30
f 36/121/31 39/122/31 40/123/31 35/124/31
f 35/125/32 40/126/32 37/127/32 33/128/32
f 43/129/33 46/130/33 42/131/33
f 43/132/34 44/133/34 47/134/34 46/135/34
f 44/136/35 45/137/35 48/138/35 47/139/35
f 48/140/36 45/141/36 41/142/36
f 46/143/37 49/144/37 42/145/37
f 46/146/38 47/147/38 50/148/38 49/149/38
f 47/150/39 48/151/39 51/152/39 50/153/39
f 51/154/40 48/155/40 41/156/40
f 49/157/41 52/158/41 42/159/41
f 49/160/42 50/161/42 53/162/42 52/163/42
f 50/164/43 51/165/43 54/166/43 53/167/43
f 54/168/44 51/169/44 41/170/44
f 52/171/45 55/172/45 42/173/45
f 52/174/46 53/175/46 56/176/46 55/177/46
f 53/178/47 54/179/47 57/180/47 56/181/47
f 57/182/48 54/183/48 41/184/48
f 55/185/49 58/186/49 42/187/49
f 55/188/50 56/189/50 59/190/50 58/191/50
f 56/192/51 57/193/51 60/194/51 59/195/51
f 60/196/52 57/197/52 41/198/52
f 58/199/53 61/200/53 42/201/53
f 58/202/54 59/203/54 62/204/54 61/205/54
f 59/206/55 60/207/55 63/208/55 62/209/55
f 63/210/56 60/211/56 41/212/56
f 61/213/57 64/214/57 42/215/57
f 61/216/58 62/217/58 65/218/58 64/219/58
f 62/220/59 63/221/59 66/222/59 65/223/59
f 66/224/60 63/225/60 41/226/60
f 64/227/61 43/228/61 42/229/61
f 64/230/62 65/231/62 44/232/62 43/233/62
f 65/234/63 66/235/63 45/236/63 44/237/63
f 45/238/64 66/239/64 41/240/64
f 71/241/65 78/242/65 77/243/65 73/244/65
f 67/245/66 75/246/66 78/247/66 71/248/66
f 73/249/67 77/250/67 76/251/67 69/252/67
f 69/253/68 67/254/68 71/255/68 73/256/68
f 72/257/69 68/258/69 70/259/69 74/260/69
f 69/261/70 76/262/70 75/263/70 67/264/70
f 68/265/71 75/266/71 76/267/71 70/268/71
f 70/269/72 76/270/72 77/271/72 74/272/72
f 74/273/73 77/274/73 78/275/73 72/276/73
f 72/277/74 78/278/74 75/279/74 68/280/74
f 79/281/75 80/282/75 82/283/75 81/284/75
f 83/285/76 84/286/76 86/287/76 85/288/76