# Made in Blockbench 4.11.0
mtllib crystal.mtl

o cone
v 1.3877787807814457e-17 0.125 -1.3877787807814457e-17
v 1.3877787807814457e-17 0.375 -1.3877787807814457e-17
v 1.3877787807814457e-17 1.125 -1.3877787807814457e-17
v -0.37499999999999994 0.375 0.3749999999999999
v 0.3749999999999999 0.375 0.37499999999999994
v 0.37500000000000006 0.375 -0.3749999999999999
v -0.37499999999999983 0.375 -0.37500000000000006
v 1.3877787807814457e-17 0.375 -1.3877787807814457e-17
v -0.37499999999999994 0.375 0.3749999999999999
v 0.3749999999999999 0.375 0.37499999999999994
v 0.37500000000000006 0.375 -0.3749999999999999
v -0.37499999999999983 0.375 -0.37500000000000006
v 0.3125 0.625 0.125
v 0.5625 0.625 0.125
v 0.3125 0.375 0.125
v 0.5625 0.375 0.125
v 0.3125 0.625 -0.125
v 0.5625 0.625 -0.125
v 0.3125 0.375 -0.125
v 0.5625 0.375 -0.125
v 0.10165905461808411 0.3592033874875251 0.49088019132958244
v 0.08609842436347348 0.4736723124792086 0.44313365221597073
v 0.037240626845484764 0.3748340838222585 0.5493476822574284
v 0.16117123451721105 0.3910877714037235 0.5479256688535582
v 0.16607748239068346 0.34357269115279176 0.4324127004017364
v 0.042146874718957186 0.32731900357132676 0.4338347138056067
v 0.10165905461808411 0.3592033874875251 0.4908801913295824
v 0.13278031512730537 0.13026553750415826 0.5863732695568058
v 0.03724062684548478 0.37483408382225847 0.5493476822574284
v 0.16117123451721105 0.3910877714037235 0.5479256688535582
v 0.16607748239068346 0.34357269115279176 0.43241270040173646
v 0.042146874718957186 0.32731900357132676 0.4338347138056067
v 0.10054963246113227 0.37179944798329345 -0.4756660114188491
v 0.0842493874352204 0.49466574663882246 -0.45944335236474854
v 0.03822848659153358 0.3718072568387175 -0.5383443547004163
v 0.16215909426325986 0.38806094442018246 -0.536922341296546
v 0.16287077833073096 0.37179163912786944 -0.41298766813728194
v 0.03894017065900468 0.35553795154640444 -0.41440968154115215
v 0.10054963246113227 0.37179944798329345 -0.4756660114188491
v 0.13315012251295597 0.1260668506722355 -0.5081113295270502
v 0.03822848659153358 0.3718072568387175 -0.5383443547004162
v 0.16215909426325986 0.3880609444201825 -0.536922341296546
v 0.16287077833073096 0.37179163912786944 -0.41298766813728194
v 0.03894017065900468 0.35553795154640444 -0.41440968154115215
vt 0.1875 0.46875
vt 0.1875 0.65625
vt 0.09375 0.5625
vt 0.2816058587514705 0.5656570406537438
vt 0.45276914124852946 0.48911044879733256
vt 0.4527691412485295 0.71875
vt 0 0.46875
vt 0.1875 0.46875
vt 0.09375 0.5625
vt 0.14098085875147048 0.7062820406537438
vt 0.31214414124852946 0.6297354487973326
vt 0.3121441412485295 0.859375
vt 0 0.65625
vt 0 0.46875
vt 0.09375 0.5625
vt 0.2836177243986663 1
vt 0.3601643162550774 0.828836717502941
vt 0.5132572756013337 1
vt 0.1875 0.65625
vt 0 0.65625
vt 0.09375 0.5625
vt 0.0003558587514704975 0.8469070406537438
vt 0.17151914124852946 0.7703604487973326
vt 0.17151914124852952 1
vt 0.65625 0.71875
vt 0.65625 0.90625
vt 0.5625 0.8125
vt 0.390625 0.47204843750000003
vt 0.203125 0.47204843750000003
vt 0.296875 0.359375
vt 0.65625 0.90625
vt 0.46875 0.90625
vt 0.5625 0.8125
vt 0.65625 0.5501734375
vt 0.46875 0.5501734375
vt 0.5625 0.4375
vt 0.46875 0.90625
vt 0.46875 0.71875
vt 0.5625 0.8125
vt 0.1875 0.44079843750000003
vt 0 0.44079843750000003
vt 0.09375 0.328125
vt 0.46875 0.71875
vt 0.65625 0.71875
vt 0.5625 0.8125
vt 0.65625 0.6907984375
vt 0.46875 0.6907984375
vt 0.5625 0.578125
vt 0.0625 1
vt 0 1
vt 0 0.9375
vt 0.0625 0.9375
vt 0.25 0.9375
vt 0.25 1
vt 0.1875 1
vt 0.1875 0.9375
vt 0.1875 0.859375
vt 0.25 0.859375
vt 0.25 0.921875
vt 0.1875 0.921875
vt 0.0625 0.71875
vt 0.0625 0.78125
vt 0 0.78125
vt 0 0.71875
vt 0.390625 0.75
vt 0.390625 0.8125
vt 0.328125 0.8125
vt 0.328125 0.75
vt 0.265625 0.625
vt 0.203125 0.625
vt 0.203125 0.5625
vt 0.265625 0.5625
vt 0.2170671875 0.38343125
vt 0.1875 0.3733171875
vt 0.207340625 0.36359062500000006
vt 0.6120976491822361 0.36511035487858423
vt 0.640625 0.3523509341881539
vt 0.640625 0.390625
vt 0.2271828125 0.3538640625
vt 0.2170671875 0.38343125
vt 0.207340625 0.36359062500000006
vt 0.008601022820961465 0.703125
vt 0.021358852087744892 0.6745973224201
vt 0.046875 0.703125
vt 0.1976140625 0.34375
vt 0.2271828125 0.3538640625
vt 0.207340625 0.36359062500000006
vt 0.6419867001311874 0.5994850745562993
vt 0.6705132998688126 0.5867273055159895
vt 0.6705132998688126 0.625
vt 0.1875 0.3733171875
vt 0.1976140625 0.34375
vt 0.207340625 0.36359062500000006
vt 0.1875 0.84375
vt 0.20025779801041335 0.815221508278118
vt 0.22577290323545252 0.84375
vt 0.6490578124999999 0.4430109375
vt 0.619490625 0.453125
vt 0.6292171875 0.43328437499999994
vt 0.47845826288592613 0.4383810934699114
vt 0.471092947670844 0.46875
vt 0.41216673711407387 0.4383810934699114
vt 0.619490625 0.453125
vt 0.609375 0.4235578125
vt 0.6292171875 0.43328437499999994
vt 0.6444165758583634 0.96875
vt 0.6370508322970679 0.9991188069820316
vt 0.578125 0.9687500000000001
vt 0.609375 0.4235578125
vt 0.63894375 0.41344375
vt 0.6292171875 0.43328437499999994
vt 0.109375 0.7464266045077483
vt 0.07900467061153313 0.753791676749423
vt 0.07900467061153311 0.6875
vt 0.63894375 0.41344375
vt 0.6490578124999999 0.4430109375
vt 0.6292171875 0.43328437499999994
vt 0.53125 0.4183011932320292
vt 0.5008815660435592 0.42566599476043576
vt 0.5008815660435592 0.359375
vt 0.4375 0.39710781250000005
vt 0.4153921875 0.41919375000000003
vt 0.415403125 0.397096875
vt 0.578125 0.953125
vt 0.5908827078334372 0.9245972831336577
vt 0.616398343124756 0.953125
vt 0.4153921875 0.41919375000000003
vt 0.39330624999999997 0.3970859375
vt 0.415403125 0.397096875
vt 0.34511145500392276 0.3494838415767365
vt 0.37363854499607724 0.33672671495488626
vt 0.37363854499607724 0.375
vt 0.39330624999999997 0.3970859375
vt 0.4154140625 0.375
vt 0.415403125 0.397096875
vt 0.4558469781270789 0.39635935758094265
vt 0.484375 0.3836007943662506
vt 0.484375 0.421875
vt 0.4154140625 0.375
vt 0.4375 0.39710781250000005
vt 0.415403125 0.397096875
vt 0.001361978829364223 0.3338582681914074
vt 0.029888021170635777 0.321101282086657
vt 0.02988802117063575 0.359375
vt 0.5716640625 0.421875
vt 0.54955625 0.3997890625
vt 0.571653125 0.399778125
vt 0.4370597308390874 0.824550442488585
vt 0.4066902691609126 0.8319161794557377
vt 0.4066902691609126 0.765625
vt 0.59375 0.39976718749999995
vt 0.5716640625 0.421875
vt 0.571653125 0.399778125
vt 0.2753334507006748 0.5
vt 0.2679666878167237 0.5303698443400133
vt 0.20904154929932522 0.5
vt 0.5716421875 0.37768124999999997
vt 0.59375 0.39976718749999995
vt 0.571653125 0.399778125
vt 0.5620597341514237 0.9807996593165268
vt 0.5316902658485763 0.9881655333698042
vt 0.5316902658485763 0.921875
vt 0.54955625 0.3997890625
vt 0.5716421875 0.37768124999999997
vt 0.571653125 0.399778125
vt 0.3589349712788421 0.7151745173075
vt 0.3285650287211579 0.7225412146453823
vt 0.32856502872115795 0.65625
vn 0 -1 0
vn -6.620091075326064e-17 0.44721359549995787 0.894427190999916
vn 0 -1 0
vn 0.894427190999916 0.447213595499958 1.9860273225978196e-16
vn 0 -1 0
vn 1.986027322597819e-16 0.44721359549995804 -0.8944271909999161
vn 0 -1 0
vn -0.8944271909999161 0.4472135954999579 -1.3240182150652126e-16
vn 0 1 0
vn -4.10560619742228e-17 -0.8320502943378437 0.5547001962252291
vn 0 1 0
vn 0.5547001962252291 -0.8320502943378437 1.231681859226684e-16
vn 0 1 0
vn 1.2316818592266837e-16 -0.8320502943378438 -0.5547001962252291
vn 0 1 0
vn -0.5547001962252293 -0.8320502943378436 -8.211212394844558e-17
vn 0 0 1
vn 0 0 -1
vn 0 1 0
vn 0 -1 0
vn -1 0 0
vn 1 0 0
vn 0.12448504203688478 -0.9157513999334672 0.38197231290889405
vn -0.09077765526583316 0.7495267142201775 0.6557203077339775
vn 0.12448504203688557 -0.9157513999334674 0.3819723129088934
vn 0.8311038391545996 0.5258383971634054 -0.18099831107252431
vn 0.1244850420368852 -0.9157513999334678 0.38197231290889305
vn -0.020565151204725046 0.06954623807655419 -0.9973667306088199
vn 0.12448504203688443 -0.9157513999334674 0.3819723129088937
vn -0.942446645625157 0.29323455513332614 -0.16064811180231825
vn -0.12448504203688524 0.9157513999334675 -0.3819723129088934
vn -0.007886019148336611 0.14666885183319964 0.9891542137624058
vn -0.12448504203688504 0.9157513999334674 -0.38197231290889355
vn 0.9920348540475206 -0.09595519330585173 0.08160544854696537
vn -0.12448504203688499 0.9157513999334674 -0.38197231290889355
vn 0.06827013410451627 -0.5908735281547205 -0.8038704264465415
vn -0.12448504203688514 0.9157513999334674 -0.3819723129088933
vn -0.9316507390913404 -0.3482494830156691 0.10367833876889902
vn 0.13040196020729444 -0.982930389244232 -0.12978127243280474
vn -0.06340992613532696 0.5559935057570753 -0.8287643831774321
vn 0.13040196020729486 -0.982930389244232 -0.12978127243280432
vn 0.8284577129053315 0.555881754515126 0.06821504910833713
vn 0.13040196020729483 -0.982930389244232 -0.12978127243280424
vn -0.053225132833765926 0.32316616124309716 0.9448442821239004
vn 0.13040196020729436 -0.9829303892442321 -0.1297812724328047
vn -0.945092771874425 0.3232779124850463 0.04786484983813094
vn -0.13040196020729478 0.982930389244232 0.12978127243280532
vn 0.026103641240598458 -0.11212728022725786 -0.9933509314148853
vn -0.1304019602072953 0.9829303892442319 0.1297812724328047
vn 0.9934699174942696 -0.11224849146764714 -0.020440136916534023
vn -0.1304019602072948 0.982930389244232 0.12978127243280427
vn 0.037150600609079626 -0.36466399241785374 0.9303977673598837
vn -0.13040196020729428 0.9829303892442321 0.1297812724328048
vn -0.9302156756445912 -0.3645427811774645 -0.042513027138467795
usemtl m_f9a96e3f-11e5-3fe8-f86d-dff03ea88c6e
f 5/1/1 4/2/1 2/3/1
f 4/4/2 5/5/2 3/6/2
f 6/7/3 5/8/3 2/9/3
f 5/10/4 6/11/4 3/12/4
f 7/13/5 6/14/5 2/15/5
f 6/16/6 7/17/6 3/18/6
f 4/19/7 7/20/7 2/21/7
f 7/22/8 4/23/8 3/24/8
f 9/25/9 10/26/9 8/27/9
f 10/28/10 9/29/10 1/30/10
f 10/31/11 11/32/11 8/33/11
f 11/34/12 10/35/12 1/36/12
f 11/37/13 12/38/13 8/39/13
f 12/40/14 11/41/14 1/42/14
f 12/43/15 9/44/15 8/45/15
f 9/46/16 12/47/16 1/48/16
f 14/49/17 13/50/17 15/51/17 16/52/17
f 19/53/18 17/54/18 18/55/18 20/56/18
f 17/57/19 13/58/19 14/59/19 18/60/19
f 16/61/20 15/62/20 19/63/20 20/64/20
f 15/65/21 13/66/21 17/67/21 19/68/21
f 18/69/22 14/70/22 16/71/22 20/72/22
f 24/73/23 23/74/23 21/75/23
f 23/76/24 24/77/24 22/78/24
f 25/79/25 24/80/25 21/81/25
f 24/82/26 25/83/26 22/84/26
f 26/85/27 25/86/27 21/87/27
f 25/88/28 26/89/28 22/90/28
f 23/91/29 26/92/29 21/93/29
f 26/94/30 23/95/30 22/96/30
f 29/97/31 30/98/31 27/99/31
f 30/100/32 29/101/32 28/102/32
f 30/103/33 31/104/33 27/105/33
f 31/106/34 30/107/34 28/108/34
f 31/109/35 32/110/35 27/111/35
f 32/112/36 31/113/36 28/114/36
f 32/115/37 29/116/37 27/117/37
f 29/118/38 32/119/38 28/120/38
f 35/121/39 36/122/39 33/123/39
f 36/124/40 35/125/40 34/126/40
f 36/127/41 37/128/41 33/129/41
f 37/130/42 36/131/42 34/132/42
f 37/133/43 38/134/43 33/135/43
f 38/136/44 37/137/44 34/138/44
f 38/139/45 35/140/45 33/141/45
f 35/142/46 38/143/46 34/144/46
f 42/145/47 41/146/47 39/147/47
f 41/148/48 42/149/48 40/150/48
f 43/151/49 42/152/49 39/153/49
f 42/154/50 43/155/50 40/156/50
f 44/157/51 43/158/51 39/159/51
f 43/160/52 44/161/52 40/162/52
f 41/163/53 44/164/53 39/165/53
f 44/166/54 41/167/54 40/168/54