# Made in Blockbench 5.0.3
mtllib water.mtl

o cylinder
v 0 0 0
v 0 0.4375 0
v -0.5 0 0.288675
v -0.5 0.4375 0.288675
v 0 0 0.57735
v 0 0.4375 0.57735
v 0.5 0 0.288675
v 0.5 0.4375 0.288675
v 0.5 0 -0.288675
v 0.5 0.4375 -0.288675
v 0 0 -0.57735
v 0 0.4375 -0.57735
v -0.5 0 -0.288675
v -0.5 0.4375 -0.288675
vt 0.58965 0.6875
vt 0.51748125 0.8125
vt 0.4453125 0.6875
vt 0 0.546875
vt 0.140625 0.546875
vt 0.140625 0.609375
vt 0 0.609375
vt 0.0234375 0.78720625
vt 0.1484375 0.7150375
vt 0.1484375 0.859375
vt 0.51748125 0.5625
vt 0.58965 0.6875
vt 0.4453125 0.6875
vt 0.5 0.9375
vt 0.640625 0.9375
vt 0.640625 1
vt 0.5 1
vt 0.1484375 0.7150375
vt 0.2734375 0.78720625
vt 0.1484375 0.859375
vt 0.37314375 0.5625
vt 0.51748125 0.5625
vt 0.4453125 0.6875
vt 0 0.625
vt 0.140625 0.625
vt 0.140625 0.6875
vt 0 0.6875
vt 0.2734375 0.78720625
vt 0.2734375 0.93154375
vt 0.1484375 0.859375
vt 0.300975 0.6875
vt 0.37314375 0.5625
vt 0.4453125 0.6875
vt 0 0.46875
vt 0.140625 0.46875
vt 0.140625 0.53125
vt 0 0.53125
vt 0.2734375 0.93154375
vt 0.1484375 1
vt 0.1484375 0.859375
vt 0.37314375 0.8125
vt 0.300975 0.6875
vt 0.4453125 0.6875
vt 0.359375 0.859375
vt 0.5 0.859375
vt 0.5 0.921875
vt 0.359375 0.921875
vt 0.1484375 1
vt 0.0234375 0.93154375
vt 0.1484375 0.859375
vt 0.51748125 0.8125
vt 0.37314375 0.8125
vt 0.4453125 0.6875
vt 0.34375 0.9375
vt 0.484375 0.9375
vt 0.484375 1
vt 0.34375 1
vt 0.0234375 0.93154375
vt 0.0234375 0.78720625
vt 0.1484375 0.859375
vn 0 -1 0
vn -0.4999998251561787 0 0.8660255047305424
vn 0 1 0
vn 0 -1 0
vn 0.4999998251561787 0 0.8660255047305424
vn 0 1 0
vn 0 -1 0
vn 1 0 0
vn 0 1 0
vn 0 -1 0
vn 0.4999998251561787 0 -0.8660255047305424
vn 0 1 0
vn 0 -1 0
vn -0.4999998251561787 0 -0.8660255047305424
vn 0 1 0
vn 0 -1 0
vn -1 0 0
vn 0 1 0
usemtl m_953d1f1d-0607-0fb1-501e-3193efbbb977
f 5/1/1 3/2/1 1/3/1
f 3/4/2 5/5/2 6/6/2 4/7/2
f 4/8/3 6/9/3 2/10/3
f 7/11/4 5/12/4 1/13/4
f 5/14/5 7/15/5 8/16/5 6/17/5
f 6/18/6 8/19/6 2/20/6
f 9/21/7 7/22/7 1/23/7
f 7/24/8 9/25/8 10/26/8 8/27/8
f 8/28/9 10/29/9 2/30/9
f 11/31/10 9/32/10 1/33/10
f 9/34/11 11/35/11 12/36/11 10/37/11
f 10/38/12 12/39/12 2/40/12
f 13/41/13 11/42/13 1/43/13
f 11/44/14 13/45/14 14/46/14 12/47/14
f 12/48/15 14/49/15 2/50/15
f 3/51/16 13/52/16 1/53/16
f 13/54/17 3/55/17 4/56/17 14/57/17
f 14/58/18 4/59/18 2/60/18