# Made in Blockbench 5.0.3
mtllib wise-oak.mtl

o cylinder
v -7.533656238527849e-18 -5.551115123125783e-17 -7.53365623852785e-18
v 0.06060755543084916 0.8089622641509433 0.2261904761904762
v 0.28977011132934727 -5.551115123125783e-17 0.2897701113293473
v 0.16558292075962697 0.8089622641509433 0.16558292075962702
v 0.22619047619047616 0.8089622641509433 0.06060755543084917
v 0.39583333333333326 -5.551115123125783e-17 -0.10606322200398612
v 0.22619047619047616 0.8089622641509433 -0.06060755543084921
v 0.165582920759627 0.8089622641509433 -0.165582920759627
v 0.10606322200398617 -5.551115123125783e-17 -0.3958333333333333
v 0.06060755543084924 0.8089622641509433 -0.2261904761904762
v -0.06060755543084909 0.8089622641509433 -0.2261904761904762
v -0.28977011132934727 -5.551115123125783e-17 -0.2897701113293474
v -0.165582920759627 0.8089622641509433 -0.16558292075962708
v -0.22619047619047616 0.8089622641509433 -0.06060755543084915
v -0.39583333333333326 -5.551115123125783e-17 0.10606322200398588
v -0.22619047619047616 0.8089622641509433 0.06060755543084908
v -0.16558292075962705 0.8089622641509433 0.165582920759627
v -0.10606322200398603 -5.551115123125783e-17 0.3958333333333333
v -0.06060755543084916 0.8089622641509433 0.2261904761904762
v -0.06060755543084916 0.08667452830188677 0.2261904761904762
v -0.16558292075962705 -5.551115123125783e-17 0.165582920759627
v -0.22619047619047616 0.08667452830188677 0.06060755543084908
v -0.22619047619047616 -5.551115123125783e-17 -0.06060755543084915
v -0.165582920759627 0.08667452830188677 -0.16558292075962708
v -0.06060755543084909 -5.551115123125783e-17 -0.2261904761904762
v 0.06060755543084924 0.08667452830188677 -0.2261904761904762
v 0.165582920759627 -5.551115123125783e-17 -0.165582920759627
v 0.22619047619047616 0.08667452830188677 -0.06060755543084921
v 0.22619047619047616 -5.551115123125783e-17 0.06060755543084917
v 0.16558292075962697 0.08667452830188677 0.16558292075962702
v 0.06060755543084916 -5.551115123125783e-17 0.2261904761904762
v 0.1310192742402182 0.866745283018868 -0.48897058823529416
v -0.1310192742402179 0.866745283018868 -0.48897058823529416
v -0.35795131399507596 0.866745283018868 -0.3579513139950762
v -0.48897058823529416 0.866745283018868 -0.131019274240218
v -0.48897058823529416 0.866745283018868 0.13101927424021784
v -0.3579513139950762 0.866745283018868 0.35795131399507596
v -0.13101927424021806 0.866745283018868 0.48897058823529416
v 0.13101927424021806 0.866745283018868 0.48897058823529416
v 0.35795131399507596 0.866745283018868 0.357951313995076
v 0.48897058823529416 0.866745283018868 0.13101927424021806
v 0.48897058823529416 0.866745283018868 -0.13101927424021814
v 0.357951313995076 0.866745283018868 -0.35795131399507596
v 0.125404162487066 1.444575471698113 -0.46801470588235294
v -0.12540416248706568 1.444575471698113 -0.46801470588235294
v -1.2618874199534148e-17 1.5312499999999996 -1.261887419953415e-17
v -0.342610543395287 1.444575471698113 -0.34261054339528724
v -0.46801470588235294 1.444575471698113 -0.12540416248706582
v -0.46801470588235294 1.444575471698113 0.12540416248706565
v -0.34261054339528724 1.444575471698113 0.34261054339528707
v -0.12540416248706585 1.444575471698113 0.46801470588235294
v 0.12540416248706585 1.444575471698113 0.46801470588235294
v 0.342610543395287 1.444575471698113 0.3426105433952871
v 0.46801470588235294 1.444575471698113 0.12540416248706587
v 0.46801470588235294 1.444575471698113 -0.12540416248706596
v 0.34261054339528707 1.444575471698113 -0.34261054339528707
v -0.15909483300597907 1.1556603773584904 0.5937500000000001
v -0.434655166994021 1.1556603773584904 0.4346551669940208
v -0.59375 1.1556603773584904 0.15909483300597885
v -0.59375 1.1556603773584904 -0.15909483300597901
v -0.43465516699402074 1.1556603773584904 -0.43465516699402107
v -0.15909483300597888 1.1556603773584904 -0.5937500000000001
v 0.15909483300597924 1.1556603773584904 -0.5937500000000001
v 0.43465516699402085 1.1556603773584904 -0.4346551669940208
v 0.59375 1.1556603773584904 -0.15909483300597915
v 0.59375 1.1556603773584904 0.1590948330059791
v 0.43465516699402074 1.1556603773584904 0.4346551669940209
v 0.15909483300597907 1.1556603773584904 0.5937500000000001
vt 0.6664587370252374 0.515625
vt 0.6147084643314925 0.5448959061780863
vt 0.5640100129747626 0.515625
vt 0.09375 0.640625
vt 0.09375 0.43838437500000005
vt 0.125 0.46005312499999995
vt 0.125 0.640625
vt 0.2206161512227573 0.892922469492031
vt 0.28125 0.8769469173192863
vt 0.28125 1
vt 0.6615834643314925 0.703125
vt 0.7133337370252374 0.7323959061780863
vt 0.6108850129747626 0.7323959061780863
vt 0.34375 1
vt 0.34375 0.819428125
vt 0.375 0.797759375
vt 0.375 1
vt 0.0019469173192862982 0.84375
vt 0.017922469492031037 0.7831161512227572
vt 0.125 0.84375
vt 0.37598966292656066 0.26953125
vt 0.4052603370734394 0.32128132022967515
vt 0.3759896629265606 0.37197990554962534
vt 0.0625 0.71875
vt 0.0625 0.516509375
vt 0.09375 0.538178125
vt 0.09375 0.71875
vt 0.17280807561137865 0.721047469492031
vt 0.23344192438862135 0.7050719173192863
vt 0.23344192438862135 0.828125
vt 0.2509895371251675 0.3212812201652595
vt 0.2802604628748325 0.26953125
vt 0.2802604628748325 0.37197990554962534
vt 0.03125 0.671875
vt 0.03125 0.49130312499999995
vt 0.0625 0.46963437500000005
vt 0.0625 0.671875
vt 0.109375 0.658547469492031
vt 0.1700088487772427 0.6425719173192863
vt 0.1700088487772427 0.765625
vt 0.3447395371251675 0.28515625
vt 0.3740104628748325 0.3369062201652595
vt 0.34473953712516753 0.38760490554962534
vt 0.34375 0.796875
vt 0.34375 0.594634375
vt 0.375 0.616303125
vt 0.375 0.796875
vt 0.21875 0.674172469492031
vt 0.2793838487772427 0.6581969173192863
vt 0.2793838487772427 0.78125
vt 0.6259896629265606 0.6337813202296751
vt 0.6552603370734394 0.58203125
vt 0.6552603370734393 0.6844799055496253
vt 0.28125 0.796875
vt 0.28125 0.616303125
vt 0.3125 0.594634375
vt 0.3125 0.796875
vt 0.0009734586596431491 1
vt 0.016949010832387888 0.9393661512227572
vt 0.12402654134035684 1
vt 0.6108850129747626 0.5136459061780863
vt 0.6626352856685075 0.484375
vt 0.7133337370252374 0.5136459061780863
vt 0.203125 0.65625
vt 0.203125 0.45400937500000005
vt 0.234375 0.47567812499999995
vt 0.234375 0.65625
vt 0.0018661512227572952 0.689797469492031
vt 0.06249999999999999 0.6738219173192863
vt 0.0625 0.796875
vt 0.6782602856685075 0.7636459061780863
vt 0.6265100129747626 0.734375
vt 0.7289587370252374 0.734375
vt 0 0.671875
vt 0 0.49130312499999995
vt 0.03125 0.46963437500000005
vt 0.03125 0.671875
vt 0.1425719173192863 0.859375
vt 0.15854746949203102 0.7987411512227572
vt 0.265625 0.859375
vt 0.5146353370734393 0.37197990554962534
vt 0.4853646629265606 0.3202298353199503
vt 0.5146353370734393 0.26953125
vt 0.171875 0.703125
vt 0.171875 0.500884375
vt 0.203125 0.522553125
vt 0.203125 0.703125
vt 0.04784845865964315 0.953125
vt 0.0638240108323879 0.8924911512227572
vt 0.17090154134035684 0.953125
vt 0.24901046287483253 0.32022993538436584
vt 0.21973953712516747 0.37197990554962534
vt 0.2197395371251675 0.26953125
vt 0.3125 0.796875
vt 0.3125 0.616303125
vt 0.34375 0.594634375
vt 0.34375 0.796875
vt 0.25 0.814797469492031
vt 0.3106338487772427 0.7988219173192863
vt 0.3106338487772427 0.921875
vt 0.15526046287483247 0.6376049055496253
vt 0.12598953712516747 0.5858549353843658
vt 0.15526046287483253 0.53515625
vt 0.234375 0.65625
vt 0.234375 0.45400937500000005
vt 0.265625 0.47567812499999995
vt 0.265625 0.65625
vt 0.09375 0.90625
vt 0.10972555217274474 0.8456161512227572
vt 0.2168030826807137 0.90625
vt 0.4365103370734394 0.3202298353199502
vt 0.40723966292656066 0.37197990554962534
vt 0.4072396629265606 0.26953125
vt 0.3125 1
vt 0.3125 0.819428125
vt 0.34375 0.797759375
vt 0.34375 1
vt 0.07905807561137865 0.736672469492031
vt 0.13969192438862135 0.7206969173192863
vt 0.13969192438862135 0.84375
vt 0.1844546875 0.4537671875
vt 0.1462375 0.484375
vt 0.125 0.4537671875
vt 0.05945468749999999 0.8600171875
vt 0.03821718749999999 0.890625
vt 0 0.8600171875
vt 0.703125 0.8756421875
vt 0.6649078125 0.90625
vt 0.6436703125000001 0.8756421875
vt 0.6844546874999999 0.4537671875
vt 0.6632171875 0.484375
vt 0.625 0.4537671875
vt 0.5282046874999999 0.7350171875
vt 0.4899875 0.765625
vt 0.46875 0.7350171875
vt 0.703125 0.9068921875
vt 0.6818875 0.9375
vt 0.6436703125000001 0.9068921875
vt 0.1844546875 0.4850171875
vt 0.1462375 0.515625
vt 0.125 0.4850171875
vt 0.1532046875 0.9537671875
vt 0.1319671875 0.984375
vt 0.09375 0.9537671875
vt 0.34375 0.3287671875
vt 0.30553281250000003 0.359375
vt 0.2842953125 0.3287671875
vt 0.6844546874999999 0.4068921875
vt 0.6632171875 0.4375
vt 0.625 0.4068921875
vt 0.2157046875 0.9068921875
vt 0.1774875 0.9375
vt 0.15625 0.9068921875
vt 0.703125 0.9693921875
vt 0.6818875 1
vt 0.6436703125000001 0.9693921875
vt 0.6284578125 0.84375
vt 0.5629484375 0.84375
vt 0.5805515625 0.78125
vt 0.6108546875 0.78125
vt 0.34765625 0.421875
vt 0.282146875 0.421875
vt 0.29975 0.359375
vt 0.330053125 0.359375
vt 0.69140625 0.828125
vt 0.625896875 0.828125
vt 0.6435 0.765625
vt 0.6738031250000001 0.765625
vt 0.6284578125 0.6875
vt 0.5629484375 0.6875
vt 0.5805515625 0.625
vt 0.6108546875 0.625
vt 0.20613437499999998 0.375
vt 0.140625 0.375
vt 0.158228125 0.3125
vt 0.18853124999999998 0.3125
vt 0.643634375 0.40625
vt 0.578125 0.40625
vt 0.5957281249999999 0.34375
vt 0.62603125 0.34375
vt 0.2378328125 1
vt 0.1723234375 1
vt 0.1899265625 0.9375
vt 0.2202296875 0.9375
vt 0.50390625 0.421875
vt 0.438396875 0.421875
vt 0.456 0.359375
vt 0.486303125 0.359375
vt 0.12890625 0.375
vt 0.063396875 0.375
vt 0.081 0.3125
vt 0.111303125 0.3125
vt 0.2847078125 0.4375
vt 0.2191984375 0.4375
vt 0.2368015625 0.375
vt 0.2671046875 0.375
vt 0.065509375 0.390625
vt 0 0.390625
vt 0.017603124999999997 0.328125
vt 0.04790625 0.328125
vt 0.581134375 0.421875
vt 0.515625 0.421875
vt 0.5332281249999999 0.359375
vt 0.56353125 0.359375
vt 0.3846640625 0.6875
vt 0.3762421875 0.609375
vt 0.4557890625 0.609375
vt 0.4473671875 0.6875
vt 0.55778125 0.625
vt 0.549359375 0.546875
vt 0.62890625 0.546875
vt 0.620484375 0.625
vt 0.47965625 0.578125
vt 0.471234375 0.5
vt 0.55078125 0.5
vt 0.542359375 0.578125
vt 0.2752890625 0.59375
vt 0.2668671875 0.515625
vt 0.3464140625 0.515625
vt 0.3379921875 0.59375
vt 0.367796875 0.53125
vt 0.359375 0.453125
vt 0.438921875 0.453125
vt 0.4305 0.53125
vt 0.555296875 0.5
vt 0.546875 0.421875
vt 0.626421875 0.421875
vt 0.618 0.5
vt 0.3846640625 0.609375
vt 0.3762421875 0.53125
vt 0.4557890625 0.53125
vt 0.4473671875 0.609375
vt 0.57340625 1
vt 0.564984375 0.921875
vt 0.64453125 0.921875
vt 0.636109375 1
vt 0.46403125 0.5
vt 0.455609375 0.421875
vt 0.53515625 0.421875
vt 0.526734375 0.5
vt 0.4627890625 0.734375
vt 0.4543671875 0.65625
vt 0.5339140625000001 0.65625
vt 0.5254921875 0.734375
vt 0.274046875 0.515625
vt 0.265625 0.4375
vt 0.345171875 0.4375
vt 0.33675 0.515625
vt 0.570921875 0.921875
vt 0.5625 0.84375
vt 0.642046875 0.84375
vt 0.633625 0.921875
vt 0.603778125 0.6875
vt 0.610796875 0.765625
vt 0.53125 0.765625
vt 0.53826875 0.6875
vt 0.541278125 0.921875
vt 0.548296875 1
vt 0.46875 1
vt 0.47576875 0.921875
vt 0.4487703125 0.6875
vt 0.4557890625 0.765625
vt 0.3762421875 0.765625
vt 0.3832609375 0.6875
vt 0.5437625 0.84375
vt 0.55078125 0.921875
vt 0.471234375 0.921875
vt 0.478253125 0.84375
vt 0.0750125 0.390625
vt 0.08203125 0.46875
vt 0.002484374999999997 0.46875
vt 0.009503125000000001 0.390625
vt 0.4487703125 0.921875
vt 0.4557890625 1
vt 0.3762421875 1
vt 0.3832609375 0.921875
vt 0.431903125 0.375
vt 0.438921875 0.453125
vt 0.359375 0.453125
vt 0.36639375 0.375
vt 0.541278125 0.578125
vt 0.548296875 0.65625
vt 0.46875 0.65625
vt 0.47576875 0.578125
vt 0.4487703125 0.765625
vt 0.4557890625 0.84375
vt 0.3762421875 0.84375
vt 0.3832609375 0.765625
vt 0.5437625 0.765625
vt 0.55078125 0.84375
vt 0.471234375 0.84375
vt 0.478253125 0.765625
vt 0.20001249999999998 0.375
vt 0.20703125 0.453125
vt 0.12748437499999998 0.453125
vt 0.134503125 0.375
vt 0.4487703125 0.84375
vt 0.4557890625 0.921875
vt 0.3762421875 0.921875
vt 0.3832609375 0.84375
vn 0 -1 0
vn 0.5000000000000001 0 0.8660254037844388
vn 0.09104984882268215 0.9832800720636349 0.1577029641823509
vn 0 -1 0
vn 0.8660254037844388 0 0.5000000000000001
vn 0.15770296418235089 0.983280072063635 0.09104984882268219
vn 0 -1 0
vn 1 0 0
vn 0.1820996976453644 0.9832800720636349 0
vn 0 -1 0
vn 0.8660254037844387 0 -0.5000000000000001
vn 0.15770296418235086 0.9832800720636349 -0.0910498488226822
vn 0 -1 0
vn 0.5000000000000003 0 -0.8660254037844385
vn 0.0910498488226822 0.9832800720636349 -0.15770296418235083
vn 0 -1 0
vn 0 0 -1
vn 0 0.9832800720636349 -0.18209969764536438
vn 0 -1 0
vn -0.4999999999999993 0 -0.8660254037844392
vn -0.09104984882268205 0.9832800720636349 -0.15770296418235097
vn 0 -1 0
vn -0.866025403784439 0 -0.49999999999999956
vn -0.1577029641823509 0.9832800720636349 -0.09104984882268215
vn 0 -1 0
vn -1 0 0
vn -0.1820996976453644 0.983280072063635 0
vn 0 -1 0
vn -0.866025403784439 0 0.4999999999999993
vn -0.157702964182351 0.9832800720636349 0.09104984882268202
vn 0 -1 0
vn -0.49999999999999994 0 0.8660254037844388
vn -0.09104984882268212 0.9832800720636349 0.1577029641823509
vn 0 -1 0
vn 0 0 1
vn 0 0.9832800720636349 0.18209969764536438
vn -0.6854269013430178 0.7062550770545907 0.17718275607384376
vn -0.17718275607384415 0.7062550770545907 0.6854269013430178
vn -0.49615821854399894 0.7062550770545903 -0.5050057309633824
vn -0.6821884870372255 0.7062550770545906 0.18926868279901887
vn 0.18926868279901918 0.7062550770545903 -0.6821884870372256
vn -0.505005730963382 0.7062550770545903 -0.4961582185439992
vn 0.6854269013430182 0.7062550770545905 -0.1771827560738433
vn 0.17718275607384346 0.7062550770545905 -0.6854269013430181
vn 0.49615821854399916 0.7062550770545905 0.5050057309633819
vn 0.6821884870372255 0.7062550770545906 -0.18926868279901896
vn -0.18926868279901907 0.7062550770545905 0.6821884870372256
vn 0.5050057309633821 0.7062550770545905 0.49615821854399905
vn 0 -0.976666771637434 -0.21476037152908978
vn -0.10738018576454479 -0.976666771637434 -0.1859879374703761
vn -0.1859879374703761 -0.976666771637434 -0.10738018576454492
vn -0.21476037152908978 -0.976666771637434 0
vn -0.18598793747037612 -0.976666771637434 0.10738018576454476
vn -0.10738018576454492 -0.976666771637434 0.18598793747037604
vn 0 -0.976666771637434 0.21476037152908972
vn 0.10738018576454496 -0.976666771637434 0.18598793747037606
vn 0.18598793747037604 -0.976666771637434 0.10738018576454499
vn 0.21476037152908975 -0.976666771637434 0
vn 0.18598793747037598 -0.976666771637434 -0.10738018576454496
vn 0.10738018576454501 -0.976666771637434 -0.18598793747037598
vn 0 0.3990464791598485 -0.9169306993825262
vn -0.45846534969126285 0.39904647915984837 -0.7940852791751002
vn -0.7940852791751003 0.3990464791598479 -0.45846534969126324
vn -0.9169306993825264 0.3990464791598481 0
vn -0.7940852791751004 0.39904647915984814 0.4584653496912627
vn -0.4584653496912635 0.3990464791598478 0.7940852791751001
vn 0 0.3990464791598485 0.9169306993825262
vn 0.45846534969126357 0.3990464791598483 0.7940852791750997
vn 0.7940852791751001 0.3990464791598479 0.4584653496912636
vn 0.9169306993825264 0.3990464791598481 0
vn 0.7940852791751001 0.39904647915984803 -0.4584653496912634
vn 0.458465349691264 0.399046479159848 -0.7940852791751
vn -0.4700431685089021 -0.34093647348508865 0.8141386496080772
vn -0.8141386496080778 -0.3409364734850884 0.4700431685089015
vn -0.9400863370178039 -0.34093647348508854 0
vn -0.8141386496080774 -0.3409364734850885 -0.4700431685089018
vn -0.47004316850890165 -0.34093647348508843 -0.8141386496080775
vn 0 -0.34093647348508876 -0.9400863370178038
vn 0.4700431685089025 -0.3409364734850887 -0.8141386496080769
vn 0.8141386496080771 -0.34093647348508843 -0.4700431685089022
vn 0.9400863370178038 -0.3409364734850884 0
vn 0.8141386496080772 -0.3409364734850885 0.4700431685089022
vn 0.4700431685089022 -0.34093647348508854 0.8141386496080771
vn 0 -0.3409364734850888 0.9400863370178038
usemtl m_71656b30-b32c-e1fd-623d-13d130a785dd
f 3/1/1 31/2/1 1/3/1
f 2/4/2 31/5/2 30/6/2 4/7/2
f 52/8/3 53/9/3 46/10/3
f 29/11/4 3/12/4 1/13/4
f 4/14/5 30/15/5 29/16/5 5/17/5
f 53/18/6 54/19/6 46/20/6
f 6/21/7 29/22/7 1/23/7
f 5/24/8 29/25/8 28/26/8 7/27/8
f 54/28/9 55/29/9 46/30/9
f 27/31/10 6/32/10 1/33/10
f 7/34/11 28/35/11 27/36/11 8/37/11
f 55/38/12 56/39/12 46/40/12
f 9/41/13 27/42/13 1/43/13
f 8/44/14 27/45/14 26/46/14 10/47/14
f 56/48/15 44/49/15 46/50/15
f 25/51/16 9/52/16 1/53/16
f 10/54/17 26/55/17 25/56/17 11/57/17
f 44/58/18 45/59/18 46/60/18
f 12/61/19 25/62/19 1/63/19
f 11/64/20 25/65/20 24/66/20 13/67/20
f 45/68/21 47/69/21 46/70/21
f 23/71/22 12/72/22 1/73/22
f 13/74/23 24/75/23 23/76/23 14/77/23
f 47/78/24 48/79/24 46/80/24
f 15/81/25 23/82/25 1/83/25
f 14/84/26 23/85/26 22/86/26 16/87/26
f 48/88/27 49/89/27 46/90/27
f 21/91/28 15/92/28 1/93/28
f 16/94/29 22/95/29 21/96/29 17/97/29
f 49/98/30 50/99/30 46/100/30
f 18/101/31 21/102/31 1/103/31
f 17/104/32 21/105/32 20/106/32 19/107/32
f 50/108/33 51/109/33 46/110/33
f 31/111/34 18/112/34 1/113/34
f 19/114/35 20/115/35 31/116/35 2/117/35
f 51/118/36 52/119/36 46/120/36
f 18/121/37 20/122/37 21/123/37
f 21/124/38 22/125/38 15/126/38
f 15/127/39 22/128/39 23/129/39
f 23/130/40 24/131/40 12/132/40
f 12/133/41 24/134/41 25/135/41
f 25/136/42 26/137/42 9/138/42
f 9/139/43 26/140/43 27/141/43
f 27/142/44 28/143/44 6/144/44
f 6/145/45 28/146/45 29/147/45
f 29/148/46 30/149/46 3/150/46
f 3/151/47 30/152/47 31/153/47
f 31/154/48 20/155/48 18/156/48
f 33/157/49 32/158/49 10/159/49 11/160/49
f 34/161/50 33/162/50 11/163/50 13/164/50
f 35/165/51 34/166/51 13/167/51 14/168/51
f 36/169/52 35/170/52 14/171/52 16/172/52
f 37/173/53 36/174/53 16/175/53 17/176/53
f 38/177/54 37/178/54 17/179/54 19/180/54
f 39/181/55 38/182/55 19/183/55 2/184/55
f 40/185/56 39/186/56 2/187/56 4/188/56
f 41/189/57 40/190/57 4/191/57 5/192/57
f 42/193/58 41/194/58 5/195/58 7/196/58
f 43/197/59 42/198/59 7/199/59 8/200/59
f 32/201/60 43/202/60 8/203/60 10/204/60
f 44/205/61 63/206/61 62/207/61 45/208/61
f 45/209/62 62/210/62 61/211/62 47/212/62
f 47/213/63 61/214/63 60/215/63 48/216/63
f 48/217/64 60/218/64 59/219/64 49/220/64
f 49/221/65 59/222/65 58/223/65 50/224/65
f 50/225/66 58/226/66 57/227/66 51/228/66
f 51/229/67 57/230/67 68/231/67 52/232/67
f 52/233/68 68/234/68 67/235/68 53/236/68
f 53/237/69 67/238/69 66/239/69 54/240/69
f 54/241/70 66/242/70 65/243/70 55/244/70
f 55/245/71 65/246/71 64/247/71 56/248/71
f 56/249/72 64/250/72 63/251/72 44/252/72
f 38/253/73 57/254/73 58/255/73 37/256/73
f 37/257/74 58/258/74 59/259/74 36/260/74
f 36/261/75 59/262/75 60/263/75 35/264/75
f 35/265/76 60/266/76 61/267/76 34/268/76
f 34/269/77 61/270/77 62/271/77 33/272/77
f 33/273/78 62/274/78 63/275/78 32/276/78
f 32/277/79 63/278/79 64/279/79 43/280/79
f 43/281/80 64/282/80 65/283/80 42/284/80
f 42/285/81 65/286/81 66/287/81 41/288/81
f 41/289/82 66/290/82 67/291/82 40/292/82
f 40/293/83 67/294/83 68/295/83 39/296/83
f 39/297/84 68/298/84 57/299/84 38/300/84