# Made in Blockbench 5.0.3
mtllib wise-mountain.mtl

o pyramid
v 0.28125 0 -0.28125
v -0.28125 0 -0.28125
v -0.375 0 0
v 0 0 -0.375
v 0.140625 0.5 -0.140625
v 0 0.5 -0.1875
v -0.140625 0.5 -0.140625
v -0.28125 0 0.28125
v 0.375 0 0
v 0.1875 0.5 0
v 0 0.625 0
v 0.28125 0 0.28125
v 0 0 0.375
v 0 0.5 0.1875
v -0.140625 0.5 0.140625
v -0.1875 0.5 0
v 0.140625 0.5 0.140625
vt 0.6140560263926401 0.3930196249934508
vt 0.574843852113188 0.6591971928214712
vt 0.4907926802569559 0.6591971928214712
vt 0.45590372564916726 0.39448542401690645
vt 0.418593852113188 0.9404471928214712
vt 0.33454268025695594 0.9404471928214712
vt 0.2996537256491672 0.6757354240169064
vt 0.45780602639264006 0.6742696249934508
vt 0.9404500714241896 0.7481645054410365
vt 0.9404500714241896 0.8222801304410366
vt 0.6751000714241896 0.8667488804410366
vt 0.6751000714241895 0.7185176304410366
vt 0.16234764819063183 0.2575528241662315
vt 0.1623476481906318 0.375
vt 0.09375 0.28561505023357925
vt 0.3639997260673477 0.12671485180936815
vt 0.45338467583376846 0.1953125
vt 0.3359375 0.1953125
vt 0.07031249999999997 0.40625
vt 0.001714851809368173 0.31686505023357925
vt 0.0703125 0.2888028241662315
vt 0.6374935263926401 0.6898946249934508
vt 0.598281352113188 0.9560721928214712
vt 0.5142301802569559 0.9560721928214712
vt 0.47934122564916726 0.6913604240169064
vt 0.9326375714241896 0.5606645054410365
vt 0.9326375714241896 0.6347801304410366
vt 0.6672875714241896 0.6792488804410366
vt 0.6672875714241895 0.5310176304410366
vt 0.2468122260673477 0.33765235180936815
vt 0.33619717583376846 0.40625
vt 0.21875 0.40625
vt 0.47484764819063185 0.2575528241662315
vt 0.4748476481906318 0.375
vt 0.40625 0.28561505023357925
vt 0.34375 1
vt 0.22630282416623154 1
vt 0.25436505023357925 0.9314023518093681
vt 0.284149858663325 0.15821763044103654
vt 0.018799858663324953 0.2026863804410366
vt 0.018799858663324898 0.05445513044103656
vt 0.2841498586633249 0.08410200544103641
vt 0.3828125 0.40625
vt 0.31421485180936815 0.31686505023357925
vt 0.3828125 0.2888028241662315
vt 0.17655602639264015 0.4164571249934508
vt 0.13734385211318795 0.6826346928214712
vt 0.053292680256955834 0.6826346928214712
vt 0.018403725649167285 0.41792292401690645
vt 0.22311505023357925 0.24390235180936815
vt 0.3125 0.3125
vt 0.19505282416623154 0.3125
vt 0.6516123586633249 0.4995613804410364
vt 0.651612358663325 0.35133013044103634
vt 0.9169623586633249 0.38097700544103663
vt 0.916962358663325 0.45509263044103676
vt 0.2890625 0.859375
vt 0.17637247808059897 0.7485851972746091
vt 0.1640625 0.6008654603074213
vt 0.2890625 0.5023856356626293
vt 0.5246303178313146 0.296875
vt 0.6231101424761065 0.18608519727460915
vt 0.7708298794432944 0.198395175355208
vt 0.8816196821686854 0.296875
vt 0.26206726984628936 0.8892101972746091
vt 0.15127746712089848 0.987690021919401
vt 0.0035577301537106087 1
vt 0.0035577301537106087 0.6430106356626293
vn -0.2979355690895435 0.3351775152257364 -0.8938067072686304
vn -0.8938067072686304 0.3351775152257364 0.2979355690895435
vn 0.2979355690895435 0.3351775152257364 -0.8938067072686304
vn 0.5454545454545454 0.8181818181818182 -0.18181818181818182
vn 0.18181818181818182 0.8181818181818182 -0.5454545454545454
vn -0.18181818181818182 0.8181818181818182 -0.5454545454545454
vn 0.2979355690895435 0.3351775152257364 0.8938067072686304
vn -0.2979355690895435 0.3351775152257364 0.8938067072686304
vn -0.18181818181818182 0.8181818181818182 0.5454545454545454
vn -0.5454545454545454 0.8181818181818182 0.18181818181818182
vn -0.5454545454545454 0.8181818181818182 -0.18181818181818182
vn -0.8938067072686304 0.3351775152257364 -0.2979355690895435
vn 0.18181818181818182 0.8181818181818182 0.5454545454545454
vn 0.8938067072686304 0.3351775152257364 -0.2979355690895435
vn 0.5454545454545454 0.8181818181818182 0.18181818181818182
vn 0.8938067072686304 0.3351775152257364 0.2979355690895435
vn 0 1 0
vn 0 1 0
vn 0 1 0
usemtl m_6afdc5d8-2e7c-6dfb-a105-725671b4f6ae
f 2/1/1 7/2/1 6/3/1 4/4/1
f 15/5/2 16/6/2 3/7/2 8/8/2
f 6/9/3 5/10/3 1/11/3 4/12/3
f 5/13/4 11/14/4 10/15/4
f 6/16/5 11/17/5 5/18/5
f 11/19/6 6/20/6 7/21/6
f 12/22/7 17/23/7 14/24/7 13/25/7
f 14/26/8 15/27/8 8/28/8 13/29/8
f 14/30/9 11/31/9 15/32/9
f 15/33/10 11/34/10 16/35/10
f 11/36/11 7/37/11 16/38/11
f 7/39/12 2/40/12 3/41/12 16/42/12
f 11/43/13 14/44/13 17/45/13
f 1/46/14 5/47/14 10/48/14 9/49/14
f 10/50/15 11/51/15 17/52/15
f 12/53/16 9/54/16 10/55/16 17/56/16
f 2/57/17 3/58/17 8/59/17 13/60/17
f 13/61/18 12/62/18 9/63/18 1/64/18
f 1/65/19 4/66/19 2/67/19 13/68/19